<svg id="Capa_1" enable-background="new 0 0 512.095 512.095" height="512" viewBox="0 0 512.095 512.095" width="512" xmlns="http://www.w3.org/2000/svg"><g><g><path d="m397.946 11.923c-1.353-2.711-4.122-4.423-7.152-4.423h-126.156c-3.03 0-5.799 1.713-7.152 4.423l-14.111 28.267-4.223 21.344 172.906 3.711v-25.054z" fill="#e1d3ce"/><path d="m244.363 299.638h15.87c12.59 0 24.974-3.199 35.989-9.296 1.42-.786 1.981-2.543 1.28-4.007l-4.366-9.109c-.767-1.6-1.165-3.352-1.165-5.126v-47.651-75.51h-86.519v142.376l15.926 8.324h22.985z" fill="#cdbfba"/><path d="m205.452 40.191v-6.159c0-4.753-3.853-8.607-8.607-8.607h-36.013c-5.31 0-10.113 3.155-12.222 8.028l-78.941 182.418c-2.973 6.87-1.031 14.878 4.758 19.624l13.684 11.215 35.555 25.741 81.785-150.165v-82.095z" fill="#e1d3ce"/><g><path d="m158.72 208.088-18.26 243.218 40.883 14.712h44.779l22.107-201.668c.16-1.46.68-2.86 1.5-4.08l21.94-32.43v-28.827z" fill="#f3eae6"/><g id="XMLID_115_"><path d="m408.9 40.191h-203.45l-72.75 164.55-44.59 41.97-19.218 211.262 17.834 19.063 93.519-1.363 2.015-17.702 21.72-205.2c.87-8.2 7.11-14.82 15.25-16.18l52.44-8.75 137.293-22.92c-.041-.342 14.715-16.75 14.715-16.75v-122.925z" fill="#f9f3f1"/><g><path d="m444.83 58.521v124.89c0 8.96-6.48 16.61-15.32 18.08l-20.61 3.441v-.551-164.19h17.59c10.13 0 18.34 8.21 18.34 18.33z" fill="#f3eae6"/></g><path d="m78.958 468.322 41.307-.525 18.02-198.085c1.415-15.555 8.476-30.053 19.849-40.758l17.996-16.939c5.901-5.554 10.629-12.234 13.906-19.646l67.28-152.178h-51.866l-72.75 164.55-44.59 41.97-19.218 211.262z" fill="#f3eae6"/><g><g id="XMLID_116_"><g><path d="m227 457.971-2.5 22.85c-1.49 13.59-12.98 23.89-26.65 23.89h-20.91-82.94c-15.76 0-28.13-13.54-26.7-29.24l1.59-17.5z" fill="#e1d3ce"/></g></g></g></g><path d="m358.658 136.067h-124.215c-5.195 0-9.406-4.211-9.406-9.406v-45.962c0-5.195 4.211-9.406 9.406-9.406h124.215c5.195 0 9.406 4.211 9.406 9.406v45.962c0 5.195-4.211 9.406-9.406 9.406z" fill="#e1d3ce"/><path d="m294.754 115.734c-20.752 0-37.575-16.823-37.575-37.575v-6.865h-22.735c-5.195 0-9.406 4.211-9.406 9.406v45.962c0 5.195 4.211 9.406 9.406 9.406h124.215c5.195 0 9.406-4.211 9.406-9.406v-10.928z" fill="#cdbfba"/></g><path d="m152.978 504.711-12.067-1.703c-13.046-2.696-22.501-14.846-21.241-28.679l1.488-16.358h-52.268l-1.59 17.5c-1.43 15.7 10.94 29.24 26.7 29.24h51.449z" fill="#cdbfba"/></g><g><path d="m426.531 32.576h-9.891l-11.983-24.002c-2.64-5.289-7.952-8.574-13.862-8.574h-126.157c-5.911 0-11.222 3.285-13.862 8.573l-11.983 24.003h-25.916c-.739-8.201-7.643-14.652-16.033-14.652h-36.012c-8.307 0-15.807 4.926-19.105 12.549l-8.833 20.411c-1.645 3.801.103 8.217 3.905 9.862.97.42 1.98.619 2.975.619 2.9 0 5.662-1.692 6.887-4.523l8.833-20.411c.921-2.13 3.017-3.506 5.339-3.506h36.012c.61 0 1.107.497 1.107 1.106v4.526l-71.459 161.653-38.768 36.486-8.543-7.002c-3.183-2.608-4.264-7.068-2.63-10.845l57.415-132.673c1.645-3.801-.103-8.216-3.905-9.862s-8.217.103-9.862 3.905l-57.415 132.674c-4.28 9.892-1.448 21.571 6.888 28.403l10.634 8.716-20.436 224.666c-.871 9.577 2.349 19.142 8.833 26.243s15.719 11.174 25.335 11.174h103.848c17.532 0 32.193-13.142 34.105-30.57l19.12-174.387h9.122c13.824 0 27.525-3.539 39.622-10.235 4.888-2.707 6.825-8.773 4.41-13.81l-4.366-9.109c-.28-.585-.428-1.237-.428-1.886v-41.407l131.313-21.916c12.504-2.087 21.581-12.803 21.581-25.481v-124.884c-.002-14.245-11.591-25.834-25.835-25.834zm-162.334-17.303c.083-.166.256-.273.441-.273h126.156c.186 0 .359.107.441.273l8.638 17.303h-144.314zm-66.31 481.822h-103.848c-5.492 0-10.555-2.233-14.258-6.289-3.704-4.055-5.469-9.301-4.972-14.77l.961-10.566h22.136c4.142 0 7.5-3.358 7.5-7.5s-3.358-7.5-7.5-7.5h-20.771l18.225-200.362 42.518-40.016c.729-.687 1.314-1.512 1.719-2.429l70.776-160.087h191.027v150.896l-183.372 30.604c-11.421 1.906-20.249 11.28-21.468 22.794l-21.02 198.599h-45.644c-4.142 0-7.5 3.358-7.5 7.5s3.358 7.5 7.5 7.5h88.764l-1.581 14.42c-1.074 9.81-9.325 17.206-19.192 17.206zm45.669-241.14c-1.501 2.22-2.449 4.801-2.741 7.466l-.865 7.888h-7.32c-4.142 0-7.5 3.358-7.5 7.5s3.358 7.5 7.5 7.5h5.675l-3.538 32.268h-7.764c-4.142 0-7.5 3.358-7.5 7.5s3.358 7.5 7.5 7.5h6.119l-3.538 32.268h-8.208c-4.142 0-7.5 3.358-7.5 7.5s3.358 7.5 7.5 7.5h6.563l-3.538 32.268h-8.652c-4.142 0-7.5 3.358-7.5 7.5s3.358 7.5 7.5 7.5h7.007l-2.451 22.357h-29.681l20.852-197.02c.512-4.838 4.221-8.777 9.021-9.578l35.203-5.875zm42.816 24.512 2.501 5.219c-8.926 4.231-18.745 6.452-28.64 6.452h-7.478l2.969-27.081c.028-.25.117-.493.257-.701l20.132-29.767 8.356-1.395v38.903c.001 2.881.659 5.774 1.903 8.37zm150.992-97.172c0 5.316-3.806 9.811-9.05 10.686l-11.913 1.988v-148.393h10.13c5.974 0 10.833 4.86 10.833 10.833z"/><path d="m234.444 143.567h124.214c9.322 0 16.906-7.584 16.906-16.906v-45.962c0-9.322-7.584-16.906-16.906-16.906h-75.8c-4.142 0-7.5 3.358-7.5 7.5s3.358 7.5 7.5 7.5h75.8c1.051 0 1.906.855 1.906 1.906v45.962c0 1.051-.855 1.906-1.906 1.906h-124.214c-1.051 0-1.906-.855-1.906-1.906v-45.962c0-1.051.855-1.906 1.906-1.906h16.452c4.142 0 7.5-3.358 7.5-7.5s-3.358-7.5-7.5-7.5h-16.452c-9.322 0-16.906 7.584-16.906 16.906v45.962c-.001 9.322 7.583 16.906 16.906 16.906z"/><path d="m362.265 165.099h-15.463c-4.142 0-7.5 3.358-7.5 7.5s3.358 7.5 7.5 7.5h15.463c4.142 0 7.5-3.358 7.5-7.5s-3.358-7.5-7.5-7.5z"/><path d="m225.037 180.099h96.155c4.142 0 7.5-3.358 7.5-7.5s-3.358-7.5-7.5-7.5h-96.155c-4.142 0-7.5 3.358-7.5 7.5s3.358 7.5 7.5 7.5z"/></g></g></svg>