<svg id="Capa_1" enable-background="new 0 0 511.012 511.012" height="512" viewBox="0 0 511.012 511.012" width="512" xmlns="http://www.w3.org/2000/svg"><g><g><path d="m267.95 95.656h-55.155v-74.827c0-7.361 5.968-13.329 13.329-13.329h28.497c7.361 0 13.329 5.968 13.329 13.329z" fill="#f9f3f1"/><path d="m237.339 58.655c-3.94 0-7.134-3.194-7.134-7.134v-30.692c0-7.361 5.968-13.329 13.329-13.329h-17.41c-7.361 0-13.329 5.968-13.329 13.329v74.826h15.369 2.04 37.745v-37z" fill="#f3eae6"/><path d="m284.36 130.518h-86.974v-39.173c0-7.008 5.681-12.689 12.689-12.689h61.596c7.008 0 12.689 5.681 12.689 12.689z" fill="#f9f3f1"/><path d="m227.06 96.519c-2.362 0-4.271-1.915-4.271-4.278v-.897c0-7.008 5.681-12.689 12.689-12.689h-25.403c-7.008 0-12.689 5.681-12.689 12.689v39.174h86.974v-33.991c-.095-.001-43.364-.006-57.3-.008z" fill="#f3eae6"/><path d="m297.854 170.458h-114.939v-45.107c0-7.64 6.193-13.833 13.833-13.833h87.272c7.64 0 13.833 6.193 13.833 13.833v45.107z" fill="#f9f3f1"/><g id="XMLID_34_"><g><path d="m223.729 137.459c-4.194 0-7.593-3.4-7.593-7.593v-4.515c0-7.64 6.193-13.833 13.833-13.833h-33.221c-7.64 0-13.833 6.193-13.833 13.833v45.106h114.939v-32.947c-.357-.015-74.125-.051-74.125-.051z" fill="#f3eae6"/><path d="m365.613 255.629v-19.05c0-8.24-3.32-16.13-9.2-21.89l-57.489-56.356c-.571-.56-1.34-.874-2.14-.874h-112.823c-.8 0-1.569.314-2.14.874l-57.489 56.356c-5.88 5.76-9.2 13.65-9.2 21.89v19.05l22.535 23.799v154.952l-22.535 15.269v7.77c0 25.455 20.635 46.09 46.09 46.09h158.31c25.449 0 46.08-20.631 46.08-46.08v-7.78l-17.902-11.986v-162.857z" fill="#a7eedc"/></g></g><path d="m188.115 214.689 57.488-56.356c.572-.56 1.34-.874 2.14-.874h-63.783c-.8 0-1.569.314-2.14.874l-57.489 56.356c-5.88 5.76-9.2 13.65-9.2 21.89v19.05l36.989 36.519v139.342l-36.989 18.16v7.77c0 25.455 20.635 46.09 46.09 46.09h63.783c-25.455 0-46.09-20.635-46.09-46.09v-220.84c.001-8.241 3.321-16.131 9.201-21.891z" fill="#86e8d0"/><g id="XMLID_72_"><g><path d="m115.133 255.629h250.48v194.02h-250.48z" fill="#f3f0f3"/></g></g><path d="m115.133 255.629h63.783v194.02h-63.783z" fill="#f3eae6"/><path d="m298.628 333.216h-33.103c-2.888 0-5.229-2.341-5.229-5.229v-33.103c0-2.888-2.341-5.229-5.229-5.229h-28.389c-2.888 0-5.229 2.341-5.229 5.229v33.103c0 2.888-2.341 5.229-5.229 5.229h-33.103c-2.888 0-5.229 2.341-5.229 5.229v28.389c0 2.888 2.341 5.229 5.229 5.229h33.103c2.888 0 5.229 2.341 5.229 5.229v33.103c0 2.888 2.341 5.229 5.229 5.229h28.389c2.888 0 5.229-2.341 5.229-5.229v-33.103c0-2.888 2.341-5.229 5.229-5.229h33.103c2.888 0 5.229-2.341 5.229-5.229v-28.389c0-2.888-2.341-5.229-5.229-5.229z" fill="#86e8d0"/></g><g><path d="m365.61 408.124c-4.143 0-7.5 3.358-7.5 7.5v26.526h-235.475v-179.021h176.195c4.143 0 7.5-3.358 7.5-7.5s-3.357-7.5-7.5-7.5h-176.195v-11.552c0-6.181 2.531-12.208 6.945-16.534l20.165-19.768c2.958-2.9 3.006-7.648.105-10.606-2.898-2.956-7.647-3.006-10.605-.105l-20.165 19.768c-7.273 7.129-11.445 17.06-11.445 27.246v220.85c0 29.547 24.038 53.585 53.585 53.585h158.305c29.547 0 53.585-24.038 53.585-53.585v-41.803c0-4.143-3.357-7.501-7.5-7.501zm-46.085 87.888h-158.305c-21.275 0-38.585-17.309-38.585-38.585v-.277h235.475v.277c0 21.276-17.309 38.585-38.585 38.585z"/><path d="m306.33 155.086v-29.735c0-9.36-6.068-17.313-14.47-20.179v-13.827c0-9.84-7.079-18.046-16.41-19.822v-50.694c0-11.485-9.344-20.829-20.829-20.829h-28.496c-11.485 0-20.829 9.344-20.829 20.829v50.922c-8.829 2.155-15.41 10.111-15.41 19.594v13.828c-8.402 2.866-14.47 10.819-14.47 20.179v28.755l-13.307 13.044c-2.958 2.899-3.006 7.648-.105 10.606 2.899 2.959 7.649 3.005 10.605.106l13.163-12.903h109.201l56.191 55.084c4.414 4.326 6.945 10.353 6.945 16.534v11.552h-27.317c-4.143 0-7.5 3.358-7.5 7.5s3.357 7.5 7.5 7.5h27.317v120.532c0 4.142 3.357 7.5 7.5 7.5s7.5-3.358 7.5-7.5v-147.085c0-10.186-4.172-20.117-11.445-27.246zm-115.914-29.734c0-3.492 2.841-6.333 6.333-6.333h88.248c3.492 0 6.333 2.841 6.333 6.333v24.607h-100.914zm29.88-104.523c0-3.214 2.615-5.829 5.829-5.829h28.496c3.214 0 5.829 2.615 5.829 5.829v50.326h-40.154zm-10.221 65.326h61.596c2.861 0 5.189 2.328 5.189 5.189v12.674h-71.975v-12.673c0-2.862 2.329-5.19 5.19-5.19z"/><path d="m240.373 27.221c-4.143 0-7.5 3.358-7.5 7.5v4.925c0 4.142 3.357 7.5 7.5 7.5s7.5-3.358 7.5-7.5v-4.925c0-4.142-3.358-7.5-7.5-7.5z"/><path d="m226.678 423.124h28.389c7.02 0 12.729-5.71 12.729-12.729v-30.832h30.831c7.02 0 12.729-5.71 12.729-12.729v-28.389c0-7.019-5.71-12.729-12.729-12.729h-30.831v-30.832c0-7.019-5.71-12.729-12.729-12.729h-28.389c-7.02 0-12.729 5.71-12.729 12.729v30.832h-30.831c-7.02 0-12.729 5.71-12.729 12.729v28.389c0 7.019 5.71 12.729 12.729 12.729h30.831v30.832c0 7.019 5.71 12.729 12.729 12.729zm-41.29-58.561v-23.847h30.832c7.019 0 12.729-5.71 12.729-12.729v-30.832h23.848v30.832c0 7.019 5.71 12.729 12.729 12.729h30.832v23.847h-30.832c-7.019 0-12.729 5.71-12.729 12.729v30.832h-23.848v-30.832c0-7.019-5.71-12.729-12.729-12.729z"/><path d="m319.043 53.924h7.745c4.143 0 7.5-3.358 7.5-7.5s-3.357-7.5-7.5-7.5h-7.745c-4.143 0-7.5 3.358-7.5 7.5s3.357 7.5 7.5 7.5z"/><path d="m349.178 78.575h7.745c4.143 0 7.5-3.358 7.5-7.5s-3.357-7.5-7.5-7.5h-7.745c-4.143 0-7.5 3.358-7.5 7.5s3.358 7.5 7.5 7.5z"/><path d="m349.178 29.274h7.745c4.143 0 7.5-3.358 7.5-7.5s-3.357-7.5-7.5-7.5h-7.745c-4.143 0-7.5 3.358-7.5 7.5s3.358 7.5 7.5 7.5z"/><path d="m395.877 77.848h-7.746c-4.143 0-7.5 3.358-7.5 7.5s3.357 7.5 7.5 7.5h7.746c4.143 0 7.5-3.358 7.5-7.5s-3.358-7.5-7.5-7.5z"/><path d="m388.131 15h7.746c4.143 0 7.5-3.358 7.5-7.5s-3.357-7.5-7.5-7.5h-7.746c-4.143 0-7.5 3.358-7.5 7.5s3.357 7.5 7.5 7.5z"/><path d="m395.877 38.924h-7.746c-4.143 0-7.5 3.358-7.5 7.5s3.357 7.5 7.5 7.5h7.746c4.143 0 7.5-3.358 7.5-7.5s-3.358-7.5-7.5-7.5z"/></g></g></svg>