<svg id="Capa_1" enable-background="new 0 0 509.553 509.553" height="512" viewBox="0 0 509.553 509.553" width="512" xmlns="http://www.w3.org/2000/svg"><g><g><path d="m464.657 104.286h-414.761l-42.4 33.7v285.19c0 17.45 14.14 31.59 31.59 31.59h431.38c17.45 0 31.59-14.14 31.59-31.59v-285.19z" fill="#f9f3f1"/><path d="m89.656 423.176v-318.89h-39.76l-42.4 33.7v285.19c0 17.45 14.14 31.59 31.59 31.59h82.16c-17.45 0-31.59-14.14-31.59-31.59z" fill="#f3eae6"/><g id="XMLID_131_"><g><path d="m502.056 102.166v35.82h-494.56v-35.82c0-17.44 14.14-31.58 31.59-31.58h69.38 48.77 48.77 48.77 48.77 48.77 48.77 69.38c17.45 0 31.59 14.14 31.59 31.58z" fill="#f79595"/></g></g><path d="m89.656 102.166c0-17.44 14.14-31.58 31.59-31.58h-12.78-69.38c-17.45 0-31.59 14.14-31.59 31.58v35.82h82.16z" fill="#f37c7c"/><g fill="#f79595"><path d="m61.286 268.136 13.6-13.59c1.38-1.39 3.74-.41 3.74 1.55v123.79c0 1.21.99 2.2 2.2 2.2h28.03c1.21 0 2.19-.99 2.19-2.2v-161.63c0-1.22-.98-2.2-2.19-2.2h-36.73c-.58 0-1.14.23-1.55.64l-30.53 30.53c-.86.86-.86 2.26.01 3.12l18.14 17.8c.86.85 2.24.84 3.09-.01z"/><path d="m199.126 216.056c-.82 0-1.55.49-1.86 1.25l-49.8 122.34c-.54 1.32.43 2.76 1.85 2.76h50.46c1.1 0 2 .9 2 2.01v38.67c0 1.11.9 2.01 2 2.01h30.3c1.11 0 2-.9 2-2.01v-31.86c0-1.11.9-2 2.01-2h22.48c1.11 0 2.01-.9 2.01-2.01v-28.31c0-1.11-.9-2.01-2.01-2.01h-18.56c-1.1 0-2-.89-2-2v-25.96-70.46c0-1.33-1.09-2.42-2.42-2.42z"/></g></g><g><path d="m502.053 180.274c4.143 0 7.5-3.358 7.5-7.5v-71.608c0-21.551-17.533-39.084-39.085-39.084h-61.879v-6.292c0-4.142-3.357-7.5-7.5-7.5s-7.5 3.358-7.5 7.5v6.292h-33.771v-6.292c0-4.142-3.357-7.5-7.5-7.5s-7.5 3.358-7.5 7.5v6.292h-33.771v-6.292c0-4.142-3.357-7.5-7.5-7.5s-7.5 3.358-7.5 7.5v6.292h-33.771v-6.292c0-4.142-3.357-7.5-7.5-7.5s-7.5 3.358-7.5 7.5v6.292h-33.771v-6.292c0-4.142-3.357-7.5-7.5-7.5s-7.5 3.358-7.5 7.5v6.292h-33.771v-6.292c0-4.142-3.357-7.5-7.5-7.5s-7.5 3.358-7.5 7.5v6.292h-33.771v-6.292c0-4.142-3.357-7.5-7.5-7.5s-7.5 3.358-7.5 7.5v6.292h-61.878c-21.552 0-39.085 17.533-39.085 39.085v321.011c0 21.552 17.533 39.085 39.085 39.085h431.383c21.552 0 39.085-17.533 39.085-39.085v-217.441c0-4.142-3.357-7.5-7.5-7.5s-7.5 3.358-7.5 7.5v217.441c0 13.28-10.805 24.085-24.085 24.085h-431.383c-13.28 0-24.085-10.805-24.085-24.085v-276.694h44.245c4.143 0 7.5-3.358 7.5-7.5s-3.357-7.5-7.5-7.5h-44.245v-29.318c0-13.28 10.805-24.084 24.085-24.084h61.879v5.714c0 4.142 3.357 7.5 7.5 7.5s7.5-3.358 7.5-7.5v-5.714h33.771v5.714c0 4.142 3.357 7.5 7.5 7.5s7.5-3.358 7.5-7.5v-5.714h33.771v5.714c0 4.142 3.357 7.5 7.5 7.5s7.5-3.358 7.5-7.5v-5.714h33.771v5.714c0 4.142 3.357 7.5 7.5 7.5s7.5-3.358 7.5-7.5v-5.714h33.771v5.714c0 4.142 3.357 7.5 7.5 7.5s7.5-3.358 7.5-7.5v-5.714h33.771v5.714c0 4.142 3.357 7.5 7.5 7.5s7.5-3.358 7.5-7.5v-5.714h33.771v5.714c0 4.142 3.357 7.5 7.5 7.5s7.5-3.358 7.5-7.5v-5.714h61.879c13.28 0 24.085 10.804 24.085 24.084v29.318h-403.346c-4.143 0-7.5 3.358-7.5 7.5s3.357 7.5 7.5 7.5h403.345v27.29c0 4.143 3.357 7.5 7.5 7.5z"/><path d="m111.051 334.717c4.143 0 7.5-3.358 7.5-7.5v-107.46c0-5.346-4.35-9.696-9.696-9.696h-36.73c-2.588 0-5.021 1.007-6.856 2.84l-30.525 30.526c-1.844 1.844-2.852 4.295-2.84 6.902.013 2.606 1.043 5.048 2.903 6.874l18.138 17.804c3.78 3.712 9.902 3.682 13.647-.062l4.541-4.541v110.987c0 5.346 4.35 9.695 9.695 9.695h28.027c5.347 0 9.696-4.349 9.696-9.695v-22.211c0-4.142-3.357-7.5-7.5-7.5s-7.5 3.358-7.5 7.5v16.907h-17.419v-118.489c0-3.936-2.35-7.452-5.986-8.958-3.635-1.506-7.783-.681-10.564 2.102l-9.88 9.879-10.566-10.373 25.187-25.188h29.229v102.156c-.001 4.143 3.356 7.501 7.499 7.501z"/><path d="m203.779 392.591h30.298c5.24 0 9.503-4.263 9.503-9.503v-26.366h16.988c5.24 0 9.504-4.263 9.504-9.503v-28.316c0-5.24-4.264-9.503-9.504-9.503h-13.063v-90.919c0-5.472-4.451-9.923-9.923-9.923h-38.458c-3.886 0-7.342 2.326-8.802 5.92l-49.804 122.342c-1.196 2.935-.854 6.258.914 8.888 1.769 2.631 4.717 4.201 7.887 4.201h44.958v33.178c-.001 5.241 4.262 9.504 9.502 9.504zm-46.289-57.682 45.331-111.353h29.684v91.338c0 5.24 4.263 9.503 9.503 9.503h13.064v17.323h-16.988c-5.24 0-9.504 4.263-9.504 9.503v26.366h-19.304v-33.178c0-5.24-4.263-9.503-9.503-9.503h-42.283z"/><path d="m212.442 307.547v-29.796c0-4.142-3.357-7.5-7.5-7.5s-7.5 3.358-7.5 7.5v29.796c0 4.142 3.357 7.5 7.5 7.5s7.5-3.358 7.5-7.5z"/><path d="m297.356 259.944c-4.143 0-7.5 3.358-7.5 7.5v54.208c0 4.142 3.357 7.5 7.5 7.5h8.979c19.08 0 34.604-15.523 34.604-34.604s-15.523-34.604-34.604-34.604zm28.583 34.603c0 10.81-8.794 19.604-19.604 19.604h-1.479v-39.208h1.479c10.811.001 19.604 8.795 19.604 19.604z"/><path d="m400.516 329.151c4.143 0 7.5-3.358 7.5-7.5v-35.692c0-14.345-11.671-26.016-26.016-26.016s-26.016 11.67-26.016 26.016v35.692c0 4.142 3.357 7.5 7.5 7.5s7.5-3.358 7.5-7.5v-16.553h22.031v16.553c.001 4.142 3.358 7.5 7.501 7.5zm-29.532-39.053v-4.139c0-6.074 4.941-11.016 11.016-11.016s11.016 4.941 11.016 11.016v4.139z"/><path d="m449.187 329.151c4.143 0 7.5-3.358 7.5-7.5v-10.308c10.83-3.235 18.749-13.284 18.749-25.151v-18.749c0-4.142-3.357-7.5-7.5-7.5s-7.5 3.358-7.5 7.5v18.749c0 6.203-5.046 11.249-11.249 11.249-6.202 0-11.248-5.046-11.248-11.249v-18.749c0-4.142-3.357-7.5-7.5-7.5s-7.5 3.358-7.5 7.5v18.749c0 11.868 7.918 21.916 18.748 25.151v10.308c0 4.142 3.357 7.5 7.5 7.5z"/></g></g></svg>