<svg id="Capa_1" enable-background="new 0 0 513.158 513.158" height="512" viewBox="0 0 513.158 513.158" width="512" xmlns="http://www.w3.org/2000/svg"><g><g><path d="m441.482 312.964v25.621c0 4.131 2.021 8.002 5.411 10.363l32.681 22.763c16.343 11.383 26.085 30.04 26.085 49.957v18.41c0 5.439-3.862 10.13-9.207 11.142-53.737 10.175-107.474 10.175-161.211 0-5.344-1.012-9.207-5.703-9.207-11.142v-18.41c0-19.917 9.742-38.574 26.085-49.957l32.681-22.763c3.39-2.361 5.411-6.231 5.411-10.363v-25.621-46.172h51.502z" fill="#ffe5c2"/><path d="m122.948 312.964v25.621c0 4.131 2.021 8.002 5.411 10.363l32.681 22.763c16.343 11.383 26.085 30.04 26.085 49.957v18.41c0 5.439-3.862 10.13-9.207 11.142-53.737 10.175-107.474 10.175-161.211 0-5.344-1.012-9.207-5.703-9.207-11.142v-18.41c0-19.917 9.742-38.574 26.085-49.957l32.681-22.763c3.39-2.361 5.411-6.231 5.411-10.363v-25.621-36.378h52.235z" fill="#ffe5c2"/><g><path d="m71.676 308.749v29.836c0 4.131-2.021 8.002-5.411 10.363l-32.681 22.763c-16.342 11.383-26.084 30.04-26.084 49.957v18.409c0 5.429 3.841 10.126 9.175 11.136 4.747.899 9.494 1.715 14.241 2.455v-14.857c0-19.917 9.742-38.574 26.085-49.957l32.681-22.763c3.39-2.361 5.411-6.231 5.411-10.363v-14.058c0-4.69 3.441-8.682 8.084-9.344 6.451-.92 15.139-2.495 19.772-4.638v-14.724l.112-4.214h-51.385z" fill="#fed2a4"/><path d="m390.21 308.749v4.214 25.621c0 4.131-2.021 8.002-5.411 10.363l-32.681 22.763c-16.343 11.383-26.084 30.04-26.084 49.957v18.41c0 5.472 3.911 10.14 9.287 11.157 4.365.826 8.73 1.577 13.095 2.268v-11.28c0-19.916 9.742-38.574 26.085-49.957l32.681-22.763c3.39-2.361 5.411-6.231 5.411-10.363v-17.025c0-4.945 3.638-9.135 8.536-9.817 6.765-.942 15.81-2.508 20.354-4.611v-14.724l.021-4.214h-51.294z" fill="#fed2a4"/><path d="m97.312 210.046c-25.554 0-46.269 20.715-46.269 46.269v15.746c0 10.991 3.84 21.08 10.24 29.017.465.271 16.269 9.461 16.528 9.634.263.175 26.413 5.792 26.413 5.792l8.385-.763c18.059-6.304 30.97-23.471 30.97-43.68v-15.746c.002-25.554-20.713-46.269-46.267-46.269z" fill="#ffe5c2"/><path d="m81.58 272.061v-15.746c0-20.202 12.974-37.373 31.023-43.682-4.782-1.672-9.939-2.586-15.291-2.586-25.553 0-46.269 20.715-46.269 46.269v15.746c0 25.553 20.715 46.269 46.269 46.269 5.352 0 10.517-.917 15.298-2.589-18.048-6.311-31.03-23.479-31.03-43.681z" fill="#fed2a4"/><path d="m415.846 210.046c-25.554 0-46.269 20.715-46.269 46.269v15.746c0 13.394 5.698 25.452 14.794 33.901l4.419-2.171 27.655 11.274 10.118 1.253 4.552-.567c18.054-6.306 31-23.484 31-43.69v-15.746c0-25.554-20.715-46.269-46.269-46.269z" fill="#ffe5c2"/><path d="m400.114 272.061v-15.746c0-20.202 12.978-37.371 31.027-43.681-4.782-1.672-9.944-2.588-15.295-2.588-25.553 0-46.269 20.715-46.269 46.269v15.746c0 25.553 20.715 46.269 46.269 46.269 5.352 0 10.532-.923 15.314-2.594-18.049-6.31-31.046-23.473-31.046-43.675z" fill="#fed2a4"/></g></g><g><path d="m165.326 365.557-32.681-22.763c-1.376-.958-2.197-2.531-2.197-4.208v-24.226c12.548-9.852 20.633-25.144 20.633-42.298v-15.747c0-29.648-24.12-53.768-53.769-53.768-.001 0 0 0-.001 0-14.361 0-27.864 5.593-38.02 15.748-10.155 10.155-15.748 23.658-15.748 38.02v15.747c0 17.154 8.084 32.445 20.632 42.297v24.227c0 1.677-.821 3.251-2.196 4.209l-14.989 10.438c-3.399 2.367-4.235 7.042-1.868 10.44 1.458 2.093 3.79 3.214 6.161 3.214 1.479 0 2.974-.437 4.279-1.346l14.99-10.44c5.399-3.761 8.623-9.936 8.623-16.517v-15.911c5.67 2.038 11.774 3.156 18.137 3.156 6.362 0 12.467-1.118 18.136-3.155v15.911c0 6.582 3.225 12.757 8.625 16.518l32.681 22.763c14.32 9.975 22.87 26.349 22.87 43.803v18.41c0 1.846-1.305 3.433-3.102 3.773-52.56 9.953-105.859 9.953-158.421 0-1.797-.34-3.102-1.927-3.102-3.773v-18.41c0-14.149 5.771-27.976 15.832-37.934 2.943-2.914 2.968-7.663.054-10.606-2.913-2.944-7.662-2.968-10.606-.055-12.887 12.755-20.279 30.467-20.279 48.594v18.41c0 9.045 6.438 16.831 15.311 18.511 27.206 5.151 54.604 7.727 82.001 7.727 27.398 0 54.796-2.576 82.002-7.727 8.871-1.68 15.311-9.465 15.311-18.511v-18.41c-.001-22.358-10.953-43.334-29.299-56.111zm-106.782-93.496v-15.747c0-10.355 4.032-20.091 11.354-27.414 7.323-7.322 17.059-11.354 27.414-11.354 21.377 0 38.769 17.391 38.769 38.768v15.747c0 21.377-17.392 38.769-38.769 38.769s-38.768-17.392-38.768-38.769z"/><path d="m494.272 374.494c-2.857-2.999-7.605-3.111-10.604-.255-2.998 2.858-3.112 7.605-.254 10.604 9.507 9.976 14.743 23.054 14.743 36.826v18.41c0 1.846-1.305 3.433-3.102 3.773-52.56 9.953-105.859 9.953-158.421 0-1.797-.34-3.102-1.927-3.102-3.773v-18.41c0-17.454 8.55-33.828 22.87-43.803l32.681-22.763c5.4-3.761 8.625-9.936 8.625-16.518v-15.858c5.684 2.015 11.793 3.102 18.137 3.102 6.362 0 12.466-1.118 18.136-3.155v15.911c0 6.581 3.224 12.756 8.624 16.518l16.445 11.454c1.306.91 2.8 1.346 4.279 1.346 2.371 0 4.703-1.121 6.161-3.214 2.367-3.399 1.531-8.074-1.868-10.441l-16.444-11.454c-1.376-.958-2.197-2.532-2.197-4.209v-23.621c0-.197-.015-.39-.029-.583 12.565-9.851 20.661-25.153 20.661-42.32v-15.747c0-29.648-24.12-53.769-53.769-53.769-27.021 0-49.947 20.197-53.329 46.98-.519 4.11 2.393 7.862 6.502 8.38 4.114.522 7.862-2.392 8.381-6.501 2.437-19.303 18.965-33.859 38.447-33.859 21.377 0 38.768 17.392 38.768 38.769v15.747c0 21.377-17.392 38.769-38.769 38.769-18.187 0-33.722-12.368-37.777-30.076-.925-4.039-4.947-6.564-8.985-5.636-4.037.925-6.561 4.947-5.636 8.985 2.857 12.474 9.823 23.031 19.286 30.409-.009.151-.023.3-.023.453v23.621c0 1.677-.821 3.25-2.197 4.209l-32.681 22.763c-18.346 12.777-29.298 33.753-29.298 56.111v18.41c0 9.046 6.439 16.831 15.311 18.511 27.206 5.151 54.604 7.727 82.001 7.727 27.398 0 54.796-2.576 82.002-7.727 8.872-1.681 15.311-9.466 15.311-18.511v-18.41c0-17.644-6.707-34.398-18.886-47.175z"/><path d="m285.12 404.708c-2.34-3.417-7.007-4.291-10.426-1.95-3.417 2.341-4.29 7.008-1.949 10.426l2.951 4.309h-38.234l2.951-4.309c2.341-3.417 1.468-8.085-1.949-10.426-3.418-2.34-8.085-1.467-10.426 1.95l-10.99 16.047c-1.75 2.554-1.75 5.921 0 8.476l10.99 16.047c1.453 2.122 3.803 3.263 6.194 3.263 1.46 0 2.936-.425 4.231-1.313 3.417-2.341 4.29-7.008 1.949-10.426l-2.951-4.309h38.234l-2.951 4.309c-2.341 3.417-1.468 8.085 1.949 10.426 1.296.887 2.771 1.313 4.231 1.313 2.392 0 4.741-1.141 6.194-3.263l10.99-16.047c1.75-2.554 1.75-5.921 0-8.476z"/><path d="m32.81 167.8c1.453 2.122 3.803 3.263 6.194 3.263 1.46 0 2.936-.425 4.231-1.313 3.417-2.341 4.29-7.008 1.949-10.426l-2.951-4.31h428.691l-2.951 4.31c-2.341 3.417-1.468 8.085 1.949 10.426 1.296.887 2.771 1.313 4.231 1.313 2.392 0 4.741-1.141 6.194-3.263l10.99-16.047c1.75-2.554 1.75-5.921 0-8.476l-10.99-16.047c-2.34-3.417-7.008-4.291-10.426-1.95-3.417 2.341-4.29 7.008-1.949 10.426l2.951 4.309h-428.689l2.951-4.309c2.341-3.417 1.468-8.085-1.949-10.426-3.419-2.34-8.085-1.467-10.426 1.95l-10.99 16.047c-1.75 2.554-1.75 5.921 0 8.476z"/><path d="m192.539 80.02c4.143 0 7.5-3.358 7.5-7.5v-4.544c0-3.382 2.751-6.133 6.133-6.133s6.133 2.751 6.133 6.133v5.085c0 1.53-.567 2.997-1.599 4.129l-22.26 24.455c-1.998 2.196-2.514 5.364-1.313 8.081 1.2 2.716 3.89 4.468 6.859 4.468h25.812c4.143 0 7.5-3.358 7.5-7.5s-3.357-7.5-7.5-7.5h-8.843l10.837-11.906c3.551-3.9 5.506-8.952 5.506-14.226v-5.085c0-11.653-9.48-21.133-21.133-21.133s-21.133 9.48-21.133 21.133v4.544c.001 4.142 3.358 7.499 7.501 7.499z"/><path d="m265.975 114.194c4.143 0 7.5-3.358 7.5-7.5v-33.27l6.275 6.749c1.48 1.592 3.57 2.463 5.755 2.389 2.174-.076 4.208-1.093 5.574-2.786l3.386-4.196v31.114c0 4.142 3.357 7.5 7.5 7.5s7.5-3.358 7.5-7.5v-52.351c0-3.179-2.005-6.013-5.002-7.072-2.998-1.059-6.337-.113-8.335 2.362l-11.287 13.987-13.374-14.383c-2.1-2.257-5.364-3.003-8.236-1.873-2.869 1.128-4.756 3.897-4.756 6.98v52.351c0 4.141 3.357 7.499 7.5 7.499z"/><path d="m329.231 114.194h3.453c4.143 0 7.5-3.358 7.5-7.5s-3.357-7.5-7.5-7.5h-3.453c-4.143 0-7.5 3.358-7.5 7.5s3.358 7.5 7.5 7.5z"/></g></g></svg>