<svg id="Capa_1" enable-background="new 0 0 505.661 505.661" height="512" viewBox="0 0 505.661 505.661" width="512" xmlns="http://www.w3.org/2000/svg"><g><g><path d="m432.923 40.205-11.987 14.336-35.612 35.612-57.827 3.271-20.419 1.314 5.463 32.774 74.995 74.995 23.933-6.413-1.077-19.776 3.271-57.826 35.612-35.612 11.099-17.988z" fill="#f9f3f1"/><g id="XMLID_161_"><g><path d="m320.855 104.692 79.05 81.51-21.13 27.11-183.46 183.46c-1.77 1.76-4.03 2.95-6.48 3.41l-34.61 6.45c-2.53.47-5.12-.33-6.94-2.15l-43.26-43.26c-1.82-1.82-2.62-4.41-2.15-6.94l6.45-34.61c.46-2.45 1.65-4.71 3.41-6.48l183.46-183.46z" fill="#f9f3f1"/></g></g><path d="m126.573 346.227-21.726 15.817-16.416 16.416c-5.019 5.019-5.019 13.156 0 18.175l23.441 23.441c5.019 5.019 13.156 5.019 18.175 0l16.416-16.416 18.218-19.325z" fill="#fee97d"/><g><path d="m274.995 317.102-79.68 79.67c-1.77 1.76-4.03 2.95-6.48 3.41l-34.61 6.45c-2.53.47-5.12-.33-6.94-2.15l-43.26-43.26c-1.82-1.82-2.62-4.41-2.15-6.94l6.45-34.61c.17-.89.43-1.76.79-2.58h165.87z" fill="#fef0ae"/></g><g><path d="m290.913 125.45 92.144 92.144c6.622 6.622 17.359 6.622 23.981 0l10.324-10.324c6.622-6.622 6.622-17.359 0-23.981l-92.144-92.144c-6.622-6.622-17.359-6.622-23.981 0l-10.324 10.324c-6.622 6.622-6.622 17.359 0 23.981z" fill="#f3eae6"/><path d="m411.064 44.669 48.082 48.082c8.506 8.506 22.297 8.506 30.803 0 8.506-8.506 8.506-22.297 0-30.803l-48.082-48.082c-8.506-8.506-22.297-8.506-30.803 0-8.506 8.506-8.506 22.297 0 30.803z" fill="#f3eae6"/><g id="XMLID_164_"><g><path d="m343.835 248.262-25.51 25.5-60.86-60.85-22.9-22.55 26.2-26.2 8.44 9.47 74.62 74.62z" fill="#f3eae6"/></g></g><g><g id="XMLID_165_"><g><path d="m287.685 243.122-73.97 73.97h-44.6l96.27-96.27z" fill="#f3eae6"/><path d="m213.715 317.092-76.91 76.91-22.3-22.3 54.61-54.61z" fill="#fee97d"/></g></g></g><circle cx="157.286" cy="161.612" fill="#f79595" r="82.564"/><path d="m112.867 161.612c0-39.031 27.143-71.732 63.542-80.343-6.125-1.449-12.555-2.221-19.122-2.221-45.599 0-82.564 36.965-82.564 82.564s36.965 82.564 82.564 82.564c6.568 0 13.032-.785 19.157-2.234-36.4-8.612-63.577-41.299-63.577-80.33z" fill="#f37c7c"/><path d="m193.715 144.659h-19.476v-19.476c0-3.316-2.688-6.005-6.005-6.005h-21.896c-3.316 0-6.005 2.689-6.005 6.005v19.476h-19.476c-3.316 0-6.005 2.688-6.005 6.005v21.896c0 3.317 2.689 6.005 6.005 6.005h19.476v19.476c0 3.316 2.688 6.005 6.005 6.005h21.896c3.317 0 6.005-2.688 6.005-6.005v-19.476h19.476c3.316 0 6.005-2.688 6.005-6.005v-21.896c0-3.317-2.688-6.005-6.005-6.005z" fill="#faf7f7"/></g></g><g><path d="m495.254 56.645-48.082-48.082c-11.419-11.417-29.994-11.417-41.411 0-11.416 11.417-11.416 29.993 0 41.41l4.568 4.568-28.286 28.286-51.622 2.92c-4.608-4.558-10.707-7.068-17.193-7.068-6.532 0-12.675 2.544-17.295 7.164l-10.324 10.324c-4.619 4.619-7.163 10.761-7.163 17.293 0 6.05 2.186 11.762 6.177 16.242l-20.259 20.258c-2.93 2.929-2.93 7.677-.001 10.606 1.465 1.465 3.384 2.197 5.304 2.197 1.919 0 3.839-.732 5.303-2.197l20.227-20.226 1.464 1.464c2.93 2.929 7.678 2.929 10.607 0s2.929-7.678 0-10.606l-11.052-11.052c-1.786-1.786-2.771-4.161-2.771-6.687s.984-4.901 2.771-6.687l10.323-10.324c1.787-1.787 4.162-2.771 6.688-2.771 2.525 0 4.9.984 6.686 2.77l92.145 92.144c1.786 1.786 2.771 4.161 2.771 6.688 0 2.526-.984 4.901-2.771 6.687l-10.324 10.324c-1.786 1.786-4.16 2.77-6.687 2.77s-4.9-.984-6.687-2.77l-58.492-58.492c-2.93-2.929-7.678-2.929-10.607 0s-2.929 7.678 0 10.606l48.905 48.904-24.34 24.34-69.316-69.316c-2.93-2.929-7.678-2.929-10.607 0s-2.929 7.678 0 10.606l69.317 69.316-14.899 14.899-55.55-55.551c-2.93-2.929-7.678-2.93-10.607 0-2.929 2.929-2.929 7.678 0 10.606l2.615 2.615-88.768 88.768h-40.068l30.296-30.297c2.929-2.929 2.929-7.678 0-10.606-2.932-2.93-7.68-2.928-10.607 0l-39.201 39.202c-2.847 2.847-4.742 6.445-5.481 10.406l-6.449 34.612c-.518 2.776-.25 5.593.711 8.161l-12.084 12.084c-7.935 7.935-7.935 20.847.001 28.782l6.388 6.388-85.445 84.506c-2.945 2.913-2.972 7.661-.06 10.606 1.468 1.483 3.399 2.226 5.333 2.226 1.905 0 3.813-.722 5.273-2.167l85.504-84.562 6.446 6.446c3.844 3.844 8.955 5.961 14.392 5.961 5.436 0 10.547-2.117 14.391-5.961l12.095-12.095c1.702.636 3.509.983 5.345.983.932 0 1.869-.085 2.803-.259l34.615-6.45c3.96-.738 7.559-2.634 10.404-5.481l19.905-19.904c2.93-2.929 2.93-7.677.001-10.606-2.93-2.929-7.679-2.929-10.606 0l-19.906 19.905c-.696.697-1.577 1.161-2.547 1.341 0 0-34.802 6.438-34.868 6.372l-5.183-5.183 69.405-69.405h40.068l-24.37 24.37c-2.929 2.929-2.929 7.678 0 10.606 1.465 1.464 3.385 2.197 5.304 2.197s3.839-.732 5.304-2.197l135.685-135.685c4.481 3.991 10.193 6.177 16.242 6.177 6.532 0 12.674-2.544 17.294-7.164l10.324-10.324c4.619-4.619 7.163-10.761 7.163-17.293 0-6.533-2.544-12.675-7.163-17.294l-4.596-4.596 2.92-51.616 28.286-28.286 4.567 4.567c5.53 5.531 12.884 8.577 20.705 8.577s15.175-3.046 20.706-8.577c11.417-11.42 11.417-29.997.001-41.413zm-229.868 174.788 11.688 11.688-66.472 66.472h-23.376zm-156.139 124.227 5.789-31.066h35.976l-36.503 36.503c-.001 0-5.28-5.343-5.262-5.437zm15.497 59.112c-1.011 1.011-2.354 1.567-3.783 1.567-1.43 0-2.773-.557-3.785-1.567l-23.44-23.44c-2.087-2.086-2.087-5.482 0-7.569l11.112-11.112 31.009 31.01zm12.059-31.38-5.844-5.844-5.844-5.844 47.11-47.11h23.376zm95.012-73.798 55.866-55.866 20.034 20.034-35.831 35.831h-40.069zm176.544-196.405c-1.303 1.303-2.08 3.04-2.185 4.879l-2.325 41.101-59.204-59.203 41.102-2.325c1.84-.104 3.576-.881 4.88-2.185l30.309-30.309 17.733 17.733zm76.288-25.741c-2.698 2.697-6.285 4.183-10.1 4.183s-7.4-1.486-10.098-4.183l-48.082-48.082c-5.568-5.568-5.568-14.628 0-20.197 2.784-2.784 6.441-4.176 10.098-4.176s7.314 1.392 10.099 4.176l48.082 48.082c5.569 5.569 5.569 14.629.001 20.197z"/><path d="m157.286 251.676c49.662 0 90.064-40.403 90.064-90.064 0-28.81-13.97-56.107-37.369-73.021-3.355-2.425-8.046-1.673-10.472 1.685-2.427 3.357-1.673 8.045 1.685 10.472 19.509 14.101 31.156 36.854 31.156 60.863 0 41.391-33.674 75.064-75.064 75.064s-75.064-33.674-75.064-75.064 33.674-75.064 75.064-75.064c5.854 0 11.744.698 17.508 2.075 4.032.96 8.075-1.524 9.037-5.553s-1.523-8.075-5.553-9.037c-6.903-1.649-13.966-2.485-20.992-2.485-49.662 0-90.064 40.402-90.064 90.064s40.402 90.065 90.064 90.065z"/><path d="m146.338 211.546h21.896c7.446 0 13.505-6.058 13.505-13.505v-11.977h11.977c7.446 0 13.505-6.058 13.505-13.505v-21.896c0-7.447-6.059-13.505-13.505-13.505h-11.977v-11.977c0-7.447-6.059-13.505-13.505-13.505h-21.896c-7.446 0-13.505 6.058-13.505 13.505v11.977h-11.977c-7.446 0-13.505 6.058-13.505 13.505v21.896c0 7.447 6.059 13.505 13.505 13.505h11.977v11.977c0 7.447 6.058 13.505 13.505 13.505zm-23.987-40.481v-18.906h17.981c4.143 0 7.5-3.358 7.5-7.5v-17.981h18.906v17.981c0 4.142 3.357 7.5 7.5 7.5h17.981v18.906h-17.981c-4.143 0-7.5 3.358-7.5 7.5v17.981h-18.906v-17.981c0-4.142-3.357-7.5-7.5-7.5z"/></g></g></svg>