<svg id="Capa_1" enable-background="new 0 0 511.409 511.409" height="512" viewBox="0 0 511.409 511.409" width="512" xmlns="http://www.w3.org/2000/svg"><g><g><path d="m63.018 420.89-22.007 6.019-26.33 26.33c-9.59 9.6-9.59 25.15 0 34.74l4.71 4.72c9.6 9.59 25.15 9.59 34.74 0l26.34-26.33 7.019-21.007z" fill="#f3eae6"/><path d="m491.151 66.389-42.14-42.14c-17.01-17.01-44.58-17.01-61.59 0l6.208 49.984 58.266 58.266 39.256-4.51c17.01-17.01 17.01-44.59 0-61.6z" fill="#f9f3f1"/><path d="m387.421 24.249 103.73 103.74-221.17 221.17c-18.11 18.11-43.07 27.66-68.64 26.28l-28.41-1.54-92.46 92.47-.01-.01-39.45-39.45 96.19-96.19.21-20.04c.24-23.59 9.72-46.14 26.41-62.82z" fill="#a6e7f0"/><path d="m491.151 66.389-.11-.11c-.679 10.154-4.887 20.116-12.648 27.877l-32.421 32.421 5.922 5.922 39.256-4.51c17.011-17.01 17.011-44.59.001-61.6z" fill="#f3eae6"/><path d="m67.714 432.536-26.34 26.33c-8.729 8.729-22.387 9.476-32.01 2.315-3.695 8.91-1.924 19.556 5.318 26.798l4.71 4.72c9.6 9.59 25.15 9.59 34.74 0l26.34-26.33 7.019-21.007-16.301-16.301z" fill="#efe2dd"/><path d="m257.224 315.326c-18.11 18.11-43.07 27.66-68.64 26.28l-14.099-.764c-9.107-.494-17.995 2.909-24.444 9.359l-82.326 82.335-10.54 10.536 23.287 23.287.01.01 92.46-92.47 28.41 1.54c25.57 1.38 50.53-8.17 68.64-26.28l221.17-221.17-23.294-23.296z" fill="#6bd9e7"/><g><path d="m245.45 233.864-29.368 4.315-21.61 21.61c-3.89 3.9-3.89 10.2 0 14.09l47.05 47.05c3.89 3.89 10.2 3.89 14.09 0l21.61-21.61 7.163-26.521z" fill="#cdbfba"/><path d="m430.211 132.249c3.89 3.89 3.89 10.2 0 14.09l-152.99 152.98-61.14-61.14 152.99-152.98c3.89-3.89 10.2-3.89 14.09 0z" fill="#e1d3ce"/></g></g><g><path d="m496.456 61.087-42.138-42.137c-19.906-19.906-52.296-19.907-72.203 0l-223.601 223.602c-18.177 18.177-28.336 42.344-28.605 68.049l-.178 16.983-46.55 46.551c-2.929 2.929-2.929 7.678 0 10.606 2.929 2.929 7.678 2.929 10.606 0l48.715-48.715c1.387-1.387 2.176-3.263 2.196-5.225l.209-20.044c.228-21.758 8.827-42.214 24.213-57.6l218.299-218.298 55.347 55.347c1.464 1.464 3.384 2.197 5.303 2.197s3.839-.732 5.303-2.197c2.929-2.929 2.929-7.678 0-10.606l-54.789-54.789c13.968-9.073 32.889-7.494 45.128 4.745l42.137 42.137c12.239 12.24 13.817 31.159 4.745 45.128l-14.62-14.62c-2.929-2.929-7.678-2.929-10.606 0-2.929 2.929-2.929 7.678 0 10.606l15.179 15.179-215.865 215.865c-16.581 16.582-39.517 25.362-62.936 24.096l-28.413-1.538c-2.128-.115-4.202.68-5.708 2.186l-87.163 87.162-28.845-28.845 19.57-19.57c2.929-2.929 2.929-7.678 0-10.606-2.929-2.93-7.678-2.929-10.606 0l-51.205 51.204c-12.5 12.5-12.5 32.84 0 45.341l4.718 4.718c6.056 6.056 14.106 9.391 22.67 9.391 8.563 0 16.615-3.335 22.67-9.391l116.431-116.43 25.071 1.357c27.655 1.491 54.764-8.878 74.353-28.468l221.168-221.168c9.643-9.643 14.954-22.464 14.954-36.102-.001-13.637-5.311-26.458-14.954-36.101zm-447.629 426.305c-3.222 3.223-7.506 4.997-12.063 4.997s-8.841-1.775-12.064-4.997l-4.717-4.718c-6.652-6.652-6.652-17.476 0-24.128l21.028-21.028 28.845 28.845z"/><path d="m317.959 125.701-128.79 128.79c-6.809 6.809-6.809 17.887 0 24.696l47.049 47.049c3.404 3.404 7.876 5.106 12.348 5.106s8.943-1.702 12.348-5.106l174.595-174.595c3.298-3.298 5.115-7.684 5.115-12.348s-1.816-9.049-5.115-12.348l-47.049-47.049c-3.298-3.298-7.684-5.115-12.348-5.115-4.665 0-9.05 1.816-12.348 5.115l-23.173 23.173c-2.929 2.929-2.929 7.678 0 10.606 2.929 2.929 7.678 2.929 10.606 0l23.173-23.173c.96-.96 2.523-.959 3.483 0l47.049 47.049c.96.96.96 2.522 0 3.483l-147.681 147.682-50.532-50.532 101.877-101.877c2.929-2.929 2.929-7.678 0-10.606-2.929-2.929-7.678-2.929-10.607 0zm-51.344 173.622-16.307 16.307c-.627.627-1.36.721-1.741.721s-1.114-.094-1.742-.721l-47.049-47.049c-.627-.627-.721-1.36-.721-1.742 0-.381.094-1.114.721-1.741l16.307-16.307z"/><path d="m292.725 219.662c1.464 1.464 3.384 2.197 5.303 2.197s3.839-.732 5.303-2.197l80.235-80.235c2.929-2.929 2.929-7.678 0-10.606-2.929-2.929-7.678-2.929-10.606 0l-80.235 80.235c-2.929 2.928-2.929 7.677 0 10.606z"/><path d="m271.918 229.863-9.203 9.203c-2.929 2.929-2.929 7.678 0 10.606 1.464 1.464 3.384 2.197 5.303 2.197s3.839-.732 5.303-2.197l9.203-9.203c2.929-2.929 2.929-7.678 0-10.606-2.928-2.929-7.677-2.929-10.606 0z"/></g></g></svg>