<svg id="Capa_1" enable-background="new 0 0 509.771 509.771" height="512" viewBox="0 0 509.771 509.771" width="512" xmlns="http://www.w3.org/2000/svg"><g><g><path d="m394.293 427.025 5.028 24.852 8.224 31.364c1 3.814 4.447 6.474 8.39 6.474h27.167c3.943 0 7.39-2.66 8.39-6.474l8.224-31.364 4.764-24.852z" fill="#e1d3ce"/><path d="m47.308 434.609 2.746 17.268 8.224 31.364c1 3.814 4.447 6.474 8.39 6.474h27.167c3.943 0 7.39-2.66 8.39-6.474l8.224-31.364 1.864-18.739z" fill="#e1d3ce"/><g><path d="m40.021 85.462c-17.961 0-32.521 14.56-32.521 32.521v301.374c0 17.961 14.56 32.521 32.521 32.521h429.729c17.961 0 32.521-14.56 32.521-32.521v-301.374c0-17.961-14.56-32.521-32.521-32.521z" fill="#f9f3f1"/><path d="m79.81 419.356v-301.373c0-17.961 14.56-32.521 32.521-32.521h-72.31c-17.961 0-32.521 14.56-32.521 32.521v301.374c0 17.961 14.56 32.521 32.521 32.521h72.31c-17.961-.001-32.521-14.561-32.521-32.522z" fill="#f3eae6"/><path d="m237.49 98.606c0 54.341 44.209 98.551 98.551 98.551s98.551-44.209 98.551-98.551c0-4.457-.303-8.843-.879-13.145h-195.344c-.576 4.302-.879 8.689-.879 13.145z" fill="#f3eae6"/><path d="m469.75 115.462c1.392 0 2.521 1.129 2.521 2.521v253.587c0 1.392-1.128 2.521-2.521 2.521h-429.729c-1.392 0-2.521-1.129-2.521-2.521v-253.588c0-1.392 1.128-2.521 2.521-2.521h429.729z" fill="#e1d3ce"/><path d="m79.917 115.462h-39.896c-1.392 0-2.521 1.128-2.521 2.521v253.587c0 1.392 1.129 2.521 2.521 2.521h39.789v-256.108c0-.85.043-1.688.107-2.521z" fill="#cdbfba"/><path d="m433.144 115.462h-194.206c8.02 46.339 48.507 81.695 97.103 81.695s89.083-35.356 97.103-81.695z" fill="#cdbfba"/><g fill="#efe2dd"><circle cx="446.531" cy="413.579" r="13.446"/><circle cx="384.391" cy="413.579" r="13.446"/><circle cx="322.251" cy="413.579" r="13.446"/></g><circle cx="50.946" cy="413.579" fill="#e1d3ce" r="13.446"/><circle cx="336.041" cy="98.606" fill="#f79595" r="78.551"/><path d="m294.861 98.606c0-36.941 25.507-67.909 59.865-76.296-5.991-1.462-12.245-2.255-18.686-2.255-43.382 0-78.551 35.168-78.551 78.551s35.168 78.551 78.551 78.551c6.441 0 12.695-.792 18.686-2.255-34.358-8.386-59.865-39.354-59.865-76.296z" fill="#f37c7c"/><path d="m370.699 82.478h-18.53v-18.53c0-3.155-2.558-5.713-5.713-5.713h-20.832c-3.155 0-5.713 2.558-5.713 5.713v18.53h-18.53c-3.155 0-5.713 2.558-5.713 5.713v20.832c0 3.155 2.558 5.713 5.713 5.713h18.53v18.53c0 3.155 2.558 5.713 5.713 5.713h20.832c3.155 0 5.713-2.558 5.713-5.713v-18.53h18.53c3.155 0 5.713-2.558 5.713-5.713v-20.832c0-3.156-2.558-5.713-5.713-5.713z" fill="#faf7f7"/></g></g><g><path d="m469.75 77.961h-25.956c-4.142 0-7.5 3.358-7.5 7.5s3.358 7.5 7.5 7.5h25.956c13.797 0 25.021 11.224 25.021 25.021v301.374c0 13.797-11.224 25.021-25.021 25.021h-429.729c-13.797 0-25.021-11.224-25.021-25.021v-301.374c0-13.797 11.224-25.021 25.021-25.021h31.781c4.142 0 7.5-3.358 7.5-7.5s-3.358-7.5-7.5-7.5h-31.781c-22.068 0-40.021 17.954-40.021 40.021v301.374c0 22.068 17.953 40.021 40.021 40.021h4.246l6.756 25.767c1.864 7.107 8.297 12.071 15.645 12.071h27.167c7.348 0 13.781-4.964 15.645-12.071l6.756-25.766h277.299l6.756 25.766c1.864 7.107 8.297 12.071 15.645 12.071h27.167c7.347 0 13.78-4.963 15.645-12.071l6.756-25.766h4.246c22.068 0 40.021-17.954 40.021-40.021v-301.375c0-22.067-17.954-40.021-40.021-40.021zm-374.78 403.378c-.135.516-.602.876-1.135.876h-27.168c-.533 0-1-.36-1.135-.876l-5.758-21.961h40.954zm349.269-.001c-.136.516-.603.876-1.136.876h-27.167c-.533 0-1-.36-1.135-.876l-5.758-21.961h40.954z"/><path d="m103.764 92.961h124.523c4.142 0 7.5-3.358 7.5-7.5s-3.358-7.5-7.5-7.5h-124.523c-4.142 0-7.5 3.358-7.5 7.5s3.358 7.5 7.5 7.5z"/><path d="m479.771 371.569v-253.586c0-5.525-4.496-10.021-10.021-10.021h-26.468c-4.142 0-7.5 3.358-7.5 7.5s3.358 7.5 7.5 7.5h21.489v243.628h-44.079c-4.142 0-7.5 3.358-7.5 7.5s3.358 7.5 7.5 7.5h49.058c5.525 0 10.021-4.495 10.021-10.021z"/><path d="m228.8 107.962h-188.779c-5.525 0-10.021 4.495-10.021 10.021v253.586c0 5.525 4.496 10.021 10.021 10.021h348.708c4.142 0 7.5-3.358 7.5-7.5s-3.358-7.5-7.5-7.5h-343.729v-243.628h183.8c4.142 0 7.5-3.358 7.5-7.5s-3.358-7.5-7.5-7.5z"/><path d="m425.585 413.579c0 11.549 9.396 20.946 20.946 20.946s20.946-9.396 20.946-20.946-9.396-20.946-20.946-20.946-20.946 9.397-20.946 20.946zm26.892 0c0 3.278-2.667 5.946-5.946 5.946s-5.946-2.667-5.946-5.946 2.667-5.946 5.946-5.946 5.946 2.668 5.946 5.946z"/><path d="m363.445 413.579c0 11.549 9.396 20.946 20.946 20.946 11.549 0 20.946-9.396 20.946-20.946s-9.396-20.946-20.946-20.946c-11.549 0-20.946 9.397-20.946 20.946zm26.892 0c0 3.278-2.667 5.946-5.946 5.946s-5.946-2.667-5.946-5.946 2.667-5.946 5.946-5.946 5.946 2.668 5.946 5.946z"/><path d="m301.306 413.579c0 11.549 9.396 20.946 20.946 20.946s20.946-9.396 20.946-20.946-9.396-20.946-20.946-20.946-20.946 9.397-20.946 20.946zm26.891 0c0 3.278-2.667 5.946-5.946 5.946s-5.946-2.667-5.946-5.946 2.667-5.946 5.946-5.946 5.946 2.668 5.946 5.946z"/><path d="m30 413.579c0 11.549 9.396 20.946 20.946 20.946s20.946-9.396 20.946-20.946-9.396-20.946-20.946-20.946-20.946 9.397-20.946 20.946zm26.892 0c0 3.278-2.667 5.946-5.946 5.946s-5.946-2.668-5.946-5.946 2.667-5.946 5.946-5.946 5.946 2.668 5.946 5.946z"/><path d="m92.923 406.079c-4.142 0-7.5 3.358-7.5 7.5s3.358 7.5 7.5 7.5h182.463c4.142 0 7.5-3.358 7.5-7.5s-3.358-7.5-7.5-7.5z"/><path d="m219.077 199.472c-3.334-.149-6.367 1.912-7.444 5.069l-28.947 84.801-22.031-79.712c-.843-3.05-3.51-5.243-6.665-5.481-3.146-.237-6.121 1.531-7.412 4.419l-19.784 44.279h-42.818c-4.142 0-7.5 3.358-7.5 7.5s3.358 7.5 7.5 7.5h47.683c2.958 0 5.641-1.739 6.848-4.44l13.252-29.66 22.945 83.019c.876 3.171 3.718 5.401 7.007 5.499.075.002.149.003.224.003 3.199 0 6.057-2.034 7.096-5.077l28.46-83.376 11.571 47.986c.812 3.368 3.826 5.742 7.291 5.742h48.719c3.409 0 6.389-2.299 7.254-5.596l12.305-46.891 23.867 81.813c.91 3.119 3.725 5.297 6.972 5.396 3.246.107 6.189-1.905 7.287-4.963l17.562-48.936h28.412c4.142 0 7.5-3.358 7.5-7.5s-3.358-7.5-7.5-7.5h-33.688c-3.166 0-5.99 1.987-7.059 4.967l-11.548 32.179-24.985-85.648c-.944-3.236-3.93-5.439-7.302-5.399-3.371.046-6.297 2.335-7.152 5.596l-17.708 67.482h-37.027l-16.237-67.337c-.786-3.243-3.616-5.58-6.948-5.734z"/><path d="m410.217 260.866c0 4.142 3.358 7.5 7.5 7.5h8.811c4.142 0 7.5-3.358 7.5-7.5s-3.358-7.5-7.5-7.5h-8.811c-4.142 0-7.5 3.358-7.5 7.5z"/><path d="m336.041 184.657c47.449 0 86.051-38.602 86.051-86.051 0-22.881-8.887-44.424-25.023-60.658-2.919-2.938-7.668-2.952-10.606-.032s-2.952 7.668-.032 10.606c13.324 13.405 20.662 31.192 20.662 50.084 0 39.178-31.874 71.051-71.051 71.051s-71.051-31.873-71.051-71.051 31.873-71.051 71.051-71.051c9.02 0 17.839 1.687 26.214 5.015 3.848 1.53 8.209-.351 9.739-4.2 1.53-3.85-.351-8.21-4.2-9.739-10.145-4.031-20.828-6.075-31.753-6.075-47.449 0-86.051 38.602-86.051 86.051s38.601 86.05 86.05 86.05z"/><path d="m359.669 74.978v-11.03c0-7.286-5.927-13.213-13.213-13.213h-20.832c-7.286 0-13.213 5.927-13.213 13.213v11.03h-11.029c-7.286 0-13.213 5.927-13.213 13.213v20.832c0 7.286 5.928 13.213 13.213 13.213h11.029v11.03c0 7.286 5.928 13.213 13.213 13.213h20.832c7.286 0 13.213-5.927 13.213-13.213v-11.03h11.03c7.286 0 13.213-5.927 13.213-13.213v-20.833c0-7.286-5.927-13.213-13.213-13.213h-11.03zm9.243 32.257h-16.743c-4.142 0-7.5 3.358-7.5 7.5v16.743h-17.258v-16.743c0-4.142-3.358-7.5-7.5-7.5h-16.743v-17.257h16.743c4.142 0 7.5-3.358 7.5-7.5v-16.743h17.258v16.743c0 4.142 3.358 7.5 7.5 7.5h16.743z"/></g></g></svg>