<svg id="Capa_1" enable-background="new 0 0 512.613 512.613" height="512" viewBox="0 0 512.613 512.613" width="512" xmlns="http://www.w3.org/2000/svg"><g><g><g><path d="m162.522 422.42h-.258c-85.473 0-154.764-69.29-154.764-154.764 0-78.579 58.564-143.474 134.425-153.433l54.409-11.718 6.623 66.793-68.105 7.642c-38.928 11.785-67.352 47.991-67.352 90.716 0 52.253 42.512 94.764 94.765 94.764h3.685l56.124-1.861v61.861z" fill="#f3eae6"/></g><g><path d="m196.335 202.97v29.516l12.112 23.913c1.661 3.006 4.824 4.872 8.259 4.872h27.97c3.434 0 6.597-1.866 8.259-4.872l12.112-23.913 3.106-29.516z" fill="#e1d3ce"/><path d="m210.887 25.018h39.608v58.091h-39.608z" fill="#f3eae6"/><path d="m272.736 40.018h-84.09c-4.451 0-8.06-3.609-8.06-8.06v-16.255c0-4.451 3.609-8.06 8.06-8.06h84.09c4.452 0 8.06 3.609 8.06 8.06v16.255c0 4.452-3.609 8.06-8.06 8.06z" fill="#e1d3ce"/><path d="m335.235 350.714c6.694 0 12.12-5.427 12.12-12.12v-33.249c0-6.694-5.426-12.12-12.12-12.12h-180.193c-6.694 0-12.12 5.427-12.12 12.12v33.249c0 6.694 5.426 12.12 12.12 12.12z" fill="#e1d3ce"/><path d="m162.522 422.42h59.552v-61.861l-56.125 1.861h-3.685c-5.796 0-11.472-.526-16.984-1.527-1.788 5.882-2.758 12.116-2.758 18.574v41.706c6.465.823 13.054 1.248 19.742 1.248h.258z" fill="#efe2dd"/><path d="m250.495 481.909h-87.973v-102.443c0-24.293 19.693-43.986 43.986-43.986 24.293 0 43.986 19.693 43.986 43.986v102.443z" fill="#e1d3ce"/><path d="m221.675 338.166c-4.728-1.737-9.836-2.686-15.166-2.686-24.293 0-43.986 19.693-43.986 43.986v102.442h30.333v-102.442c-.001-18.962 11.999-35.122 28.819-41.3z" fill="#cdbfba"/><circle cx="206.509" cy="382.369" fill="#cdbfba" r="15.565"/><g id="XMLID_166_"><g><path d="m270.786 166.444h-76.525l-13.672 22.758v27.54c0 8.69 7.05 15.74 15.75 15.74h68.71c8.69 0 15.75-7.05 15.75-15.74v-27.54z" fill="#f3eae6"/><path d="m251.127 166.444h-56.866l-13.672 22.758v27.54c0 2.198.454 4.289 1.268 6.189 33.824-.725 62.018-24.658 69.27-56.487z" fill="#efe2dd"/><path d="m280.8 78.962v110.24h-100.21v-110.24c0-5.99 4.85-10.85 10.85-10.85h78.51c5.99 0 10.85 4.86 10.85 10.85z" fill="#faf7f7"/></g></g><path d="m141.926 114.222c-9.617 1.263-18.955 3.412-27.932 6.356-4.087 9.08-6.381 19.134-6.381 29.72 0 12.481 3.165 24.235 8.73 34.507 5.825-3.241 12.016-5.9 18.509-7.866l68.105-7.642-6.623-66.793z" fill="#efe2dd"/><path d="m252.958 150.298c0-39.94-32.388-72.449-72.279-72.662-.053.436-.089.876-.089 1.326v110.24h61.031c7.165-11.258 11.337-24.599 11.337-38.904z" fill="#f9f3f1"/><circle cx="180.285" cy="150.298" fill="#e1d3ce" r="52.672"/><path d="m154.836 150.298c0-24.382 16.597-44.893 39.088-50.895-4.343-1.159-8.931-1.778-13.639-1.778-29.09 0-52.672 23.582-52.672 52.672s23.582 52.672 52.672 52.672c4.708 0 9.315-.624 13.658-1.783-22.491-6-39.107-26.506-39.107-50.888z" fill="#cdbfba"/><path d="m180.285 172.97c-12.501 0-22.672-10.171-22.672-22.672 0-12.502 10.171-22.673 22.672-22.673 12.502 0 22.673 10.171 22.673 22.673 0 12.501-10.171 22.672-22.673 22.672z" fill="#cdbfba"/><path d="m316.995 452.909h-220.972c-12.74 0-23.068 10.328-23.068 23.068v28.993h267.108v-28.993c0-12.74-10.328-23.068-23.068-23.068z" fill="#f3eae6"/><path d="m150.681 452.909h-54.659c-12.74 0-23.068 10.328-23.068 23.068v28.993h54.658v-28.993c.001-12.741 10.329-23.068 23.069-23.068z" fill="#efe2dd"/><path d="m409.37 65.249c-52.116.129-94.877 42.673-95.258 94.788-.208 28.485 12.058 54.106 31.657 71.735l-8.527 18.893c-1.182 2.62.734 5.587 3.608 5.587h67.606c52.85 0 96.541-42.439 96.656-95.288.116-52.923-42.816-95.846-95.742-95.715z" fill="#a6e7f0"/><circle cx="413.339" cy="133.872" fill="#f79595" r="21.075"/><circle cx="393.955" cy="211.326" fill="#86e8d0" r="13.814"/></g></g><g><path d="m206.508 359.304c-12.718 0-23.065 10.347-23.065 23.065s10.347 23.065 23.065 23.065 23.065-10.347 23.065-23.065-10.346-23.065-23.065-23.065zm0 31.13c-4.447 0-8.065-3.618-8.065-8.065s3.618-8.065 8.065-8.065 8.065 3.618 8.065 8.065-3.617 8.065-8.065 8.065z"/><path d="m180.285 180.47c16.637 0 30.173-13.535 30.173-30.172s-13.536-30.173-30.173-30.173-30.172 13.536-30.172 30.173 13.535 30.172 30.172 30.172zm0-45.344c8.366 0 15.173 6.807 15.173 15.173s-6.807 15.172-15.173 15.172-15.172-6.806-15.172-15.172c0-8.367 6.806-15.173 15.172-15.173z"/><path d="m358.849 497.469h-11.286v-21.493c0-16.855-13.713-30.568-30.568-30.568h-59v-65.942c0-7.576-1.658-14.768-4.61-21.252h81.851c10.818 0 19.62-8.802 19.62-19.62v-33.249c0-10.818-8.802-19.62-19.62-19.62h-22.478c-4.143 0-7.5 3.358-7.5 7.5s3.357 7.5 7.5 7.5h22.478c2.548 0 4.62 2.073 4.62 4.62v33.249c0 2.547-2.072 4.62-4.62 4.62h-92.208c-9.333-9.401-22.257-15.234-36.52-15.234-14.262 0-27.186 5.832-36.519 15.234h-14.948c-2.547 0-4.62-2.073-4.62-4.62v-33.249c0-2.547 2.073-4.62 4.62-4.62h125.754c4.143 0 7.5-3.358 7.5-7.5s-3.357-7.5-7.5-7.5h-125.753c-10.818 0-19.62 8.802-19.62 19.62v33.249c0 5.332 2.145 10.168 5.608 13.708-37.889-9.509-66.03-43.851-66.03-84.646 0-19.081 6.074-37.215 17.565-52.443 10.008-13.263 23.801-23.518 39.249-29.313 9.619 13.061 24.38 22.1 41.271 24.125v6.713c0 11.149 7.89 20.486 18.379 22.732l10.292 20.32c.041.081.083.161.127.24 2.981 5.393 8.661 8.742 14.822 8.742h27.97c6.162 0 11.842-3.35 14.822-8.743.044-.079.086-.159.127-.239l10.292-20.32c10.489-2.245 18.379-11.583 18.379-22.732v-137.779c0-10.118-8.231-18.349-18.35-18.349h-11.952v-13.091h14.741c8.58 0 15.561-6.98 15.561-15.561v-16.255c0-8.58-6.98-15.56-15.561-15.56h-84.09c-8.58 0-15.56 6.98-15.56 15.56v16.255c0 8.58 6.98 15.561 15.56 15.561h14.741v13.091h-11.952c-10.118 0-18.35 8.231-18.35 18.349v11.613c-13.407 1.607-25.468 7.633-34.685 16.584-22.587 3.324-43.829 11.229-63.17 23.542-3.494 2.225-4.523 6.861-2.298 10.355 1.43 2.246 3.855 3.473 6.333 3.473 1.378 0 2.773-.379 4.021-1.174 13.237-8.428 27.456-14.575 42.437-18.385-3.592 7.705-5.611 16.285-5.611 25.332 0 7.906 1.548 15.453 4.332 22.375-17.242 6.914-32.596 18.587-43.853 33.505-13.469 17.85-20.589 39.109-20.589 61.477 0 54.271 42.497 98.795 95.96 102.064-.608 3.158-.938 6.414-.938 9.747v35.274c-77.851-3.789-140.022-68.312-140.022-147.086 0-40.015 15.783-77.449 44.441-105.406 2.965-2.893 3.023-7.641.131-10.606-2.893-2.965-7.641-3.025-10.606-.131-31.576 30.804-48.966 72.052-48.966 116.144 0 87.045 68.898 158.292 155.022 162.094v15.659h-59c-16.855 0-30.568 13.713-30.568 30.568v21.493h-8.417c-4.142 0-7.5 3.358-7.5 7.5s3.358 7.5 7.5 7.5h301.812c4.143 0 7.5-3.358 7.5-7.5s-3.358-7.501-7.5-7.501zm-112.521-244.624c-.351.573-.976.926-1.652.926h-27.97c-.676 0-1.302-.353-1.652-.927l-6.513-12.858h44.3zm18.719-27.859h-68.712c-4.549 0-8.25-3.701-8.25-8.249v-6.79c11.476-1.493 21.953-6.214 30.465-13.246h54.745v20.035c.001 4.55-3.699 8.25-8.248 8.25zm-76.962-193.028v-16.255c0-.309.251-.56.56-.56h84.09c.309 0 .561.251.561.56v16.255c0 .309-.252.561-.561.561h-84.09c-.308 0-.56-.252-.56-.561zm30.302 15.561h24.608v13.091h-24.608zm-26.952 28.091h78.511c1.847 0 3.35 1.502 3.35 3.349v102.744h-41.707c5.62-9.148 8.869-19.903 8.869-31.404 0-30.534-22.867-55.811-52.372-59.65v-11.69c-.001-1.847 1.502-3.349 3.349-3.349zm-11.15 29.516c24.908 0 45.172 20.264 45.172 45.172s-20.264 45.172-45.172 45.172-45.172-20.264-45.172-45.172 20.264-45.172 45.172-45.172zm-10.263 274.34c0-20.119 16.368-36.486 36.486-36.486s36.486 16.368 36.486 36.486v65.942h-72.972zm-89.567 96.511c0-8.584 6.984-15.568 15.568-15.568h220.972c8.584 0 15.568 6.984 15.568 15.568v21.493h-252.108z"/><path d="m481.013 86.518c-2.985-2.871-7.733-2.78-10.604.205-2.872 2.985-2.78 7.732.204 10.604 17.465 16.802 27.053 39.396 27 63.619-.105 48.416-40.101 87.805-89.156 87.805h-62.122l6.271-13.895c1.343-2.976.607-6.479-1.82-8.662-18.725-16.842-29.357-40.937-29.173-66.104.351-48.042 39.728-87.224 87.776-87.342 12.846.007 25.275 2.653 36.883 7.98 3.765 1.728 8.217.077 9.944-3.688 1.728-3.765.076-8.217-3.688-9.945-13.517-6.203-27.952-9.348-42.914-9.348-.087 0-.176 0-.263 0-56.239.139-102.328 46-102.739 102.232-.202 27.609 10.718 54.113 30.131 73.559l-6.337 14.039c-1.607 3.562-1.302 7.647.818 10.93s5.719 5.243 9.626 5.243h67.605c57.309 0 104.032-46.103 104.156-102.771.064-28.351-11.159-54.795-31.598-74.461z"/><path d="m431.902 163.042c1.465 1.465 3.384 2.197 5.304 2.197 1.919 0 3.839-.732 5.303-2.197 2.93-2.929 2.93-7.677.001-10.606l-4.379-4.38c1.194-2.079 2.135-4.32 2.779-6.684h6.183c4.143 0 7.5-3.358 7.5-7.5s-3.357-7.5-7.5-7.5h-6.183c-.644-2.364-1.585-4.605-2.779-6.684l4.379-4.38c2.929-2.929 2.929-7.678-.001-10.606-2.928-2.93-7.677-2.929-10.606 0l-4.379 4.379c-2.079-1.194-4.32-2.135-6.684-2.779v-6.183c0-4.142-3.357-7.5-7.5-7.5s-7.5 3.358-7.5 7.5v6.183c-2.364.644-4.605 1.585-6.684 2.779l-4.379-4.379c-2.929-2.929-7.678-2.93-10.606 0-2.93 2.929-2.93 7.677-.001 10.606l4.38 4.38c-1.194 2.079-2.135 4.32-2.779 6.684h-6.183c-4.143 0-7.5 3.358-7.5 7.5s3.357 7.5 7.5 7.5h6.183c.644 2.364 1.585 4.605 2.779 6.684l-4.379 4.38c-2.929 2.929-2.929 7.678.001 10.606 1.464 1.465 3.384 2.197 5.303 2.197s3.839-.732 5.304-2.197l4.379-4.379c2.079 1.194 4.32 2.135 6.684 2.779v6.183c0 4.142 3.357 7.5 7.5 7.5s7.5-3.358 7.5-7.5v-6.183c2.364-.644 4.604-1.585 6.684-2.779zm-18.562-15.595c-7.486 0-13.576-6.09-13.576-13.575 0-7.486 6.09-13.576 13.576-13.576 7.485 0 13.575 6.09 13.575 13.576 0 7.485-6.09 13.575-13.575 13.575z"/><path d="m416.078 218.826c4.143 0 7.5-3.358 7.5-7.5s-3.357-7.5-7.5-7.5h-2.198c-.165-.436-.338-.866-.53-1.288l1.552-1.552c2.93-2.929 2.93-7.678.001-10.607-2.929-2.928-7.678-2.929-10.606 0l-1.552 1.552c-.422-.192-.853-.366-1.289-.531v-2.198c0-4.142-3.357-7.5-7.5-7.5s-7.5 3.358-7.5 7.5v2.198c-.436.165-.866.338-1.288.53l-1.552-1.552c-2.928-2.929-7.677-2.928-10.606 0-2.929 2.929-2.929 7.678.001 10.607l1.552 1.552c-.192.422-.366.852-.53 1.288h-2.198c-4.143 0-7.5 3.358-7.5 7.5s3.357 7.5 7.5 7.5h2.198c.165.436.338.866.53 1.288l-1.552 1.552c-2.929 2.929-2.929 7.678 0 10.606 1.465 1.464 3.385 2.197 5.304 2.197s3.839-.732 5.304-2.197l1.552-1.552c.422.192.852.365 1.288.53v2.198c0 4.142 3.357 7.5 7.5 7.5s7.5-3.358 7.5-7.5v-2.198c.436-.165.867-.338 1.289-.53l1.552 1.552c1.465 1.464 3.385 2.197 5.304 2.197s3.839-.732 5.304-2.197c2.929-2.929 2.929-7.678 0-10.606l-1.552-1.552c.192-.422.365-.852.53-1.288h2.192zm-22.124-13.814c3.481 0 6.314 2.833 6.314 6.314s-2.833 6.314-6.314 6.314-6.313-2.833-6.313-6.314 2.832-6.314 6.313-6.314z"/><path d="m350.106 141.274c-4.143 0-7.5 3.358-7.5 7.5s3.357 7.5 7.5 7.5h5.88c4.143 0 7.5-3.358 7.5-7.5s-3.357-7.5-7.5-7.5z"/><path d="m444.195 191.65c0 4.142 3.357 7.5 7.5 7.5h6.86c4.143 0 7.5-3.358 7.5-7.5s-3.357-7.5-7.5-7.5h-6.86c-4.142 0-7.5 3.357-7.5 7.5z"/></g></g></svg>