<svg id="Capa_1" enable-background="new 0 0 512.153 512.153" height="512" viewBox="0 0 512.153 512.153" width="512" xmlns="http://www.w3.org/2000/svg"><g><g><path d="m210.775 239.865v157.004c0 32.201-23.35 59.652-55.135 64.817-2.474.402-4.784 1.496-6.664 3.155l-33.702 29.758c-17.589 15.531-44.691 12.738-58.743-6.054-22.749-30.425-35.043-67.395-35.043-105.385 0-75.298 21.506-149.03 61.988-212.52l18.028-28.274c12.984-20.364 38.582-28.666 61.046-19.798 11.16 4.405 20.384 12.644 26.016 23.238 6.582 12.38 11.732 25.408 15.418 38.83z" fill="#f79595"/><path d="m108.851 482.52c-22.75-30.425-35.044-67.395-35.044-105.385 0-75.298 21.506-149.03 61.988-212.52l18.028-28.274c3.146-4.934 7.05-9.158 11.453-12.603-.892-.414-1.806-.807-2.725-1.169-22.464-8.868-48.062-.566-61.046 19.798l-18.028 28.273c-40.482 63.49-61.988 137.222-61.988 212.52 0 37.99 12.294 74.96 35.044 105.385 14.052 18.792 41.153 21.585 58.743 6.054l3.239-2.86c-3.612-2.443-6.894-5.515-9.664-9.219z" fill="#f37c7c"/><path d="m276.92 239.865v157.004c0 32.201 23.35 59.652 55.135 64.817 2.474.402 4.784 1.496 6.664 3.155l33.702 29.758c17.589 15.531 44.691 12.738 58.743-6.054 22.75-30.425 35.044-67.395 35.044-105.385 0-75.298-21.506-149.03-61.988-212.52l-18.028-28.274c-12.984-20.364-38.582-28.666-61.046-19.798-11.16 4.405-20.384 12.644-26.016 23.238-6.582 12.38-11.732 25.408-15.418 38.83z" fill="#f79595"/><path d="m264.756 13.023v132.205c0 11.691 3.857 23.055 10.973 32.331l31.845 41.512c2.864 3.733 2.776 8.948-.211 12.583l-12.086 14.706c-3.641 4.43-10.232 4.952-14.525 1.15l-32.944-29.175c-3.291-2.914-8.224-2.964-11.572-.117l-35.2 29.931c-4.006 3.406-10.065 2.671-13.14-1.595l-11.299-15.675c-2.325-3.225-2.26-7.594.16-10.748l32.658-42.573c7.116-9.276 10.973-20.64 10.973-32.331v-132.204c0-3.05 2.473-5.523 5.523-5.523h33.324c3.048 0 5.521 2.473 5.521 5.523z" fill="#ffe5c2"/><g fill="#fef0ae"><path d="m419.558 47.807-52.5 53.206c-1.275 1.292-.753 3.472.969 4.047l15.066 5.029c1.418.473 2.086 2.095 1.412 3.429l-24.911 49.378c-1.221 2.42 1.809 4.739 3.826 2.929l67.158-60.27c1.387-1.245.933-3.521-.826-4.138l-15.661-5.495c-1.203-.422-1.882-1.696-1.561-2.93l11.145-42.846c.631-2.427-2.356-4.124-4.117-2.339z"/><path d="m488.196 160.746-59.673 14.032c-1.449.341-2.038 2.083-1.094 3.233l8.266 10.067c.778.948.534 2.365-.516 2.998l-38.846 23.414c-1.904 1.148-.812 4.08 1.378 3.703l72.934-12.54c1.506-.259 2.184-2.037 1.232-3.233l-8.476-10.65c-.651-.818-.566-1.999.195-2.716l26.437-24.887c1.499-1.41.165-3.892-1.837-3.421z"/></g></g><g><path d="m66.836 199.204c1.146.631 2.386.931 3.608.931 2.646 0 5.212-1.404 6.578-3.886 4.088-7.431 8.388-14.69 12.779-21.576l18.027-28.274c11.029-17.299 32.887-24.388 51.969-16.854 9.492 3.747 17.357 10.772 22.147 19.782 5.692 10.707 10.312 22.047 13.782 33.752l-28.999 37.803c-2.521 3.287-1.9 7.995 1.387 10.516 1.361 1.044 2.966 1.55 4.559 1.55 2.253 0 4.479-1.01 5.957-2.936l36.735-47.887c8.074-10.527 12.521-23.63 12.521-36.896v-137.729c0-4.142-3.357-7.5-7.5-7.5s-7.5 3.358-7.5 7.5v137.728c0 8.072-2.19 16.063-6.24 23.015-3.2-8.932-7.026-17.623-11.457-25.957-6.463-12.157-17.076-21.637-29.884-26.693-25.753-10.165-55.241-.6-70.125 22.742l-18.027 28.274c-4.563 7.157-9.029 14.697-13.273 22.409-1.997 3.628-.674 8.189 2.956 10.186z"/><path d="m434.813 234.789c-3.868 1.481-5.803 5.818-4.321 9.686 17.027 44.464 25.661 91.125 25.661 138.685 0 36.129-11.915 71.96-33.549 100.893-5.528 7.392-13.628 11.983-22.81 12.93-9.178.943-18.045-1.897-24.964-8.005l-33.701-29.758c-2.944-2.6-6.549-4.306-10.425-4.936-28.299-4.599-48.838-28.745-48.838-57.415v-42.896c0-4.142-3.357-7.5-7.5-7.5s-7.5 3.358-7.5 7.5v42.896c0 36.063 25.836 66.436 61.433 72.22 1.078.175 2.082.65 2.901 1.374l33.702 29.758c8.729 7.708 20.022 11.932 31.579 11.931 1.613 0 3.232-.082 4.851-.249 13.203-1.36 25.335-8.237 33.284-18.868 23.561-31.509 36.536-70.531 36.536-109.876 0-49.401-8.968-97.866-26.653-144.049-1.481-3.867-5.815-5.802-9.686-4.321z"/><path d="m266.867 322.011c0 4.142 3.357 7.5 7.5 7.5s7.5-3.358 7.5-7.5v-63.494l1.771 1.568c3.102 2.746 7.842 2.458 10.587-.642 2.747-3.101 2.459-7.841-.642-10.587l-40.803-36.136c-6.048-5.357-15.25-5.449-21.404-.217l-42.634 36.252c-3.155 2.684-3.538 7.417-.855 10.572 1.483 1.745 3.594 2.642 5.718 2.642 1.717 0 3.443-.587 4.854-1.786l4.816-4.095v140.781c0 28.67-20.539 52.816-48.837 57.415-3.877.629-7.481 2.336-10.425 4.936l-33.702 29.758c-6.918 6.109-15.777 8.954-24.964 8.005-9.182-.946-17.281-5.538-22.809-12.929-21.635-28.933-33.55-64.765-33.55-100.894 0-52.876 10.578-104.333 31.439-152.941 1.634-3.806-.127-8.216-3.934-9.85-3.81-1.636-8.218.128-9.85 3.934-21.667 50.488-32.654 103.935-32.654 158.857 0 39.345 12.976 78.367 36.537 109.876 7.948 10.63 20.08 17.507 33.283 18.867 1.618.167 3.236.249 4.851.249 11.556 0 22.85-4.223 31.579-11.931l33.703-29.758c.818-.724 1.822-1.199 2.901-1.374 35.596-5.784 61.432-36.157 61.432-72.22v-153.536l22.817-19.402c.501-.426 1.25-.418 1.741.018l24.033 21.284v76.778z"/><path d="m306.512 230.01c1.478 1.925 3.704 2.936 5.957 2.936 1.592 0 3.198-.505 4.56-1.55 3.286-2.521 3.906-7.229 1.386-10.516l-28.999-37.802c3.47-11.705 8.09-23.045 13.782-33.752 4.79-9.01 12.655-16.035 22.147-19.782 4.938-1.949 10.139-2.956 15.457-2.992 4.143-.028 7.478-3.409 7.449-7.551-.028-4.142-3.4-7.456-7.551-7.449-7.178.049-14.197 1.408-20.863 4.04-12.808 5.056-23.421 14.536-29.884 26.693-4.432 8.336-8.253 17.031-11.452 25.966-4.053-6.953-6.245-14.948-6.245-23.024v-42.901c0-4.142-3.357-7.5-7.5-7.5s-7.5 3.358-7.5 7.5v42.901c0 13.267 4.447 26.37 12.521 36.896z"/><path d="m264.755 77.863c4.143 0 7.5-3.358 7.5-7.5v-62.863c0-4.142-3.357-7.5-7.5-7.5s-7.5 3.358-7.5 7.5v62.863c0 4.142 3.358 7.5 7.5 7.5z"/><path d="m184.862 288.604c4.143 0 7.5-3.358 7.5-7.5s-3.357-7.5-7.5-7.5c-22.465 0-40.742-18.277-40.742-40.742 0-4.142-3.357-7.5-7.5-7.5s-7.5 3.358-7.5 7.5c0 30.736 25.006 55.742 55.742 55.742z"/><path d="m118.903 269.295c.603-4.098-2.231-7.908-6.33-8.51-4.091-.6-7.909 2.231-8.51 6.331l-.295 2.006c-1.001 6.804 1.003 13.692 5.499 18.896 4.495 5.205 11.018 8.19 17.895 8.19 4.143 0 7.5-3.358 7.5-7.5s-3.357-7.5-7.5-7.5c-2.552 0-4.875-1.063-6.543-2.994s-2.382-4.385-2.011-6.911z"/><path d="m347.522 225.362c-4.143 0-7.5 3.358-7.5 7.5 0 22.465-18.277 40.742-40.742 40.742-4.143 0-7.5 3.358-7.5 7.5s3.357 7.5 7.5 7.5c30.736 0 55.742-25.006 55.742-55.742 0-4.142-3.357-7.5-7.5-7.5z"/><path d="m356.98 296.208c6.877 0 13.399-2.985 17.895-8.19s6.5-12.092 5.499-18.895l-.295-2.008c-.601-4.099-4.42-6.928-8.51-6.331-4.099.602-6.933 4.412-6.33 8.51l.295 2.009c.371 2.524-.343 4.979-2.011 6.91s-3.991 2.994-6.543 2.994c-4.143 0-7.5 3.358-7.5 7.5s3.357 7.501 7.5 7.501z"/><path d="m355.734 171.903c1.82 1.394 3.944 2.084 6.06 2.084 2.368 0 4.726-.866 6.637-2.58l67.158-60.271c2.604-2.337 3.797-5.921 3.111-9.354-.685-3.432-3.161-6.284-6.464-7.443l-11.277-3.957 9.976-38.351c1.148-4.419-.747-8.903-4.717-11.158-3.97-2.253-8.792-1.586-11.998 1.664l-52.5 53.206c-2.43 2.463-3.399 5.942-2.594 9.306.805 3.365 3.245 6.027 6.526 7.123l9.527 3.18-22.281 44.165c-2.188 4.34-1.022 9.433 2.836 12.386zm55.946-105.434-6.407 24.634c-1.294 4.97 1.488 10.195 6.335 11.897l7.613 2.671-40.852 36.662 12.833-25.438c1.302-2.582 1.416-5.596.314-8.27-1.101-2.674-3.306-4.732-6.05-5.649l-7.378-2.463z"/><path d="m497.034 158.201c-2.033-3.784-6.375-5.738-10.554-4.756l-59.673 14.032c-3.219.756-5.772 3.078-6.832 6.209-1.061 3.132-.44 6.528 1.658 9.084l4.236 5.159-33.407 20.136c-3.978 2.397-5.624 7.111-4.004 11.464 1.42 3.815 4.921 6.199 8.846 6.199.552 0 1.113-.047 1.678-.145l72.936-12.54c3.297-.567 6.085-2.862 7.275-5.987s.637-6.693-1.446-9.308l-5.33-6.698 22.759-21.424c3.127-2.942 3.891-7.641 1.858-11.425zm-39.499 38.239 2.7 3.393-35.057 6.027 13.87-8.36c2.368-1.426 3.995-3.806 4.465-6.529.471-2.724-.266-5.512-2.021-7.653l-2.674-3.256 31.178-7.332-11.542 10.865c-3.571 3.364-3.975 9.007-.919 12.845zm32.368-28.391.011-.002h.001c-.004 0-.008.001-.012.002z"/></g></g></svg>