<svg id="Capa_1" enable-background="new 0 0 512.665 512.665" height="512" viewBox="0 0 512.665 512.665" width="512" xmlns="http://www.w3.org/2000/svg"><g><g><path d="m290.039 239.908v157.004c0 32.201 23.35 59.652 55.135 64.817 2.474.402 4.784 1.496 6.664 3.155l33.702 29.758c17.589 15.531 44.691 12.738 58.743-6.054 22.75-30.425 35.044-67.395 35.044-105.385 0-75.298-21.506-149.03-61.988-212.52l-18.028-28.274c-12.984-20.364-38.582-28.666-61.046-19.798-11.16 4.405-20.384 12.644-26.016 23.238-6.582 12.38-11.732 25.408-15.418 38.83z" fill="#f79595"/><g><path d="m223.894 239.908v157.004c0 32.201-23.35 59.652-55.135 64.817-2.474.402-4.784 1.496-6.664 3.155l-33.702 29.758c-17.589 15.531-44.691 12.738-58.743-6.054-22.75-30.425-35.044-67.395-35.044-105.385 0-75.298 21.506-149.03 61.988-212.52l18.028-28.274c12.984-20.364 38.582-28.666 61.046-19.798 11.16 4.405 20.384 12.644 26.016 23.238 6.582 12.38 11.732 25.408 15.418 38.83z" fill="#f79595"/><path d="m123.5 486.019c-22.75-30.425-35.044-67.395-35.044-105.385 0-75.298 21.506-149.03 61.988-212.52l18.028-28.274c3.643-5.714 8.293-10.478 13.575-14.18-2.039-1.157-4.175-2.18-6.377-3.05-22.464-8.868-48.062-.566-61.046 19.798l-18.028 28.274c-40.482 63.49-61.989 137.222-61.989 212.52 0 37.99 12.294 74.96 35.044 105.385 14.052 18.792 41.153 21.585 58.743 6.054l1.82-1.607c-2.455-2.015-4.72-4.348-6.714-7.015z" fill="#f37c7c"/><circle cx="467.922" cy="368.283" fill="#86e8d0" r="23.254"/><circle cx="413.753" cy="163.206" fill="#fece85" r="15.471"/><circle cx="312.776" cy="439.011" fill="#a6e7f0" r="17.935"/><circle cx="45.033" cy="368.283" fill="#86e8d0" r="23.436"/></g><path d="m277.875 13.065v132.205c0 11.691 3.857 23.055 10.973 32.331l31.845 41.512c2.864 3.733 2.776 8.948-.211 12.583l-12.086 14.706c-3.641 4.43-10.232 4.952-14.525 1.15l-32.944-29.175c-3.291-2.914-8.224-2.964-11.572-.117l-35.2 29.931c-4.006 3.406-10.065 2.671-13.14-1.595l-11.299-15.675c-2.325-3.225-2.26-7.594.16-10.748l32.658-42.573c7.116-9.276 10.973-20.64 10.973-32.331v-132.204c0-3.05 2.473-5.523 5.523-5.523h33.324c3.048 0 5.521 2.473 5.521 5.523z" fill="#ffe5c2"/></g><g><path d="m224.271 323.54c-4.143 0-7.5 3.358-7.5 7.5v66.085c0 28.67-20.539 52.816-48.838 57.415-3.876.629-7.48 2.336-10.424 4.936l-33.702 29.758c-6.918 6.109-15.785 8.953-24.964 8.005-9.182-.946-17.281-5.538-22.808-12.929-12.897-17.248-22.259-36.541-27.825-57.343-1.071-4.001-5.183-6.38-9.184-5.307-4.002 1.071-6.377 5.183-5.307 9.184 6.062 22.654 16.257 43.665 30.302 62.448 7.949 10.63 20.08 17.507 33.283 18.868 1.618.167 3.236.249 4.851.249 11.557 0 22.85-4.223 31.579-11.931l33.703-29.759c.818-.723 1.822-1.198 2.901-1.374 35.596-5.784 61.432-36.157 61.432-72.22v-66.085c.001-4.142-3.357-7.5-7.499-7.5z"/><path d="m114.753 142.006c3.108 2.738 7.846 2.439 10.585-.669 11.912-13.52 31.184-18.155 47.955-11.536 9.492 3.747 17.357 10.772 22.147 19.782 5.692 10.707 10.312 22.047 13.781 33.751l-28.999 37.803c-2.521 3.287-1.9 7.995 1.386 10.516 1.362 1.044 2.967 1.55 4.56 1.55 2.253 0 4.479-1.01 5.957-2.936l36.734-47.887c8.075-10.525 12.522-23.629 12.522-36.896v-137.728c0-4.142-3.357-7.5-7.5-7.5s-7.5 3.358-7.5 7.5v137.727c0 8.079-2.193 16.076-6.249 23.03-3.199-8.937-7.016-17.634-11.449-25.972-6.463-12.157-17.076-21.637-29.884-26.693-22.632-8.935-48.64-2.676-64.717 15.572-2.736 3.108-2.437 7.847.671 10.586z"/><path d="m42.633 305.668c.544.12 1.087.177 1.621.177 3.443 0 6.546-2.386 7.317-5.887 9.813-44.523 27.215-86.589 51.726-125.03l4.693-7.361c2.227-3.493 1.2-8.129-2.292-10.356-3.493-2.227-8.128-1.202-10.356 2.292l-4.693 7.361c-25.459 39.928-43.535 83.621-53.726 129.866-.892 4.045 1.665 8.047 5.71 8.938z"/><path d="m433.221 202.154c-3.717 1.829-5.247 6.324-3.418 10.041 12.32 25.036 21.947 51.468 28.613 78.561.756 3.072 1.491 6.226 2.185 9.374.771 3.502 3.873 5.889 7.317 5.889.533 0 1.076-.057 1.619-.177 4.046-.891 6.603-4.892 5.712-8.937-.719-3.269-1.482-6.543-2.267-9.733-6.925-28.141-16.925-55.595-29.721-81.6-1.827-3.716-6.323-5.247-10.04-3.418z"/><path d="m470.487 431.961c-3.931-1.312-8.177.813-9.487 4.743-5.711 17.128-14.089 33.146-24.901 47.606-5.526 7.391-13.626 11.983-22.807 12.929-9.177.946-18.048-1.897-24.966-8.006l-27.808-24.554c-3.104-2.741-7.844-2.447-10.586.658-2.741 3.105-2.447 7.845.658 10.586l27.808 24.554c8.73 7.709 20.022 11.932 31.58 11.932 1.613 0 3.233-.083 4.852-.249 13.202-1.361 25.333-8.238 33.282-18.868 11.774-15.748 20.898-33.191 27.118-51.845 1.31-3.929-.813-8.176-4.743-9.486z"/><path d="m280.362 397.125c0 4.142 3.357 7.5 7.5 7.5s7.5-3.358 7.5-7.5v-138.352l1.771 1.568c3.102 2.746 7.842 2.459 10.587-.642 2.747-3.101 2.459-7.841-.642-10.587l-40.803-36.135c-6.049-5.357-15.25-5.449-21.404-.217l-42.634 36.252c-3.155 2.684-3.538 7.417-.855 10.572 1.483 1.745 3.594 2.642 5.718 2.642 1.717 0 3.443-.587 4.854-1.786l4.816-4.095v42.733c0 4.142 3.357 7.5 7.5 7.5s7.5-3.358 7.5-7.5v-55.488l22.817-19.402c.502-.426 1.25-.418 1.741.018l24.033 21.284v151.635z"/><path d="m320.008 230.266c1.478 1.925 3.704 2.936 5.957 2.936 1.592 0 3.198-.505 4.56-1.55 3.286-2.521 3.906-7.229 1.386-10.516l-29-37.802c3.47-11.705 8.089-23.045 13.782-33.751 4.791-9.01 12.656-16.036 22.147-19.783 11.568-4.565 24.539-3.894 35.586 1.848 3.675 1.91 8.203.479 10.114-3.196 1.91-3.675.479-8.203-3.196-10.113-14.902-7.745-32.401-8.652-48.012-2.49-12.807 5.056-23.42 14.535-29.884 26.693-4.433 8.338-8.25 17.035-11.449 25.972-4.055-6.956-6.248-14.952-6.248-23.029v-51.741c0-4.142-3.357-7.5-7.5-7.5s-7.5 3.358-7.5 7.5v51.739c0 13.265 4.447 26.368 12.521 36.896z"/><path d="m278.251 69.282c4.143 0 7.5-3.358 7.5-7.5v-54.026c0-4.142-3.357-7.5-7.5-7.5s-7.5 3.358-7.5 7.5v54.026c0 4.142 3.357 7.5 7.5 7.5z"/><path d="m205.857 281.36c0-4.142-3.357-7.5-7.5-7.5-22.465 0-40.742-18.277-40.742-40.742 0-4.142-3.357-7.5-7.5-7.5s-7.5 3.358-7.5 7.5c0 30.736 25.006 55.742 55.742 55.742 4.143 0 7.5-3.358 7.5-7.5z"/><path d="m148.157 288.965c0-4.142-3.357-7.5-7.5-7.5-2.552 0-4.875-1.063-6.543-2.995s-2.382-4.385-2.011-6.911l.295-2.008c.603-4.098-2.231-7.908-6.33-8.51-4.086-.603-7.909 2.231-8.51 6.331l-.295 2.006c-1.001 6.804 1.003 13.691 5.499 18.896 4.495 5.205 11.018 8.19 17.895 8.19 4.143.001 7.5-3.357 7.5-7.499z"/><path d="m312.776 273.86c-4.143 0-7.5 3.358-7.5 7.5s3.357 7.5 7.5 7.5c30.736 0 55.742-25.006 55.742-55.742 0-4.142-3.357-7.5-7.5-7.5s-7.5 3.358-7.5 7.5c.001 22.465-18.277 40.742-40.742 40.742z"/><path d="m393.869 269.38-.295-2.008c-.601-4.099-4.426-6.931-8.51-6.331-4.099.602-6.933 4.412-6.33 8.51l.295 2.009c.371 2.524-.343 4.979-2.011 6.91s-3.991 2.994-6.543 2.994c-4.143 0-7.5 3.358-7.5 7.5s3.357 7.5 7.5 7.5c6.877 0 13.399-2.985 17.895-8.19 4.496-5.204 6.5-12.092 5.499-18.894z"/><path d="m505.165 360.783h-7.417c-.742-2.951-1.912-5.734-3.44-8.279l5.253-5.253c2.929-2.929 2.929-7.678 0-10.606-2.93-2.929-7.678-2.929-10.607 0l-5.252 5.252c-2.545-1.528-5.328-2.697-8.279-3.44v-7.418c0-4.142-3.357-7.5-7.5-7.5s-7.5 3.358-7.5 7.5v7.418c-2.951.742-5.734 1.912-8.279 3.44l-5.252-5.252c-2.93-2.929-7.678-2.929-10.607 0s-2.929 7.678 0 10.606l5.253 5.253c-1.528 2.545-2.698 5.328-3.44 8.279h-7.417c-4.143 0-7.5 3.358-7.5 7.5s3.357 7.5 7.5 7.5h7.417c.742 2.951 1.912 5.734 3.44 8.279l-5.253 5.253c-2.929 2.929-2.929 7.678 0 10.606 1.465 1.464 3.385 2.197 5.304 2.197s3.839-.732 5.304-2.197l5.252-5.252c2.545 1.528 5.328 2.698 8.279 3.44v7.417c0 4.142 3.357 7.5 7.5 7.5s7.5-3.358 7.5-7.5v-7.417c2.951-.742 5.734-1.912 8.279-3.44l5.252 5.252c1.465 1.464 3.385 2.197 5.304 2.197s3.839-.732 5.304-2.197c2.929-2.929 2.929-7.678 0-10.606l-5.253-5.253c1.528-2.545 2.698-5.328 3.44-8.279h7.417c4.143 0 7.5-3.358 7.5-7.5s-3.359-7.5-7.502-7.5zm-37.243 23.255c-8.688 0-15.755-7.067-15.755-15.755 0-8.687 7.067-15.754 15.755-15.754s15.755 7.067 15.755 15.754-7.068 15.755-15.755 15.755z"/><path d="m393.101 153.16c-.402.822-.752 1.673-1.054 2.547h-3.071c-4.143 0-7.5 3.358-7.5 7.5s3.357 7.5 7.5 7.5h3.071c.302.873.653 1.724 1.054 2.547l-2.171 2.171c-2.929 2.929-2.929 7.678.001 10.607 1.464 1.464 3.384 2.196 5.303 2.196s3.839-.732 5.304-2.197l2.17-2.17c.822.401 1.673.751 2.546 1.054v3.071c0 4.142 3.357 7.5 7.5 7.5s7.5-3.358 7.5-7.5v-3.07c.873-.303 1.724-.653 2.547-1.054l2.17 2.17c1.465 1.464 3.384 2.197 5.304 2.197 1.919 0 3.839-.732 5.303-2.196 2.93-2.929 2.93-7.678.001-10.607l-2.171-2.171c.402-.822.752-1.673 1.054-2.547h3.071c4.143 0 7.5-3.358 7.5-7.5s-3.357-7.5-7.5-7.5h-3.071c-.303-.873-.653-1.724-1.054-2.547l2.171-2.171c2.929-2.929 2.929-7.678-.001-10.606s-7.677-2.929-10.606.001l-2.17 2.17c-.822-.401-1.673-.752-2.547-1.054v-3.07c0-4.142-3.357-7.5-7.5-7.5s-7.5 3.358-7.5 7.5v3.071c-.873.302-1.724.652-2.546 1.054l-2.17-2.17c-2.929-2.929-7.678-2.93-10.606-.001-2.93 2.929-2.93 7.677-.001 10.606zm20.652 2.076c4.396 0 7.972 3.576 7.972 7.971 0 4.396-3.576 7.971-7.972 7.971s-7.971-3.576-7.971-7.971c0-4.396 3.575-7.971 7.971-7.971z"/><path d="m341.5 431.511h-4.419c-.472-1.525-1.086-2.988-1.823-4.376l3.132-3.132c2.929-2.929 2.929-7.678 0-10.606-2.93-2.929-7.678-2.929-10.607 0l-3.131 3.131c-1.388-.736-2.851-1.351-4.376-1.823v-4.418c0-4.142-3.357-7.5-7.5-7.5s-7.5 3.358-7.5 7.5v4.418c-1.525.472-2.988 1.086-4.376 1.823l-3.131-3.131c-2.93-2.929-7.678-2.929-10.607 0s-2.929 7.678 0 10.606l3.132 3.132c-.736 1.388-1.351 2.851-1.823 4.376h-4.419c-4.143 0-7.5 3.358-7.5 7.5s3.357 7.5 7.5 7.5h4.419c.472 1.525 1.086 2.987 1.823 4.376l-3.132 3.132c-2.929 2.929-2.929 7.678 0 10.606 1.465 1.464 3.385 2.197 5.304 2.197s3.839-.732 5.304-2.197l3.132-3.132c1.388.736 2.851 1.351 4.376 1.823v4.419c0 4.142 3.357 7.5 7.5 7.5s7.5-3.358 7.5-7.5v-4.419c1.525-.472 2.987-1.086 4.375-1.823l3.131 3.131c1.465 1.464 3.385 2.197 5.304 2.197s3.839-.732 5.304-2.197c2.929-2.929 2.929-7.678 0-10.606l-3.132-3.132c.737-1.388 1.351-2.851 1.823-4.376h4.419c4.143 0 7.5-3.358 7.5-7.5s-3.359-7.499-7.502-7.499zm-28.724 17.936c-5.754 0-10.436-4.681-10.436-10.435s4.682-10.436 10.436-10.436 10.435 4.681 10.435 10.436c0 5.753-4.681 10.435-10.435 10.435z"/><path d="m37.533 398.295v7.522c0 4.142 3.357 7.5 7.5 7.5s7.5-3.358 7.5-7.5v-7.522c3-.75 5.828-1.937 8.411-3.493l5.325 5.325c1.465 1.464 3.385 2.197 5.304 2.197s3.839-.732 5.304-2.197c2.929-2.929 2.929-7.678 0-10.606l-5.326-5.326c1.556-2.583 2.743-5.412 3.493-8.412h7.522c4.143 0 7.5-3.358 7.5-7.5s-3.357-7.5-7.5-7.5h-7.522c-.75-3-1.937-5.828-3.493-8.411l5.325-5.325c2.929-2.929 2.929-7.678 0-10.606-2.93-2.929-7.678-2.929-10.607 0l-5.325 5.325c-2.583-1.556-5.411-2.743-8.411-3.493v-7.522c0-4.142-3.357-7.5-7.5-7.5s-7.5 3.358-7.5 7.5v7.522c-3 .75-5.828 1.937-8.411 3.493l-5.325-5.325c-2.93-2.929-7.678-2.929-10.607 0s-2.929 7.678 0 10.606l5.326 5.326c-1.556 2.583-2.743 5.411-3.493 8.411h-7.523c-4.143 0-7.5 3.358-7.5 7.5s3.357 7.5 7.5 7.5h7.522c.75 3 1.937 5.828 3.493 8.412l-5.325 5.325c-2.929 2.929-2.929 7.678 0 10.606 1.465 1.464 3.385 2.197 5.304 2.197s3.839-.732 5.304-2.197l5.325-5.325c2.582 1.555 5.41 2.743 8.41 3.493zm7.5-45.948c8.787 0 15.936 7.148 15.936 15.936s-7.148 15.936-15.936 15.936-15.936-7.149-15.936-15.936 7.149-15.936 15.936-15.936z"/><path d="m116.19 225.768c4.143 0 7.5-3.358 7.5-7.5s-3.357-7.5-7.5-7.5h-7.723c-4.143 0-7.5 3.358-7.5 7.5s3.357 7.5 7.5 7.5z"/><path d="m112.329 335.801h8.826c4.143 0 7.5-3.358 7.5-7.5s-3.357-7.5-7.5-7.5h-8.826c-4.143 0-7.5 3.358-7.5 7.5s3.358 7.5 7.5 7.5z"/><path d="m165.288 354.452c-4.143 0-7.5 3.358-7.5 7.5s3.357 7.5 7.5 7.5h8.948c4.143 0 7.5-3.358 7.5-7.5s-3.357-7.5-7.5-7.5z"/><path d="m116.19 430.015h11.033c4.143 0 7.5-3.358 7.5-7.5s-3.357-7.5-7.5-7.5h-11.033c-4.143 0-7.5 3.358-7.5 7.5s3.358 7.5 7.5 7.5z"/><path d="m416.841 294.322h-5.088c-4.143 0-7.5 3.358-7.5 7.5s3.357 7.5 7.5 7.5h5.088c4.143 0 7.5-3.358 7.5-7.5s-3.358-7.5-7.5-7.5z"/><path d="m350.091 335.801h10.928c4.143 0 7.5-3.358 7.5-7.5s-3.357-7.5-7.5-7.5h-10.928c-4.143 0-7.5 3.358-7.5 7.5s3.357 7.5 7.5 7.5z"/><path d="m373.261 382.14h9.245c4.143 0 7.5-3.358 7.5-7.5s-3.357-7.5-7.5-7.5h-9.245c-4.143 0-7.5 3.358-7.5 7.5s3.357 7.5 7.5 7.5z"/><path d="m406.911 435.545c-4.143 0-7.5 3.358-7.5 7.5s3.357 7.5 7.5 7.5h9.93c4.143 0 7.5-3.358 7.5-7.5s-3.357-7.5-7.5-7.5z"/><path d="m355.555 196.999c4.143 0 7.5-3.358 7.5-7.5s-3.357-7.5-7.5-7.5h-5.464c-4.143 0-7.5 3.358-7.5 7.5s3.357 7.5 7.5 7.5z"/></g></g></svg>