<svg id="Capa_1" enable-background="new 0 0 513.225 513.225" height="512" viewBox="0 0 513.225 513.225" width="512" xmlns="http://www.w3.org/2000/svg"><g><g><path d="m57.944 417.049 1.74 23.107 14.486 29.914c2.076 4.286 6.418 7.008 11.18 7.008h39.162c4.762 0 9.105-2.722 11.18-7.008l14.486-29.913 4.202-23.107h-96.436z" fill="#cdbfba"/><path d="m366.68 416.379 4.578 23.778 14.486 29.913c2.076 4.286 6.418 7.008 11.18 7.008h39.162c4.762 0 9.105-2.722 11.18-7.008l14.486-29.913 5.309-23.778z" fill="#cdbfba"/><path d="m469.722 184.162v217.687c0 1.277-1.035 2.312-2.311 2.312h-421.597c-1.277 0-2.312-1.035-2.312-2.312v-217.687c0-1.277 1.035-2.312 2.312-2.312h56.408 118.86 246.328c1.277.001 2.312 1.036 2.312 2.312z" fill="#faf7f7"/><g id="XMLID_303_"><g><path d="m403.239 198.127h-92.713l-16.834 19.484v85.41c0 16.41 6.65 31.27 17.4 42.02 10.76 10.76 25.62 17.41 42.03 17.41 32.82 0 59.43-26.61 59.43-59.43v-85.41z" fill="#fef0ae"/></g></g><path d="m354.833 345.041c-10.75-10.75-17.4-25.61-17.4-42.02v-85.41l16.834-19.484h-43.741l-16.834 19.484v85.41c0 16.41 6.65 31.27 17.4 42.02 10.76 10.76 25.62 17.41 42.03 17.41 7.725 0 15.14-1.488 21.911-4.17-7.613-3.016-14.506-7.546-20.2-13.24z" fill="#fee97d"/><path d="m412.552 152.301v65.31h-118.86v-35.76-29.55z" fill="#efe2dd"/><path d="m412.549 60.072 8.181-19.573c.865-2.069-.655-4.352-2.898-4.352h-129.427c-2.243 0-3.763 2.283-2.898 4.352l8.181 19.573v104.085h118.861z" fill="#f9f3f1"/><path d="m102.222 60.071v121.78h118.86v-121.78l8.18-19.57c.86-2.07-.66-4.35-2.9-4.35h-129.43c-2.24 0-3.76 2.28-2.89 4.35z" fill="#f9f3f1"/><g><g><g id="XMLID_297_"><g><path d="m204.903 189.994h-81.978l-20.703 27.617v85.41c0 16.41 6.65 31.27 17.4 42.02 10.76 10.76 25.61 17.41 42.03 17.41 32.82 0 59.43-26.61 59.43-59.43v-85.41z" fill="#f79595"/></g><g id="XMLID_299_"><path d="m163.363 345.041c-10.75-10.75-17.4-25.61-17.4-42.02v-85.41l20.703-27.617h-43.741l-20.703 27.617v85.41c0 16.41 6.65 31.27 17.4 42.02 10.76 10.76 25.61 17.41 42.03 17.41 7.724 0 15.146-1.49 21.917-4.172-7.613-3.016-14.511-7.543-20.206-13.238z" fill="#f37c7c"/><g><path d="m102.222 171.851h118.86v45.76h-118.86z" fill="#efe2dd"/></g><path d="m337.433 152.301h-43.741v29.55 35.76h43.741v-35.76z" fill="#e1d3ce"/><path d="m102.222 181.851h43.741v35.76h-43.741z" fill="#e1d3ce"/><g><g id="XMLID_305_"><g><path d="m221.082 125.851h-54.545c-11.363 0-20.574-9.211-20.574-20.574v-40.337c0-3.214-.638-6.397-1.878-9.363l-6.302-15.077c-.87-2.07.65-4.35 2.89-4.35h-43.741c-2.24 0-3.76 2.28-2.89 4.35l8.18 19.57v121.78h43.741v-16.45h75.119z" fill="#f3eae6"/><path d="m337.429 100.095v-40.023l-8.181-19.573c-.865-2.069.655-4.352 2.898-4.352h-43.741c-2.243 0-3.763 2.283-2.898 4.352l8.181 19.573v104.085h37.969 5.772 75.12v-38.306h-49.365c-14.224 0-25.755-11.531-25.755-25.756z" fill="#f3eae6"/><path d="m505.722 184.639v216.734c0 21.422-17.366 38.788-38.788 38.788h-420.644c-21.422 0-38.788-17.366-38.788-38.788v-216.734c0-21.422 17.366-38.788 38.788-38.788h420.644c21.422 0 38.788 17.366 38.788 38.788zm-36 215.944v-215.154c0-1.976-1.602-3.578-3.578-3.578h-419.064c-1.976 0-3.578 1.602-3.578 3.578v215.154c0 1.976 1.602 3.578 3.578 3.578h419.064c1.976 0 3.578-1.602 3.578-3.578z" fill="#e1d3ce"/></g></g></g><path d="m82.049 401.373v-216.734c0-.938.045-1.866.111-2.788h-36.346c-1.277 0-2.312 1.035-2.312 2.312v217.687c0 1.277 1.035 2.312 2.312 2.312h36.346c-.066-.923-.111-1.85-.111-2.789z" fill="#f3eae6"/><path d="m82.16 404.161h-35.08c-1.976 0-3.578-1.602-3.578-3.578v-215.154c0-1.976 1.602-3.578 3.578-3.578h35.08c1.43-20.118 18.192-35.999 38.675-36h-74.545c-21.422 0-38.788 17.366-38.788 38.788v216.734c0 21.422 17.366 38.788 38.788 38.788h74.547c-20.483 0-37.247-15.881-38.677-36z" fill="#cdbfba"/></g></g></g></g></g><g><path d="m470.517 138.353h-50.468v-76.777l7.6-18.185c1.376-3.292 1.018-7.031-.96-10.001-1.978-2.971-5.289-4.744-8.857-4.744h-25.988c-4.142 0-7.5 3.358-7.5 7.5s3.358 7.5 7.5 7.5h19.442l-5.656 13.534c-.383.916-.58 1.899-.58 2.892v12.417h-8.677c-4.142 0-7.5 3.358-7.5 7.5s3.358 7.5 7.5 7.5h8.677v17.933h-8.677c-4.142 0-7.5 3.358-7.5 7.5s3.358 7.5 7.5 7.5h8.677v17.932h-103.862v-78.282c0-.993-.197-1.976-.58-2.892l-5.657-13.534h64.93c4.142 0 7.5-3.358 7.5-7.5s-3.358-7.5-7.5-7.5h-71.476c-3.568 0-6.879 1.773-8.857 4.743s-2.337 6.709-.961 10.001l7.601 18.186v76.777h-57.608v-76.777l7.601-18.186c1.376-3.292 1.017-7.031-.961-10.001s-5.289-4.743-8.857-4.743h-129.426c-3.568 0-6.879 1.773-8.857 4.743s-2.337 6.709-.961 10.001l7.601 18.186v29.424c0 4.142 3.358 7.5 7.5 7.5s7.5-3.358 7.5-7.5v-30.928c0-.993-.197-1.976-.58-2.893l-5.657-13.533h116.334l-5.657 13.533c-.383.917-.58 1.899-.58 2.893v12.417h-8.677c-4.142 0-7.5 3.358-7.5 7.5s3.358 7.5 7.5 7.5h8.677v17.933h-8.677c-4.142 0-7.5 3.358-7.5 7.5s3.358 7.5 7.5 7.5h8.677v17.932h-103.861v-15.391c0-4.142-3.358-7.5-7.5-7.5s-7.5 3.358-7.5 7.5v15.391h-52.011c-23.549-.001-42.708 19.158-42.708 42.707v223.888c0 23.549 19.159 42.708 42.708 42.708h12.275l12.437 25.682c3.306 6.828 10.344 11.24 17.931 11.24h39.162c7.586 0 14.625-4.412 17.931-11.239l12.437-25.683h211.676l12.438 25.683c3.306 6.828 10.344 11.239 17.93 11.239h39.162c7.586 0 14.625-4.412 17.931-11.239l12.438-25.683h4.062c23.549 0 42.708-19.159 42.708-42.708v-223.888c-.001-23.549-19.16-42.708-42.709-42.708zm-341.574 328.448c-.817 1.687-2.556 2.777-4.431 2.777h-39.162c-1.875 0-3.613-1.09-4.43-2.777l-9.271-19.145h66.565zm311.574 0c-.817 1.687-2.556 2.777-4.431 2.777h-39.162c-1.874 0-3.613-1.09-4.43-2.777l-9.271-19.145h66.566zm57.708-61.852c0 15.278-12.43 27.708-27.708 27.708h-427.809c-15.278-.001-27.708-12.43-27.708-27.708v-223.888c0-15.278 12.43-27.708 27.708-27.708h427.81c15.278 0 27.708 12.43 27.708 27.708v223.888z"/><path d="m469.725 174.353h-426.225c-4.142 0-7.5 3.358-7.5 7.5v222.303c0 4.142 3.358 7.5 7.5 7.5h42.738c4.142 0 7.5-3.358 7.5-7.5s-3.358-7.5-7.5-7.5h-35.238v-207.303h43.719v113.665c0 36.905 30.025 66.93 66.931 66.93 36.905 0 66.93-30.025 66.93-66.93v-113.665h57.608v113.665c0 36.905 30.025 66.93 66.93 66.93 36.906 0 66.931-30.025 66.931-66.93v-113.665h42.176v207.303h-344.025c-4.142 0-7.5 3.358-7.5 7.5s3.358 7.5 7.5 7.5h351.524c4.142 0 7.5-3.358 7.5-7.5v-222.303c.001-4.142-3.357-7.5-7.499-7.5zm-256.145 69.428h-8.677c-4.142 0-7.5 3.358-7.5 7.5s3.358 7.5 7.5 7.5h8.677v17.932h-8.677c-4.142 0-7.5 3.358-7.5 7.5s3.358 7.5 7.5 7.5h8.677v11.305c0 28.634-23.296 51.93-51.93 51.93-28.635 0-51.931-23.296-51.931-51.93v-77.912h103.861zm0-33.675h-103.861v-20.753h103.861zm191.469 33.675h-8.677c-4.142 0-7.5 3.358-7.5 7.5s3.358 7.5 7.5 7.5h8.677v17.932h-8.677c-4.142 0-7.5 3.358-7.5 7.5s3.358 7.5 7.5 7.5h8.677v11.305c0 28.634-23.296 51.93-51.931 51.93-28.634 0-51.93-23.296-51.93-51.93v-77.912h103.861zm0-33.675h-103.861v-20.753h103.861z"/></g></g></svg>