<svg id="Capa_1" enable-background="new 0 0 510.771 510.771" height="512" viewBox="0 0 510.771 510.771" width="512" xmlns="http://www.w3.org/2000/svg"><g><g><g><path d="m364.32 101.46v-38.051c0-20.851-16.963-37.814-37.814-37.814h-141.241c-20.851 0-37.814 16.963-37.814 37.814v38.051 22.797h32v-60.848c0-3.206 2.608-5.814 5.814-5.814h141.241c3.206 0 5.814 2.608 5.814 5.814v38.051 22.797h32z" fill="#efe2dd"/></g><path d="m200.07 144.366h-73.239v-34.31c0-4.195 3.401-7.596 7.596-7.596h58.046c4.195 0 7.596 3.401 7.596 7.596v34.31z" fill="#e1d3ce"/><g><path d="m486.445 244.932v219.53c0 11.44-9.27 20.71-20.71 20.71h-420.7c-11.44 0-20.71-9.27-20.71-20.71v-219.53-1h462.12z" fill="#f9f3f1"/></g><path d="m447.391 243.932v-11.151c0-16.062-13.021-29.083-29.083-29.083h-18.044c-16.062 0-29.083 13.021-29.083 29.083v11.151h-231.591v-11.151c0-16.062-13.021-29.083-29.083-29.083h-18.045c-16.062 0-29.083 13.021-29.083 29.083v11.151h-39.054v1 219.53c0 11.438 9.272 20.71 20.71 20.71h72.431c-11.44 0-20.71-9.27-20.71-20.71v-92.546c0-7.594 6.157-13.751 13.751-13.751 16.062 0 29.083-13.021 29.083-29.083v-13.039c0-8.345 6.765-15.111 15.111-15.111h201.369c8.345 0 15.111 6.765 15.111 15.111v13.039c0 16.062 13.021 29.083 29.083 29.083h18.045c16.062 0 29.083-13.021 29.083-29.083v-10.114c0-9.961 8.075-18.036 18.036-18.036h21.018v-56-1z" fill="#f3eae6"/><path d="m311.701 148.366h73.239v-38.31c0-4.195-3.401-7.596-7.596-7.596h-58.046c-4.195 0-7.596 3.401-7.596 7.596v38.31z" fill="#e1d3ce"/><path d="m503.275 163.842v104.53c0 6.93-5.63 12.56-12.57 12.56h-470.64c-6.94 0-12.57-5.63-12.57-12.56v-104.53c0-16.83 13.65-30.48 30.48-30.48h434.82c16.83 0 30.48 13.65 30.48 30.48z" fill="#f9f3f1"/><path d="m447.391 232.781c0-16.062-13.021-29.083-29.083-29.083h-18.044c-16.062 0-29.083 13.021-29.083 29.083 0 6.158-4.992 11.151-11.151 11.151h-209.289c-6.158 0-11.151-4.992-11.151-11.151v-.001c0-16.062-13.021-29.083-29.083-29.083h-18.045c-.067 0-.135 0-.202.001-9.692.066-17.669-7.55-17.669-17.242v-22.615c0-16.83 13.65-30.48 30.48-30.48h-67.096c-16.834 0-30.48 13.646-30.48 30.48v104.53c0 6.93 5.63 12.56 12.57 12.56h4.26 62.836 399.284v-9.097c0-15.41-12.493-27.903-27.903-27.903-6.158.001-11.151-4.992-11.151-11.15z" fill="#f3eae6"/><g><circle cx="255.385" cy="381.553" fill="#f79595" r="76.643"/><path d="m295.064 361.766h-19.891v-19.891c0-2.049-1.661-3.709-3.709-3.709h-32.157c-2.049 0-3.709 1.661-3.709 3.709v19.891h-19.891c-2.049 0-3.709 1.661-3.709 3.709v32.157c0 2.049 1.661 3.709 3.709 3.709h19.891v19.891c0 2.049 1.661 3.709 3.709 3.709h32.157c2.049 0 3.709-1.661 3.709-3.709v-19.891h19.891c2.049 0 3.709-1.661 3.709-3.709v-32.157c0-2.049-1.66-3.709-3.709-3.709z" fill="#faf7f7"/><g><path d="m427.391 329.082c0 5.016-4.067 9.083-9.083 9.083h-18.045c-5.016 0-9.083-4.067-9.083-9.083v-96.301c0-5.017 4.067-9.083 9.083-9.083h18.045c5.016 0 9.083 4.067 9.083 9.083z" fill="#efe2dd"/></g><path d="m439.667 301.394h-60.763c-3.775 0-6.835-3.06-6.835-6.835v-27.254c0-3.775 3.06-6.835 6.835-6.835h60.763c3.775 0 6.835 3.06 6.835 6.835v27.254c0 3.775-3.06 6.835-6.835 6.835z" fill="#e1d3ce"/><g><path d="m119.59 329.082c0 5.016-4.067 9.083-9.083 9.083h-18.045c-5.016 0-9.083-4.067-9.083-9.083v-96.301c0-5.017 4.067-9.083 9.083-9.083h18.045c5.016 0 9.083 4.067 9.083 9.083z" fill="#efe2dd"/></g><path d="m71.103 301.394h60.763c3.775 0 6.835-3.06 6.835-6.835v-27.254c0-3.775-3.06-6.835-6.835-6.835h-60.763c-3.775 0-6.835 3.06-6.835 6.835v27.254c0 3.775 3.06 6.835 6.835 6.835z" fill="#e1d3ce"/></g></g><g><path d="m186.912 416.781c-3.479 2.248-4.477 6.891-2.229 10.37 15.595 24.136 42.026 38.546 70.702 38.546 46.396 0 84.143-37.746 84.143-84.143s-37.746-84.143-84.143-84.143-84.143 37.747-84.143 84.143c0 4.237.321 8.505.954 12.686.62 4.095 4.446 6.915 8.538 6.293 4.096-.62 6.913-4.442 6.293-8.538-.521-3.441-.785-6.954-.785-10.442 0-38.125 31.017-69.143 69.143-69.143s69.143 31.018 69.143 69.143-31.017 69.143-69.143 69.143c-23.563 0-45.284-11.845-58.104-31.687-2.247-3.478-6.889-4.475-10.369-2.228z"/><path d="m271.464 330.665h-32.157c-6.181 0-11.209 5.028-11.209 11.209v12.391h-12.391c-6.181 0-11.209 5.028-11.209 11.209v32.157c0 6.181 5.028 11.209 11.209 11.209h12.391v12.391c0 6.181 5.028 11.209 11.209 11.209h32.157c6.181 0 11.209-5.028 11.209-11.209v-12.391h12.391c6.181 0 11.209-5.028 11.209-11.209v-32.157c0-6.181-5.028-11.209-11.209-11.209h-12.391v-12.391c0-6.181-5.028-11.209-11.209-11.209zm19.809 38.601v24.576h-16.101c-4.142 0-7.5 3.358-7.5 7.5v16.101h-24.575v-16.101c0-4.142-3.358-7.5-7.5-7.5h-16.101v-24.576h16.101c4.142 0 7.5-3.358 7.5-7.5v-16.101h24.575v16.101c0 4.142 3.358 7.5 7.5 7.5z"/><path d="m400.264 216.198c-9.144 0-16.583 7.439-16.583 16.583v20.188h-4.776c-7.904 0-14.335 6.431-14.335 14.335v27.254c0 7.905 6.431 14.335 14.335 14.335h4.776v20.188c0 9.144 7.439 16.583 16.583 16.583h18.044c9.144 0 16.583-7.439 16.583-16.583v-20.188h4.776c7.905 0 14.335-6.431 14.335-14.335v-27.254c0-7.905-6.431-14.335-14.335-14.335h-4.776v-20.188c0-9.144-7.439-16.583-16.583-16.583zm19.627 112.884c0 .873-.71 1.583-1.583 1.583h-18.044c-.873 0-1.583-.71-1.583-1.583v-20.188h21.211v20.188zm17.305-35.188h-55.821c-.998 0-1.806-.809-1.806-1.806v-22.313c0-.998.809-1.806 1.806-1.806h55.821c.998 0 1.806.809 1.806 1.806v22.313c0 .997-.808 1.806-1.806 1.806zm-17.305-61.113v20.188h-21.211v-20.188c0-.873.71-1.583 1.583-1.583h18.044c.874 0 1.584.71 1.584 1.583z"/><path d="m472.792 125.866h-24.757c-4.142 0-7.5 3.358-7.5 7.5s3.358 7.5 7.5 7.5h24.757c12.67 0 22.979 10.308 22.979 22.979v104.523c0 2.792-2.271 5.063-5.063 5.063h-14.205c-4.142 0-7.5 3.358-7.5 7.5s3.358 7.5 7.5 7.5h2.447v176.025c0 7.289-5.93 13.218-13.218 13.218h-420.692c-7.289 0-13.218-5.93-13.218-13.218v-176.024h2.447c4.142 0 7.5-3.358 7.5-7.5s-3.358-7.5-7.5-7.5h-14.206c-2.792 0-5.063-2.271-5.063-5.063v-104.524c0-12.67 10.309-22.979 22.979-22.979h378.093c4.142 0 7.5-3.358 7.5-7.5s-3.358-7.5-7.5-7.5h-23.633v-15.81c0-8.324-6.772-15.097-15.096-15.097h-5.523v-31.55c0-24.986-20.328-45.314-45.314-45.314h-141.241c-24.986 0-45.314 20.328-45.314 45.314v31.551h-5.523c-8.324 0-15.096 6.772-15.096 15.097v15.81h-81.353c-20.942-.001-37.979 17.036-37.979 37.978v104.523c0 9.957 7.298 18.22 16.821 19.777v176.312c0 15.56 12.659 28.218 28.218 28.218h420.691c15.56 0 28.218-12.659 28.218-28.218v-176.312c9.523-1.557 16.821-9.82 16.821-19.777v-104.523c.002-20.942-17.036-37.979-37.977-37.979zm-95.353-15.809v15.81h-58.238v-15.81c0-.053.043-.097.096-.097h58.046c.053 0 .096.043.096.097zm-222.488-46.648c0-16.715 13.599-30.314 30.314-30.314h141.241c16.715 0 30.314 13.599 30.314 30.314v31.551h-17v-31.551c0-7.341-5.973-13.314-13.314-13.314h-80.279c-4.142 0-7.5 3.358-7.5 7.5s3.358 7.5 7.5 7.5h78.593v29.865h-5.523c-8.324 0-15.096 6.772-15.096 15.097v15.81h-96.631v-15.81c0-8.324-6.772-15.097-15.096-15.097h-5.523v-29.865h27.314c4.142 0 7.5-3.358 7.5-7.5s-3.358-7.5-7.5-7.5h-29c-7.341 0-13.314 5.973-13.314 13.314v31.551h-17zm-20.619 46.648c0-.053.043-.097.096-.097h58.046c.053 0 .096.043.096.097v15.81h-58.238z"/><path d="m349.569 280.932c0-4.142-3.358-7.5-7.5-7.5h-173.368c-4.142 0-7.5 3.358-7.5 7.5s3.358 7.5 7.5 7.5h173.368c4.142 0 7.5-3.358 7.5-7.5z"/><path d="m92.462 345.665h18.044c9.144 0 16.583-7.439 16.583-16.583v-20.188h4.776c7.904 0 14.335-6.431 14.335-14.335v-27.254c0-7.905-6.431-14.335-14.335-14.335h-4.776v-20.188c0-9.144-7.439-16.583-16.583-16.583h-18.044c-9.144 0-16.583 7.439-16.583 16.583v20.188h-4.776c-7.905 0-14.335 6.431-14.335 14.335v27.254c0 7.905 6.431 14.335 14.335 14.335h4.776v20.188c0 9.144 7.439 16.583 16.583 16.583zm19.628-16.583c0 .873-.71 1.583-1.583 1.583h-18.045c-.873 0-1.583-.71-1.583-1.583v-20.188h21.211zm-21.211-96.301c0-.873.71-1.583 1.583-1.583h18.044c.873 0 1.583.71 1.583 1.583v20.188h-21.21zm-17.475 35.188h56.162c.903 0 1.636.732 1.636 1.636v22.654c0 .903-.732 1.636-1.636 1.636h-56.162c-.903 0-1.636-.732-1.636-1.636v-22.654c0-.904.732-1.636 1.636-1.636z"/></g></g></svg>