<svg id="Capa_1" enable-background="new 0 0 512.137 512.137" height="512" viewBox="0 0 512.137 512.137" width="512" xmlns="http://www.w3.org/2000/svg"><g><g><path d="m202.511 449.231 11.086 22.139 20.212 28.45c2.147 3.022 5.625 4.818 9.332 4.818h25.854c3.707 0 7.185-1.795 9.332-4.818l20.212-28.45 9.456-22.139z" fill="#efe2dd"/><path d="m384.375 67.264h-20.86l-60.679-52.909c-5.069-4.42-11.567-6.855-18.292-6.855h-56.95c-6.725 0-13.223 2.435-18.292 6.855l-60.679 52.909h-20.86c-32.405 0-58.675 26.27-58.675 58.675v286.755c0 32.405 26.27 58.675 58.675 58.675h256.612c32.405 0 58.675-26.27 58.675-58.675v-286.755c0-32.406-26.27-58.675-58.675-58.675z" fill="#f9f3f1"/><g><path d="m126.694 437.707v-286.755c0-32.405 26.27-58.675 58.675-58.675h7.421c8.665 0 17.037-3.137 23.568-8.832l50.55-44.077c5.069-4.42 11.567-6.855 18.292-6.855h38.46l-20.825-18.158c-5.069-4.42-11.567-6.855-18.292-6.855h-56.95c-6.725 0-13.223 2.435-18.292 6.855l-60.679 52.909h-20.86c-32.405 0-58.675 26.27-58.675 58.675v286.755c0 32.405 26.27 58.675 58.675 58.675h9.561c-6.69-9.531-10.629-21.133-10.629-33.662z" fill="#f3eae6"/></g><g><path d="m395.687 266.566h-264.654l-31.945 46.015v100.11c0 15.81 12.86 28.68 28.67 28.68h256.62c15.81 0 28.67-12.87 28.67-28.68v-100.11z" fill="#f79595"/></g><path d="m126.694 437.707v-164.89l-27.605 39.764v100.11c0 15.494 12.353 28.156 27.728 28.656-.075-1.205-.123-2.416-.123-3.64z" fill="#f37c7c"/><path d="m413.049 137.376v175.205h-313.96v-175.205c0-5.945 4.82-10.765 10.765-10.765h292.43c5.945 0 10.765 4.819 10.765 10.765z" fill="#f3eae6"/><path d="m131.984 126.611h-22.13c-5.945 0-10.765 4.82-10.765 10.765v175.205h27.605v-161.629c0-8.687 1.902-16.924 5.29-24.341z" fill="#efe2dd"/><g><circle cx="256.569" cy="55.714" fill="#e1d3ce" r="15.464"/><circle cx="256.069" cy="291.447" fill="#f37c7c" r="118.248"/><path d="m308.438 270.321h-31.243v-31.244c0-2.892-2.345-5.237-5.237-5.237h-31.778c-2.893 0-5.237 2.345-5.237 5.237v31.244h-31.243c-2.892 0-5.237 2.345-5.237 5.237v31.778c0 2.892 2.345 5.237 5.237 5.237h31.243v31.243c0 2.892 2.345 5.237 5.237 5.237h31.777c2.893 0 5.237-2.345 5.237-5.237v-31.243h31.243c2.892 0 5.237-2.345 5.237-5.237v-31.778c.001-2.892-2.344-5.237-5.236-5.237z" fill="#faf7f7"/></g></g><g><path d="m384.375 59.764h-18.05l-58.56-51.062c-6.436-5.612-14.682-8.702-23.222-8.702h-56.949c-8.54 0-16.786 3.09-23.221 8.702l-58.562 51.062h-18.05c-36.489 0-66.175 29.686-66.175 66.175v286.755c0 36.489 29.686 66.175 66.175 66.175h81.963l17.969 25.292c3.547 4.994 9.321 7.975 15.447 7.975h25.854c6.126 0 11.9-2.981 15.446-7.974l17.97-25.293h81.963c36.489 0 66.175-29.686 66.175-66.175v-286.756c.002-36.488-29.683-66.174-66.173-66.174zm-112.163 435.713c-.738 1.04-1.94 1.661-3.217 1.661h-25.854c-1.276 0-2.479-.621-3.218-1.662l-11.798-16.606h55.886zm163.338-82.783c0 28.218-22.957 51.175-51.175 51.175h-256.613c-28.218 0-51.175-22.957-51.175-51.175v-286.755c0-28.218 22.957-51.175 51.175-51.175h17.773 3.087 59.316c4.143 0 7.5-3.358 7.5-7.5s-3.357-7.5-7.5-7.5h-39.303l45.596-39.757c3.703-3.229 8.449-5.007 13.363-5.007h56.949c4.914 0 9.66 1.778 13.363 5.007l60.68 52.909c1.365 1.191 3.116 1.847 4.929 1.847h20.86c28.218 0 51.175 22.957 51.175 51.175z"/><path d="m413.05 119.107h-31.104c-4.143 0-7.5 3.358-7.5 7.5s3.357 7.5 7.5 7.5h23.604v170.974h-24.475c.485-4.48.742-9.027.742-13.634 0-69.338-56.41-125.748-125.748-125.748-33.247 0-64.598 12.858-88.277 36.205-2.949 2.908-2.983 7.657-.075 10.606 2.909 2.95 7.657 2.981 10.606.075 20.855-20.563 48.466-31.887 77.746-31.887 61.066 0 110.748 49.681 110.748 110.748s-49.682 110.749-110.748 110.749-110.748-49.682-110.748-110.749c0-19.347 5.061-38.386 14.635-55.06 2.063-3.592.823-8.176-2.77-10.239-3.59-2.064-8.176-.823-10.238 2.769-10.878 18.943-16.627 40.566-16.627 62.53 0 4.607.256 9.154.742 13.634h-24.475v-170.973h243.396c4.143 0 7.5-3.358 7.5-7.5s-3.357-7.5-7.5-7.5h-250.897c-4.143 0-7.5 3.358-7.5 7.5v286.087c0 19.947 16.228 36.175 36.175 36.175h256.613c19.947 0 36.175-16.228 36.175-36.175v-31.679c0-4.142-3.357-7.5-7.5-7.5s-7.5 3.358-7.5 7.5v31.679c0 11.676-9.499 21.175-21.175 21.175h-256.613c-11.676 0-21.175-9.499-21.175-21.175v-92.613h27.025c12.995 55.588 62.966 97.114 122.456 97.114s109.461-41.527 122.456-97.114h27.025v28.972c0 4.142 3.357 7.5 7.5 7.5s7.5-3.358 7.5-7.5v-222.446c.001-4.142-3.356-7.5-7.499-7.5z"/><path d="m256.569 78.678c12.662 0 22.964-10.302 22.964-22.964s-10.302-22.964-22.964-22.964-22.964 10.302-22.964 22.964 10.301 22.964 22.964 22.964zm0-30.928c4.392 0 7.964 3.573 7.964 7.964s-3.572 7.964-7.964 7.964-7.964-3.573-7.964-7.964 3.572-7.964 7.964-7.964z"/><path d="m271.957 226.34h-31.777c-7.023 0-12.737 5.714-12.737 12.737v23.744h-23.743c-7.023 0-12.737 5.714-12.737 12.737v31.778c0 7.023 5.714 12.737 12.737 12.737h23.743v23.744c0 7.023 5.714 12.737 12.737 12.737h31.777c7.023 0 12.737-5.714 12.737-12.737v-23.744h23.743c7.023 0 12.737-5.714 12.737-12.737v-31.778c0-7.023-5.714-12.737-12.737-12.737h-23.743v-23.744c.001-7.023-5.713-12.737-12.737-12.737zm34.218 51.481v27.251h-28.98c-4.143 0-7.5 3.358-7.5 7.5v28.98h-27.252v-28.98c0-4.142-3.357-7.5-7.5-7.5h-28.98v-27.251h28.98c4.143 0 7.5-3.358 7.5-7.5v-28.981h27.252v28.981c0 4.142 3.357 7.5 7.5 7.5z"/></g></g></svg>