<svg id="Capa_1" enable-background="new 0 0 511.917 511.917" height="512" viewBox="0 0 511.917 511.917" width="512" xmlns="http://www.w3.org/2000/svg"><g><g><path d="m102.45 277.093h89.719 176.599v-186.786h-263.889z" fill="#efe2dd"/><g><path d="m102.45 7.5h307.017c49.55 0 89.719 60.35 89.719 134.796v355.184c0 3.831-3.105 6.936-6.936 6.936h-26.726l-14.381-14.381c-.919-.919-2.409-.919-3.329 0l-13.536 13.536h-70.091l-14.119-14.119c-.83-.83-2.176-.83-3.007 0l-13.401 13.401c-.397.397-1.04.397-1.436 0l-16.523-16.523c-.956-.956-2.518-.914-3.421.092l-15.884 17.695-97.271.279c-3.839.011-6.956-3.098-6.956-6.936v-355.164l-89.719-63.814z" fill="#f9f3f1"/><path d="m192.169 142.296v355.164c0 2.644 1.48 4.941 3.655 6.112h2.475l59.553.656c3.067-.717 5.354-3.462 5.354-6.748v-355.184c0-74.446-40.169-134.796-89.719-134.796h-71.037v70.981z" fill="#f3eae6"/><g id="XMLID_384_"><g><path d="m102.449 7.504c49.55 0 89.72 60.35 89.72 134.79 0 74.45-40.17 134.8-89.72 134.8s-89.72-60.35-89.72-134.8c0-74.44 40.17-134.79 89.72-134.79z" fill="#f9f3f1"/></g></g><path d="m53.182 142.294c0-63.991 29.693-117.57 69.503-131.351-6.501-2.25-13.28-3.439-20.236-3.439-49.55 0-89.72 60.35-89.72 134.79 0 74.45 40.17 134.8 89.72 134.8 6.956 0 13.735-1.193 20.236-3.443-39.809-13.781-69.503-67.357-69.503-131.357z" fill="#f3eae6"/><ellipse cx="102.45" cy="142.296" fill="#fdd79b" rx="42.939" ry="72.586"/></g></g><g><path d="m52.607 129.897c-.395 4.123 2.627 7.786 6.751 8.181 4.122.396 7.786-2.627 8.181-6.751 2.955-30.852 17.963-54.117 34.912-54.117 19.21 0 35.439 29.806 35.439 65.086s-16.229 65.086-35.439 65.086c-15.018 0-29.248-19.378-33.836-46.078-.701-4.082-4.579-6.822-8.662-6.122-4.083.702-6.823 4.58-6.122 8.662 6.017 35.013 25.556 58.538 48.62 58.538 28.284 0 50.439-35.178 50.439-80.086s-22.156-80.086-50.44-80.086c-25.126 0-46.087 28.467-49.843 67.687z"/><path d="m479.151 42.826c-18.381-27.617-43.128-42.826-69.684-42.826 0 0-305.482 0-307.017 0-26.556 0-51.303 15.209-69.684 42.825-17.756 26.677-27.535 62.004-27.535 99.471s9.779 72.794 27.535 99.471c18.381 27.616 43.128 42.825 69.684 42.825h82.219v140.516c0 4.142 3.358 7.5 7.5 7.5s7.5-3.358 7.5-7.5v-91.918h9.583c4.142 0 7.5-3.358 7.5-7.5s-3.358-7.5-7.5-7.5h-9.583v-175.894c0-37.468-9.779-72.794-27.535-99.471-7.65-11.495-16.407-20.831-25.935-27.825h263.268c21.374 0 41.687 12.833 57.197 36.137 16.135 24.242 25.021 56.617 25.021 91.16v31.816c0 4.142 3.358 7.5 7.5 7.5s7.5-3.358 7.5-7.5v-31.816c.001-37.468-9.778-72.795-27.534-99.471zm-294.482 226.767h-38.471c9.528-6.994 18.285-16.33 25.936-27.825 4.767-7.162 8.953-14.952 12.535-23.234zm-25.021-218.456c16.135 24.242 25.021 56.617 25.021 91.16s-8.886 66.918-25.021 91.16c-15.51 23.303-35.824 36.136-57.198 36.136s-41.687-12.833-57.197-36.136c-16.135-24.243-25.021-56.617-25.021-91.16s8.886-66.917 25.021-91.16c15.51-23.304 35.823-36.137 57.197-36.137s41.687 12.833 57.198 36.137z"/><path d="m499.186 198.575c-4.142 0-7.5 3.358-7.5 7.5v112.115h-9.931c-4.142 0-7.5 3.358-7.5 7.5s3.358 7.5 7.5 7.5h9.931v163.727h-23.055l-13.848-13.848c-2.928-2.929-7.677-2.929-10.606 0l-13.004 13.003h-63.878l-13.426-13.426c-2.929-2.929-7.678-2.929-10.606 0l-10.319 10.319-13.697-13.697c-1.456-1.456-3.431-2.251-5.505-2.194-2.058.055-4.003.955-5.379 2.487l-15.32 17.066-93.372.268v-39.825c0-4.142-3.358-7.5-7.5-7.5s-7.5 3.358-7.5 7.5v40.39c0 3.864 1.507 7.495 4.243 10.223 2.736 2.729 6.407 4.236 10.234 4.213l97.271-.279c2.122-.006 4.142-.911 5.56-2.49l12.259-13.656 13.404 13.403c2.929 2.929 7.678 2.929 10.606 0l10.319-10.319 10.319 10.319c1.406 1.407 3.314 2.197 5.303 2.197h70.091c1.989 0 3.896-.79 5.303-2.197l9.897-9.897 10.742 10.742c1.406 1.407 3.314 2.197 5.303 2.197h26.726c7.96 0 14.436-6.476 14.436-14.437v-291.404c-.001-4.142-3.359-7.5-7.501-7.5z"/><path d="m257.148 333.19c4.142 0 7.5-3.358 7.5-7.5s-3.358-7.5-7.5-7.5h-14.868c-4.142 0-7.5 3.358-7.5 7.5s3.358 7.5 7.5 7.5z"/><path d="m305.043 333.19c4.142 0 7.5-3.358 7.5-7.5s-3.358-7.5-7.5-7.5h-14.868c-4.142 0-7.5 3.358-7.5 7.5s3.358 7.5 7.5 7.5z"/><path d="m352.938 333.19c4.142 0 7.5-3.358 7.5-7.5s-3.358-7.5-7.5-7.5h-14.868c-4.142 0-7.5 3.358-7.5 7.5s3.358 7.5 7.5 7.5z"/><path d="m400.833 333.19c4.142 0 7.5-3.358 7.5-7.5s-3.358-7.5-7.5-7.5h-14.868c-4.142 0-7.5 3.358-7.5 7.5s3.358 7.5 7.5 7.5z"/><path d="m448.728 333.19c4.142 0 7.5-3.358 7.5-7.5s-3.358-7.5-7.5-7.5h-14.868c-4.142 0-7.5 3.358-7.5 7.5s3.358 7.5 7.5 7.5z"/></g></g></svg>