<svg id="Capa_1" enable-background="new 0 0 513.637 513.637" height="512" viewBox="0 0 513.637 513.637" width="512" xmlns="http://www.w3.org/2000/svg"><g><g><g><g id="XMLID_385_"><g><path d="m231.668 452.025c13.55 1.3 24.15 12.72 24.15 26.61 0 7.39-3 14.08-7.84 18.92s-11.52 7.83-18.91 7.83h-180.13c-14.78 0-26.75-11.97-26.75-26.75 0-7.38 2.99-14.07 7.83-18.91 4.27-4.27 9.97-7.09 16.32-7.7.86-.09 1.72-.13 2.6-.13h180.13c.88 0 1.74.04 2.6.13z" fill="#d5e3f4"/><path d="m249.458 67.155c-4.55-4.56-10.84-7.37-17.78-7.37-13.89 0-25.14 11.26-25.14 25.15v-28.51c0-6.94-2.82-13.23-7.37-17.77-4.55-4.56-10.83-7.37-17.78-7.37-13.89 0-25.15 11.26-25.15 25.14v-23.03c0-6.94-2.81-13.23-7.36-17.78s-10.84-7.36-17.78-7.36c-13.89 0-25.15 11.25-25.15 25.14v29.76c0-6.94-2.81-13.22-7.37-17.78-4.54-4.54-10.83-7.36-17.77-7.36-13.89 0-25.15 11.26-25.15 25.14v96.49l-.063 27.957 23.113 78.162 6.615 124.03-4.61 81.1h150.965v-98.72l9.72-14.16c10.05-14.65 15.43-32 15.43-49.77v-132.38-90.93c0-6.939-2.81-13.228-7.37-17.779z" fill="#a7eedc"/></g><g><path d="m129.791 313.51c8.398 0 15.207-6.808 15.207-15.207 0-32.97-20.28-62.55-51.03-74.44l-12.637-4.888c-1.514-.586-2.513-2.042-2.513-3.666v-49.366c0-5.64-1.77-10.87-4.79-15.17-4.161-5.946-10.71-10.1-18.26-11.076v24.454c-4.78-6.83-12.71-11.3-21.69-11.3-1.718 0-3.395.169-5.021.481-2.034 3.75-3.189 8.046-3.189 12.611v116.67c0 10.858 2.765 21.477 7.945 30.897z" fill="#86e8d0"/><g id="XMLID_387_"><g><path d="m126.628 307.175v171.47h-80.54l.25-26.62-.01-.13v-88.25l-25.47-32.98c-8.66-11.22-13.36-25-13.36-39.18v-116.67c0-7.31 2.96-13.93 7.75-18.72s11.41-7.75 18.72-7.75c8.98 0 16.91 4.47 21.69 11.3 3.02 4.3 4.79 9.53 4.79 15.17v52.06l15.15 5.86c30.75 11.89 51.03 41.47 51.03 74.44z" fill="#a7eedc"/></g></g><path d="m231.678 432.048c-4.704-.073-112.529-.09-120.812-.089-16.695.002-30.222-13.531-30.222-30.226v-35.831c0-8.245-2.734-16.258-7.774-22.784l-17.696-22.914c-8.66-11.22-13.36-25-13.36-39.18v-116.67c0-4.885 1.327-9.458 3.633-13.386-3.473-1.675-7.363-2.624-11.479-2.624-7.31 0-13.93 2.96-18.72 7.75s-7.75 11.41-7.75 18.72v116.67c0 14.18 4.7 27.96 13.36 39.18l25.47 32.98v88.25l.01.13-.25 26.62h80.54v-7.75h105.05z" fill="#86e8d0"/><path d="m231.668 452.025c13.55 1.3 24.15 12.72 24.15 26.61 0 7.39-3 14.08-7.84 18.92s-11.52 7.83-18.91 7.83h-180.13c-14.78 0-26.75-11.97-26.75-26.75 0-7.38 2.99-14.07 7.83-18.91 4.27-4.27 9.97-7.09 16.32-7.7.86-.09 184.47-.09 185.33 0z" fill="#a7eedc"/></g></g><g id="XMLID_397_"><g><path d="m407.688 63.155c0-6.94 2.81-13.22 7.37-17.78 4.54-4.54 10.83-7.36 17.77-7.36 13.89 0 25.15 11.26 25.15 25.14v96.49 329.21h-173.41l-2.61-36.96v-79.72l-9.72-14.16c-10.05-14.65-15.43-32-15.43-49.77v-132.38-90.93c0-6.94 2.81-13.23 7.37-17.78 4.55-4.56 10.84-7.37 17.78-7.37 13.89 0 25.14 11.26 25.14 25.15v-28.51c0-6.94 2.82-13.23 7.37-17.77 4.55-4.56 10.83-7.37 17.78-7.37 13.89 0 25.15 11.26 25.15 25.14v-23.03c0-6.94 2.81-13.23 7.36-17.78s10.84-7.36 17.78-7.36c13.89 0 25.15 11.25 25.15 25.14z" fill="#a7eedc"/></g></g></g><g fill="#86e8d0"><path d="m55.658 63.155-.063 97.795h23.113v-122.841c-12.906 1.068-23.05 11.874-23.05 25.046z"/><g><path d="m131.098 8.255c-13.89 0-25.15 11.25-25.15 25.14v29.76c0-.153-.009-.304-.012-.457v125.252h1.05c14.572 0 26.385-11.813 26.385-26.385v-153.202c-.748-.068-1.506-.108-2.273-.108z"/><path d="m334.618 157.625v-126.225c-.78-.073-1.57-.115-2.369-.115-6.95 0-13.23 2.81-17.78 7.37-4.082 4.073-6.765 9.557-7.274 15.654l-.012 129.701h1.05c14.572 0 26.385-11.813 26.385-26.385z"/><path d="m384.829 157.625v-149.261c-.755-.068-1.518-.108-2.29-.108-6.94 0-13.23 2.81-17.78 7.36-4.493 4.493-7.284 10.684-7.353 17.521l-.012 150.873h1.05c14.572 0 26.385-11.813 26.385-26.385z"/><path d="m435.176 157.378v-119.25c-.773-.072-1.555-.113-2.347-.113-6.94 0-13.23 2.82-17.77 7.36-4.218 4.218-6.934 9.909-7.318 16.231v122.156h1.05c14.572.001 26.385-11.812 26.385-26.384z"/><path d="m181.388 31.285c-13.455 0-24.443 10.566-25.117 23.845v132.82h1.313c14.572 0 26.385-11.813 26.385-26.385l.004-130.141c-.848-.087-1.713-.139-2.585-.139z"/><path d="m231.678 59.785c-12.883 0-23.488 9.688-24.959 22.176v105.989c14.572 0 26.385-11.813 26.385-26.385v-101.737c-.472-.026-.947-.043-1.426-.043z"/></g><path d="m441.235 158.155v42.162c0 5.965-3.668 11.316-9.231 13.469l-5.919 2.289c-30.75 11.89-51.03 41.47-51.03 74.44 0 12.037 9.758 21.794 21.794 21.794h61.129v-152.663-26.098c-9.802 3.878-16.743 13.427-16.743 24.607z"/></g><g id="XMLID_389_"><g><path d="m506.138 174.815v116.67c0 14.18-4.7 27.96-13.36 39.18l-25.47 32.98-.6 115.03h-79.7v-171.5c0-32.97 20.28-62.55 51.03-74.44l15.15-5.86v-52.06c0-14.62 11.86-26.47 26.48-26.47 7.31 0 13.93 2.96 18.72 7.75s7.75 11.41 7.75 18.72z" fill="#a7eedc"/></g></g><path d="m466.935 431.823-125.428.067c-15.48 0-28.029-12.549-28.029-28.029v-28.724c0-6.224-1.885-12.302-5.408-17.434l-4.312-6.282c-10.05-14.65-15.43-32-15.43-49.77v-132.38-90.93c0-5.897 2.037-11.319 5.445-15.608-3.522-1.879-7.543-2.948-11.815-2.948-6.94 0-13.23 2.81-17.78 7.37-4.56 4.55-7.37 10.84-7.37 17.78v90.93 132.38c0 17.77 5.38 35.12 15.43 49.77l9.72 14.16v79.72l2.61 36.96 182.037-.044z" fill="#86e8d0"/><path d="m284.566 505.386h180.137c14.772 0 26.747-11.975 26.747-26.747 0-14.772-11.975-26.747-26.747-26.747h-180.137c-14.772 0-26.747 11.975-26.747 26.747-.001 14.771 11.975 26.747 26.747 26.747z" fill="#a7eedc"/></g><path d="m498.711 335.247c9.625-12.469 14.925-28.01 14.925-43.761v-116.67c0-18.732-15.24-33.972-33.972-33.972-5.063 0-9.867 1.121-14.188 3.116v-30.123c0-4.142-3.358-7.5-7.5-7.5s-7.5 3.358-7.5 7.5v43.621c-3.035 5.084-4.785 11.02-4.785 17.358v46.92l-10.357 4.005c-16.507 6.382-30.521 17.472-40.527 32.069s-15.295 31.667-15.295 49.365c0 4.142 3.358 7.5 7.5 7.5s7.5-3.358 7.5-7.5c0-29.648 18.579-56.751 46.232-67.444l15.153-5.859c2.89-1.117 4.795-3.897 4.795-6.995v-52.062c0-10.461 8.511-18.972 18.972-18.972s18.972 8.511 18.972 18.972v116.669c0 12.452-4.19 24.738-11.799 34.595l-25.463 32.986c-1.013 1.313-1.563 2.925-1.563 4.583v80.741h-26.325c-4.142 0-7.5 3.358-7.5 7.5s3.358 7.5 7.5 7.5h31.217c10.613 0 19.248 8.634 19.248 19.248s-8.634 19.248-19.248 19.248h-180.137c-10.613 0-19.248-8.634-19.248-19.248s8.634-19.248 19.248-19.248h116.958c4.142 0 7.5-3.358 7.5-7.5s-3.358-7.5-7.5-7.5h-112.066v-72.212c0-1.515-.458-2.994-1.315-4.243l-9.716-14.163c-9.169-13.366-14.041-28.984-14.108-45.186 0-.114.006-.226.006-.34v-223.31c0-.056-.004-.111-.004-.167.091-9.652 7.964-17.479 17.637-17.479 9.729 0 17.646 7.916 17.646 17.646v90.929c0 4.142 3.358 7.5 7.5 7.5s7.5-3.358 7.5-7.5v-90.929-28.506c0-9.73 7.916-17.646 17.646-17.646s17.646 7.916 17.646 17.646v119.435c0 4.142 3.358 7.5 7.5 7.5s7.5-3.358 7.5-7.5v-142.467c0-9.73 7.916-17.646 17.646-17.646s17.646 7.916 17.646 17.646v142.467c0 4.142 3.358 7.5 7.5 7.5s7.5-3.358 7.5-7.5v-112.705c0-9.73 7.916-17.646 17.646-17.646s17.646 7.916 17.646 17.646v18.716c0 4.142 3.358 7.5 7.5 7.5s7.5-3.358 7.5-7.5v-18.716c0-18.001-14.645-32.646-32.646-32.646-6.498 0-12.553 1.916-17.646 5.202v-2.318c0-18.001-14.645-32.646-32.646-32.646-16.567 0-30.281 12.407-32.363 28.416-5.15-3.398-11.31-5.383-17.929-5.383-18.001 0-32.646 14.645-32.646 32.646v1.062c-5.092-3.286-11.148-5.202-17.646-5.202-10.102 0-19.146 4.613-25.139 11.843-5.993-7.229-15.037-11.843-25.139-11.843-6.498 0-12.553 1.916-17.646 5.202v-1.062c0-18.001-14.645-32.646-32.646-32.646-6.618 0-12.779 1.985-17.929 5.383-2.082-16.009-15.796-28.416-32.363-28.416-18.001 0-32.646 14.645-32.646 32.646v2.318c-5.092-3.286-11.148-5.202-17.646-5.202-18.001 0-32.646 14.645-32.646 32.646v80.802c-4.321-1.995-9.124-3.116-14.188-3.116-18.73 0-33.97 15.239-33.97 33.971v116.669c0 15.751 5.301 31.292 14.925 43.761l23.9 30.961v22.565c0 4.142 3.358 7.5 7.5 7.5s7.5-3.358 7.5-7.5v-25.122c0-1.658-.55-3.27-1.563-4.583l-25.463-32.986c-7.609-9.857-11.799-22.143-11.799-34.596v-116.669c0-10.461 8.511-18.972 18.972-18.972s18.972 8.511 18.972 18.972v52.062c0 3.098 1.905 5.878 4.795 6.995l15.153 5.859c27.653 10.692 46.232 37.796 46.232 67.444 0 4.142 3.358 7.5 7.5 7.5s7.5-3.358 7.5-7.5c0-17.698-5.289-34.768-15.295-49.365s-24.021-25.687-40.527-32.069l-10.358-4.005v-46.92c0-6.339-1.75-12.274-4.785-17.358v-94.3c0-9.73 7.916-17.646 17.646-17.646s17.646 7.916 17.646 17.646v112.705c0 4.142 3.358 7.5 7.5 7.5s7.5-3.358 7.5-7.5v-142.467c0-9.73 7.916-17.646 17.646-17.646s17.646 7.916 17.646 17.646v142.467c0 4.142 3.358 7.5 7.5 7.5s7.5-3.358 7.5-7.5v-119.435c0-9.73 7.916-17.646 17.646-17.646s17.646 7.916 17.646 17.646v119.435c0 4.142 3.358 7.5 7.5 7.5s7.5-3.358 7.5-7.5v-90.929c0-9.73 7.916-17.646 17.646-17.646 9.673 0 17.546 7.826 17.637 17.479 0 .056-.004.111-.004.167v223.313c0 .114.006.226.006.34-.067 16.202-4.939 31.819-14.108 45.186l-9.716 14.163c-.857 1.249-1.315 2.728-1.315 4.243v72.212h-170.356v-23.655c0-4.142-3.358-7.5-7.5-7.5s-7.5 3.358-7.5 7.5v25.179c-13.965 4.323-24.139 17.357-24.139 32.724 0 18.884 15.363 34.248 34.248 34.248h180.137c11.406 0 21.52-5.609 27.748-14.209 6.228 8.6 16.342 14.209 27.748 14.209h180.137c18.884 0 34.248-15.363 34.248-34.248 0-15.367-10.174-28.401-24.139-32.724v-79.707zm-251.131 27.011c3.673-5.354 6.751-11.018 9.239-16.904 2.488 5.887 5.566 11.55 9.239 16.904l8.4 12.246v71.411c-7.169 2.219-13.332 6.738-17.639 12.685-4.307-5.948-10.47-10.466-17.639-12.685v-71.411zm-18.509 135.628h-180.137c-10.613 0-19.248-8.634-19.248-19.248s8.634-19.248 19.248-19.248h180.137c10.613 0 19.248 8.634 19.248 19.248s-8.635 19.248-19.248 19.248z"/></g></svg>