<svg id="Capa_1" enable-background="new 0 0 513.186 513.186" height="512" viewBox="0 0 513.186 513.186" width="512" xmlns="http://www.w3.org/2000/svg"><g><g><path d="m353.971 56.157v37.657l3.227 11.832c.432 1.584-1.112 2.991-2.649 2.414l-12.676-4.757c-10.085-3.785-16.766-13.427-16.766-24.199v-22.947-31.092h28.026z" fill="#efe2dd"/><g id="XMLID_404_"><g><path d="m373.127 16.025v31.61c0 4.705-3.815 8.52-8.52 8.52h-65.6l-11.25 19.64v24.87l1.23 26.58h-76.25v-27.29-15.28c0-3.728-3.022-6.75-6.75-6.75h-42.86c-3.535 0-6.4-2.865-6.4-6.4v-14.8c0-27.19 22.04-49.23 49.22-49.23h158.65c4.711 0 8.53 3.819 8.53 8.53z" fill="#f9f3f1"/></g></g><g><path d="m242.635 108.192v-27.29-2.565c0-10.75-8.715-19.465-19.465-19.465h-15.765c-11.476 0-20.78-9.303-20.78-20.78v-.42c0-10.939 3.573-21.041 9.607-29.213-22.527 4.513-39.504 24.404-39.504 48.266v14.8c0 3.535 2.865 6.4 6.4 6.4h42.86c3.728 0 6.75 3.022 6.75 6.75v15.28 27.29h76.25l-.882-19.053z" fill="#f3eae6"/></g><path d="m299.006 113.939c0-7.726-6.263-13.989-13.989-13.989h-72.278c-7.726 0-13.989 6.263-13.989 13.989v71.555h100.256z" fill="#d4f2f6"/><g><path d="m240.939 123.185c-5.106 0-9.246-4.139-9.246-9.246 0-7.726 6.263-13.989 13.989-13.989h-32.944c-7.726 0-13.989 6.263-13.989 13.989v71.556h28.55 4.394 67.312v-62.31z" fill="#a6e7f0"/><path d="m354.939 319.556 24.068-29.781v-26.98c0-4.34-1.29-8.58-3.7-12.18l-75.22-112.43h-101.34l-55.08 64.26c-6.12 7.14-9.49 16.24-9.49 25.65v61.68l23.083 32.16v100.038l-23.083 17.032v33.35c0 18.41 14.93 33.33 33.33 33.33h178.17c18.4 0 33.33-14.92 33.33-33.33v-33.35l-24.068-10.304z" fill="#f9f3f1"/><path d="m198.75 472.355v-244.26c0-9.41 3.37-18.51 9.49-25.65l55.08-64.26h-64.572l-55.08 64.26c-6.12 7.14-9.49 16.24-9.49 25.65v61.68l23.083 32.16v100.038l-23.083 17.032v33.35c0 18.41 14.93 33.33 33.33 33.33h64.572c-18.401 0-33.33-14.92-33.33-33.33z" fill="#f3eae6"/><g id="XMLID_407_"><g><path d="m373.127 16.025v31.61c0 4.71-3.82 8.52-8.53 8.52h-24.93v-2.07-44.88-1.71h24.93c4.71 0 8.53 3.82 8.53 8.53z" fill="#f3eae6"/></g></g><g><g id="XMLID_402_"><g><path d="m379.007 289.775v149.23h-1-242.83-1v-149.23h1 242.83z" fill="#d4f2f6"/></g></g></g><circle cx="256.593" cy="364.391" fill="#a6e7f0" r="87.8"/><path d="m206.543 364.391c0-42.01 29.534-77.13 68.952-85.767-6.081-1.332-12.423-2.033-18.903-2.033-48.491 0-87.8 39.309-87.8 87.8s39.309 87.8 87.8 87.8c6.481 0 12.846-.713 18.927-2.045-39.417-8.637-68.976-43.745-68.976-85.755z" fill="#6bd9e7"/><path d="m297.958 345.804h-22.78v-22.78c0-1.916-1.553-3.468-3.468-3.468h-30.236c-1.916 0-3.468 1.553-3.468 3.468v22.78h-22.78c-1.916 0-3.468 1.553-3.468 3.468v30.236c0 1.916 1.553 3.469 3.468 3.469h22.78v22.78c0 1.916 1.553 3.468 3.468 3.468h30.236c1.916 0 3.468-1.553 3.468-3.468v-22.78h22.78c1.916 0 3.468-1.553 3.468-3.469v-30.236c.001-1.915-1.552-3.468-3.468-3.468z" fill="#faf7f7"/></g></g><g><path d="m381.539 246.441-38.222-57.128c-2.303-3.443-6.96-4.366-10.404-2.063-3.442 2.303-4.366 6.961-2.063 10.404l38.221 57.128c1.592 2.379 2.434 5.15 2.434 8.011v19.48h-66.607c-14.174-8.37-30.687-13.181-48.306-13.181s-34.132 4.812-48.306 13.181h-66.606v-54.181c0-7.61 2.728-14.983 7.68-20.762l52.838-61.645h16.62c4.142 0 7.5-3.358 7.5-7.5s-3.358-7.5-7.5-7.5h-12.57v-16.745c0-3.578 2.911-6.489 6.489-6.489h72.278c3.578 0 6.488 2.911 6.488 6.489v16.745h-40.724c-4.142 0-7.5 3.358-7.5 7.5s3.358 7.5 7.5 7.5h45.3l16.972 25.367c1.446 2.162 3.821 3.331 6.24 3.331 1.434 0 2.883-.411 4.164-1.268 3.442-2.303 4.366-6.961 2.063-10.404l-19.015-28.42v-20.351c0-8.142-4.552-15.24-11.243-18.885v-17.268l8.091-14.129h14.255v15.447c0 13.819 8.692 26.366 21.63 31.221l12.677 4.757c1.096.411 2.231.612 3.356.612 2.325 0 4.606-.858 6.395-2.489 2.652-2.418 3.713-6.072 2.768-9.532l-2.962-10.863v-29.154h3.129c8.836 0 16.025-7.189 16.025-16.025v-31.607c.001-8.836-7.188-16.025-16.024-16.025h-158.648c-31.277 0-56.724 25.446-56.724 56.723v14.807c0 7.662 6.233 13.895 13.895 13.895h42.115v8.403c-8.156 3.052-13.989 10.904-13.989 20.112v21.471l-53.277 62.157c-7.282 8.495-11.292 19.335-11.292 30.523v158.928c0 4.142 3.358 7.5 7.5 7.5s7.5-3.358 7.5-7.5v-89.747h47.325c-17.119 17.238-27.713 40.963-27.713 67.119s10.594 49.881 27.713 67.119h-47.325v-12.53c0-4.142-3.358-7.5-7.5-7.5s-7.5 3.358-7.5 7.5v53.374c0 22.514 18.317 40.831 40.831 40.831h178.162c22.515 0 40.832-18.317 40.832-40.831v-209.562c0-5.841-1.717-11.495-4.966-16.351zm-34.803-150.653.403 1.481-2.631-.987c-7.118-2.671-11.9-9.574-11.9-17.177v-15.448h13.863v30.157c0 .667.089 1.331.265 1.974zm18.889-79.763v31.606c0 .565-.46 1.025-1.025 1.025h-17.43v-33.656h17.43c.565 0 1.025.46 1.025 1.025zm-201.396 54.4v-13.702c0-23.006 18.717-41.723 41.724-41.723h126.217v33.657h-33.165c-2.689 0-5.172 1.439-6.509 3.773l-11.243 19.634c-.649 1.135-.991 2.419-.991 3.727v16.659h-60.023v-14.525c0-4.142-3.358-7.5-7.5-7.5zm207.276 361.084h-47.325c17.119-17.238 27.713-40.963 27.713-67.119s-10.594-49.881-27.713-67.119h47.325zm-114.912-147.418c44.278 0 80.3 36.022 80.3 80.3s-36.022 80.3-80.3 80.3c-44.277 0-80.3-36.022-80.3-80.3s36.022-80.3 80.3-80.3zm89.08 214.095h-178.162c-14.243 0-25.831-11.588-25.831-25.831v-25.845h66.607c14.174 8.37 30.687 13.181 48.306 13.181s34.132-4.812 48.306-13.181h66.607v25.845c-.001 14.243-11.589 25.831-25.833 25.831z"/><path d="m215.227 390.477h15.28v15.28c0 6.048 4.92 10.968 10.968 10.968h30.235c6.048 0 10.969-4.92 10.969-10.968v-15.28h15.279c6.048 0 10.969-4.92 10.969-10.969v-30.235c0-6.048-4.921-10.968-10.969-10.968h-15.279v-15.28c0-6.048-4.921-10.968-10.969-10.968h-30.235c-6.048 0-10.968 4.92-10.968 10.968v15.28h-15.28c-6.048 0-10.968 4.92-10.968 10.968v30.235c0 6.049 4.92 10.969 10.968 10.969zm4.032-37.172h18.748c4.142 0 7.5-3.358 7.5-7.5v-18.748h22.172v18.748c0 4.142 3.357 7.5 7.5 7.5h18.748v22.172h-18.748c-4.143 0-7.5 3.358-7.5 7.5v18.748h-22.172v-18.748c0-4.142-3.358-7.5-7.5-7.5h-18.748z"/></g></g></svg>