<svg id="Capa_1" enable-background="new 0 0 511.618 511.618" height="512" viewBox="0 0 511.618 511.618" width="512" xmlns="http://www.w3.org/2000/svg"><g><g><circle cx="237.477" cy="273.892" fill="#b3e5ee" r="229.976"/><path d="m86.975 273.892c0-113.46 82.194-207.725 190.267-226.551-12.909-2.249-26.213-3.425-39.765-3.425-127.013-.001-229.977 102.963-229.977 229.976s102.964 229.976 229.976 229.976c13.553 0 26.882-1.181 39.791-3.43-108.072-18.826-190.292-113.087-190.292-226.546z" fill="#86d7e5"/><path d="m329.791 63.212-44.979 72.497c-8.425 13.577-8.832 30.685-1.063 44.647 7.769 13.963 22.521 22.637 38.499 22.637h134.052c-20.294-62.675-66.756-113.561-126.509-139.781z" fill="#86d7e5"/><circle cx="237.477" cy="273.891" fill="#d9f1f5" r="193.976"/><path d="m181.245 88.224c-79.608 24.172-137.745 98.267-137.745 185.667 0 87.415 58.159 161.521 137.788 185.681-57.152-41.84-94.313-109.436-94.313-185.681 0-76.234 37.137-143.825 94.27-185.667z" fill="#b3e5ee"/><path d="m310.553 94.219-25.742 41.49c-8.425 13.577-8.832 30.685-1.063 44.647 7.769 13.963 22.521 22.637 38.499 22.637h95.789c-19.423-49.294-58.482-88.772-107.483-108.774z" fill="#b3e5ee"/><circle cx="184.123" cy="170.836" fill="#9de5d1" r="19.229"/><circle cx="325.952" cy="350.372" fill="#9de5d1" r="24.043"/><path d="m173.393 398.292-52.749-52.749c-9.199-9.199-9.199-24.113 0-33.312 9.199-9.199 24.113-9.199 33.312 0l52.749 52.749c9.199 9.199 9.199 24.113 0 33.312-9.198 9.199-24.113 9.199-33.312 0z" fill="#ea9a97"/><circle cx="374.679" cy="265.434" fill="#ea9a97" r="14.81"/><path d="m479.999 182.992h-157.752c-18.859 0-30.384-20.714-20.441-36.739l78.876-127.13c9.409-15.165 31.474-15.165 40.883 0l78.876 127.13c9.942 16.026-1.583 36.739-20.442 36.739z" fill="#fcf0b6"/><path d="m341.263 146.253 78.876-127.13c.228-.368.47-.719.713-1.069-9.765-14.079-30.99-13.728-40.17 1.069l-78.876 127.13c-9.943 16.025 1.582 36.739 20.441 36.739h39.458c-18.86 0-30.385-20.713-20.442-36.739z" fill="#fbe98c"/><path d="m289.912 242.615-23.03 26.526c-5.341 6.152-14.658 6.809-20.81 1.468-6.152-5.341-6.809-14.658-1.468-20.81l23.03-26.526c5.341-6.152 14.658-6.809 20.81-1.468 6.152 5.341 6.809 14.658 1.468 20.81z" fill="#ea9a97"/></g><g><path d="m457.317 205.759c-3.995 1.095-6.347 5.22-5.252 9.215 5.234 19.103 7.888 38.925 7.888 58.917 0 59.426-23.142 115.294-65.162 157.314-42.02 42.021-97.889 65.162-157.314 65.162s-115.295-23.142-157.314-65.162c-42.021-42.019-65.163-97.887-65.163-157.313s23.142-115.294 65.162-157.315c42.02-42.02 97.889-65.162 157.314-65.162 27.658 0 54.653 5.021 80.238 14.923 3.859 1.496 8.206-.424 9.701-4.287s-.424-8.206-4.287-9.701c-27.318-10.574-56.136-15.935-85.652-15.935-63.433 0-123.068 24.702-167.921 69.555-44.853 44.854-69.555 104.489-69.555 167.922 0 63.432 24.702 123.068 69.556 167.921 44.853 44.853 104.488 69.555 167.921 69.555s123.068-24.702 167.921-69.555c44.854-44.854 69.556-104.489 69.556-167.921 0-21.331-2.833-42.487-8.421-62.881-1.095-3.994-5.217-6.345-9.216-5.252z"/><path d="m237.477 460.368c-102.824 0-186.477-83.653-186.477-186.476 0-35.521 10.075-70.094 29.137-99.982 2.228-3.492 1.202-8.129-2.29-10.356-3.494-2.229-8.13-1.202-10.356 2.291-20.602 32.301-31.491 69.663-31.491 108.047 0 111.094 90.382 201.476 201.477 201.476s201.477-90.382 201.477-201.476c0-21.573-3.433-42.857-10.202-63.261-1.304-3.93-5.546-6.06-9.479-4.757-3.932 1.305-6.062 5.549-4.757 9.48 6.263 18.878 9.438 38.573 9.438 58.538-.001 102.823-83.654 186.476-186.477 186.476z"/><path d="m308.097 93.091c1.36-3.912-.708-8.187-4.62-9.547-21.228-7.384-43.434-11.128-66-11.128-57.009 0-111.634 24.409-149.869 66.968-2.769 3.081-2.515 7.823.566 10.591 1.434 1.287 3.225 1.921 5.01 1.921 2.055 0 4.102-.839 5.582-2.488 35.395-39.397 85.952-61.993 138.711-61.993 20.885 0 41.433 3.464 61.072 10.295 3.912 1.362 8.187-.706 9.548-4.619z"/><path d="m153.47 163.336c-4.143 0-7.5 3.358-7.5 7.5s3.357 7.5 7.5 7.5h5.003c.548 1.87 1.29 3.656 2.211 5.333l-3.54 3.54c-2.929 2.929-2.929 7.678 0 10.606 1.465 1.464 3.385 2.197 5.304 2.197s3.839-.732 5.304-2.197l3.539-3.539c1.676.921 3.463 1.663 5.332 2.211v5.004c0 4.142 3.357 7.5 7.5 7.5s7.5-3.358 7.5-7.5v-5.004c1.869-.548 3.656-1.29 5.332-2.211l3.54 3.54c1.465 1.464 3.385 2.197 5.304 2.197s3.839-.732 5.304-2.197c2.929-2.929 2.929-7.678 0-10.606l-3.54-3.541c.921-1.676 1.663-3.463 2.211-5.332h5.004c4.143 0 7.5-3.358 7.5-7.5s-3.357-7.5-7.5-7.5h-5.004c-.548-1.869-1.289-3.656-2.211-5.332l3.54-3.54c2.929-2.929 2.929-7.678 0-10.606-2.93-2.929-7.678-2.929-10.607 0l-3.54 3.54c-1.676-.921-3.463-1.663-5.332-2.211v-5.004c0-4.142-3.357-7.5-7.5-7.5s-7.5 3.358-7.5 7.5v5.004c-1.869.548-3.656 1.29-5.332 2.211l-3.539-3.539c-2.93-2.929-7.678-2.929-10.607 0s-2.929 7.678 0 10.606l3.54 3.54c-.921 1.676-1.663 3.463-2.211 5.333h-5.005zm30.653-4.228c6.467 0 11.729 5.261 11.729 11.729s-5.262 11.729-11.729 11.729-11.729-5.262-11.729-11.729 5.262-11.729 11.729-11.729z"/><path d="m325.952 304.544c-4.143 0-7.5 3.358-7.5 7.5v7.694c-3.164.775-6.145 2.022-8.856 3.673l-5.444-5.444c-2.928-2.93-7.677-2.929-10.606 0s-2.929 7.678.001 10.606l5.443 5.443c-1.651 2.711-2.898 5.692-3.673 8.856h-7.694c-4.143 0-7.5 3.358-7.5 7.5s3.357 7.5 7.5 7.5h7.694c.775 3.164 2.022 6.145 3.673 8.856l-5.443 5.443c-2.93 2.929-2.93 7.677-.001 10.606 1.465 1.465 3.384 2.197 5.304 2.197 1.919 0 3.839-.732 5.303-2.196l5.444-5.444c2.711 1.651 5.692 2.898 8.856 3.673v7.694c0 4.142 3.357 7.5 7.5 7.5s7.5-3.358 7.5-7.5v-7.694c3.164-.775 6.145-2.022 8.856-3.673l5.444 5.444c1.464 1.464 3.384 2.196 5.303 2.196s3.839-.732 5.304-2.197c2.929-2.929 2.929-7.678-.001-10.606l-5.443-5.443c1.651-2.711 2.898-5.692 3.673-8.856h7.693c4.143 0 7.5-3.358 7.5-7.5s-3.357-7.5-7.5-7.5h-7.693c-.775-3.164-2.022-6.145-3.673-8.856l5.443-5.443c2.93-2.929 2.93-7.677.001-10.606s-7.678-2.93-10.606 0l-5.444 5.444c-2.711-1.651-5.692-2.898-8.856-3.673v-7.694c-.002-4.142-3.359-7.5-7.502-7.5zm16.543 45.828c0 9.122-7.421 16.542-16.543 16.542s-16.543-7.421-16.543-16.542 7.421-16.543 16.543-16.543 16.543 7.422 16.543 16.543z"/><path d="m97.652 343.754h12.373c1.407 2.572 3.185 4.961 5.316 7.092l18.443 18.444c2.929 2.929 7.677 2.929 10.607 0 2.929-2.929 2.929-7.677 0-10.606l-18.444-18.444c-3.032-3.033-4.702-7.064-4.702-11.353s1.67-8.32 4.703-11.353c3.032-3.033 7.063-4.703 11.353-4.703 4.288 0 8.319 1.67 11.352 4.703l52.751 52.749c3.032 3.033 4.702 7.064 4.702 11.353s-1.67 8.32-4.702 11.353c-6.261 6.259-16.446 6.26-22.707 0l-11.705-11.705c-2.927-2.929-7.676-2.93-10.606 0-2.929 2.929-2.929 7.678.001 10.606l11.705 11.705c3.427 3.427 7.462 5.882 11.762 7.369v9.552c0 4.142 3.357 7.5 7.5 7.5s7.5-3.358 7.5-7.5v-8.216c3.906-.606 7.716-1.956 11.202-4.052l6.995 6.995c1.465 1.465 3.384 2.197 5.304 2.197 1.919 0 3.839-.732 5.303-2.197 2.93-2.929 2.93-7.677.001-10.606l-6.986-6.986c2.027-3.356 3.386-7.063 4.02-10.955h9.448c4.143 0 7.5-3.358 7.5-7.5s-3.357-7.5-7.5-7.5h-10.659c-1.508-4.477-4.032-8.581-7.469-12.019l-52.75-52.749c-3.442-3.442-7.552-5.968-12.035-7.475v-10.273c0-4.142-3.357-7.5-7.5-7.5s-7.5 3.358-7.5 7.5v9.07c-3.886.635-7.587 1.993-10.938 4.017l-6.21-6.21c-2.928-2.93-7.677-2.929-10.606 0s-2.929 7.678.001 10.606l6.21 6.21c-2.868 4.748-4.409 10.196-4.432 15.881h-8.596c-4.143 0-7.5 3.358-7.5 7.5s3.353 7.5 7.495 7.5z"/><path d="m255.308 140.503h8.804c4.143 0 7.5-3.358 7.5-7.5s-3.357-7.5-7.5-7.5h-8.804c-4.143 0-7.5 3.358-7.5 7.5s3.357 7.5 7.5 7.5z"/><path d="m97.652 254.084h12.121c4.143 0 7.5-3.358 7.5-7.5s-3.357-7.5-7.5-7.5h-12.121c-4.143 0-7.5 3.358-7.5 7.5s3.358 7.5 7.5 7.5z"/><path d="m184.123 234.251h-7.123c-4.143 0-7.5 3.358-7.5 7.5s3.357 7.5 7.5 7.5h7.123c4.143 0 7.5-3.358 7.5-7.5s-3.357-7.5-7.5-7.5z"/><path d="m273.181 428.017c4.143 0 7.5-3.358 7.5-7.5s-3.357-7.5-7.5-7.5h-9.069c-4.143 0-7.5 3.358-7.5 7.5s3.357 7.5 7.5 7.5z"/><path d="m374.679 243.124c-12.302 0-22.311 10.008-22.311 22.31s10.009 22.31 22.311 22.31 22.311-10.008 22.311-22.31-10.01-22.31-22.311-22.31zm0 29.62c-4.031 0-7.311-3.279-7.311-7.31s3.279-7.31 7.311-7.31 7.311 3.279 7.311 7.31-3.28 7.31-7.311 7.31z"/><path d="m506.813 142.299-78.876-127.13c-5.797-9.342-15.82-14.919-26.814-14.919s-21.018 5.578-26.814 14.919l-78.876 127.13c-6.125 9.872-6.41 21.827-.762 31.979 5.649 10.153 15.958 16.214 27.576 16.214h36.45c4.143 0 7.5-3.358 7.5-7.5s-3.357-7.5-7.5-7.5h-36.45c-6.096 0-11.505-3.18-14.468-8.507-2.964-5.326-2.814-11.598.399-16.778l78.876-127.13c3.041-4.901 8.301-7.828 14.068-7.828s11.027 2.926 14.068 7.828l78.876 127.13c3.214 5.18 3.363 11.452.399 16.778-2.963 5.327-8.372 8.507-14.468 8.507h-89.337c-4.143 0-7.5 3.358-7.5 7.5s3.357 7.5 7.5 7.5h89.339c11.618 0 21.927-6.061 27.576-16.214 5.649-10.152 5.363-22.107-.762-31.979z"/><path d="m304.184 224.835-4.594.26c-1.257-3.352-3.34-6.447-6.228-8.955-2.836-2.462-6.175-4.126-9.741-4.917l-.386-4.577c-.349-4.128-3.985-7.191-8.104-6.843-4.127.349-7.19 3.977-6.843 8.104l.437 5.176c-2.539 1.285-4.832 3.059-6.753 5.272l-5.943 6.844-3.172-2.754c-3.129-2.716-7.866-2.382-10.58.747-2.716 3.128-2.382 7.865.746 10.581l3.171 2.753-7.254 8.355c-2.125 2.448-3.601 5.236-4.479 8.156l-5.634.32c-4.136.234-7.298 3.777-7.063 7.913.227 3.991 3.533 7.075 7.481 7.075.143 0 .287-.004.432-.012l5.551-.315c1.277 3.079 3.244 5.924 5.927 8.254 2.685 2.331 5.776 3.895 9.005 4.726l.467 5.524c.331 3.913 3.608 6.869 7.465 6.869.212 0 .426-.009.64-.027 4.128-.349 7.191-3.978 6.843-8.105l-.474-5.61c2.769-1.279 5.319-3.144 7.445-5.593l7.253-8.355 3.171 2.753c1.42 1.232 3.171 1.836 4.914 1.836 2.098 0 4.184-.875 5.666-2.583 2.716-3.127 2.382-7.865-.746-10.58l-3.171-2.753 5.942-6.844h.001c1.947-2.243 3.353-4.772 4.252-7.426l5.205-.295c4.135-.234 7.298-3.777 7.063-7.912-.235-4.134-3.783-7.312-7.912-7.062zm-42.964 39.388c-2.623 3.02-7.21 3.344-10.23.722-3.02-2.621-3.344-7.21-.723-10.23l23.03-26.526c1.271-1.463 3.033-2.343 4.966-2.479.175-.013.349-.019.521-.019 1.745 0 3.412.621 4.743 1.776 3.019 2.622 3.342 7.211.722 10.23z"/><path d="m393.623 151.608c0 4.142 3.357 7.5 7.5 7.5s7.5-3.358 7.5-7.5v-11.425c0-4.142-3.357-7.5-7.5-7.5s-7.5 3.358-7.5 7.5z"/><path d="m401.123 114.692c4.143 0 7.5-3.358 7.5-7.5v-59.314c0-4.142-3.357-7.5-7.5-7.5s-7.5 3.358-7.5 7.5v59.313c0 4.143 3.357 7.501 7.5 7.501z"/></g></g></svg>