<svg id="Capa_1" enable-background="new 0 0 512.185 512.185" height="512" viewBox="0 0 512.185 512.185" width="512" xmlns="http://www.w3.org/2000/svg"><g><g><g><g><g id="XMLID_421_"><g><path d="m266.886 88.326c0-14.64 11.87-26.5 26.51-26.5 7.32 0 13.94 2.96 18.74 7.76 4.79 4.8 7.76 11.42 7.76 18.74v78.91 151.92l-26.5 99.42v79.783c0 3.494-2.833 6.327-6.327 6.327h-180.616c-3.494 0-6.327-2.833-6.327-6.327v-87.213l7.74-204.05v-141.195c0-14.505 11.432-26.726 25.934-27.029 7.544-.157 14.393 2.841 19.306 7.754 4.79 4.8 7.76 11.43 7.76 18.75v-30.835c0-14.524 11.459-26.756 25.98-27.04 7.53-.147 14.354 2.849 19.27 7.765 4.8 4.79 7.76 11.42 7.76 18.74v24.28c0-14.64 11.87-26.51 26.51-26.51 7.32 0 13.95 2.97 18.74 7.77 4.79 4.79 7.76 11.42 7.76 18.74z" fill="#ffe5c2"/></g></g></g><g id="XMLID_420_"><g><path d="m169.684 282.533-.159-.144c-8.767-7.921-9.294-21.507-1.167-30.083l1.595-1.684c8.23-8.673 12.763-20.036 12.763-31.996 0-9.957-3.116-19.469-9.008-27.502-5.108-6.971-12.036-12.295-19.867-15.512-7.374-3.029-12.31-10.06-12.31-18.032v-104.14c0-4.521 1.134-8.776 3.128-12.5-3.398-1.433-7.157-2.179-11.103-2.062-14.413.43-25.69 12.65-25.69 27.069v141.149l-7.74 204.05v87.237c0 3.481 2.822 6.303 6.303 6.303h27.362v-53.506c0-10.992 6.591-21.022 16.813-25.064 26.454-10.46 45.644-35.565 47.292-65.594l.03-.548v-13.858c0-24.234-10.261-47.336-28.242-63.583z" fill="#fed2a4"/><path d="m177.922 346.118v13.31c-1.6 29.14-25.71 51.92-54.84 51.92-.16 0-.32 0-.48 0l-22.48-.2v-.35l-21.84-14.71c-13.48-9.08-21.56-24.26-21.56-40.52v-78.37c0-19.09 8.81-37.13 23.87-48.86l39.31-30.63c11.79-9.18 28.84-6.81 37.67 5.24 3.44 4.69 5.14 10.19 5.14 15.68 0 6.59-2.45 13.15-7.27 18.23l-26.12 27.566c-2.418 2.552-2.26 6.595.35 8.95l26.569 23.974c13.801 12.45 21.681 30.17 21.681 48.77z" fill="#ffe5c2"/><path d="m80.918 372.989v-78.37c0-19.09 8.81-37.13 23.87-48.86l39.31-30.63c5.052-3.934 11.099-5.722 17.022-5.561-.843-2.31-2.03-4.556-3.545-6.622-8.83-12.05-25.88-14.42-37.67-5.24l-39.31 30.63c-15.06 11.73-23.87 29.77-23.87 48.86v78.37c0 16.26 8.08 31.44 21.56 40.52l16.869 11.362c-9.022-9.063-14.236-21.409-14.236-34.459z" fill="#fed2a4"/></g></g><circle cx="332.979" cy="319.151" fill="#fef0ae" r="122.483"/><g fill="#86e8d0"><circle cx="375.168" cy="287.519" r="23.254"/><circle cx="305.335" cy="370.429" r="15.471"/><circle cx="279.315" cy="293.085" r="15.471"/></g></g><g fill="#fed2a4"><g><path d="m300.626 157.426.003-94.608c-2.298-.65-4.725-.992-7.233-.992-14.012 0-25.479 10.867-26.437 24.635v104.631c18.593 0 33.666-15.073 33.667-33.666z"/><path d="m247.629 158.427.008-125.65c-2.302-.653-4.74-1-7.251-1-13.955 0-25.385 10.787-26.425 24.476v135.84c18.594-.001 33.667-15.073 33.668-33.666z"/></g><path d="m160.906 176.092c18.553 0 33.596-15.035 33.606-33.588l.059-123.152c0-3.615.747-7.058 2.057-10.198-2.877-1.072-6.001-1.657-9.252-1.657-14.159 0-25.725 11.103-26.47 25.077z"/></g></g><g><path d="m206.379 189.169c0 4.142 3.357 7.5 7.5 7.5s7.5-3.358 7.5-7.5v-130.888c0-10.479 8.525-19.004 19.005-19.004 10.479 0 19.004 8.525 19.004 19.004v130.888c0 4.142 3.357 7.5 7.5 7.5s7.5-3.358 7.5-7.5v-100.842c0-10.479 8.525-19.004 19.005-19.004 10.479 0 19.004 8.525 19.004 19.004v78.908c0 4.142 3.357 7.5 7.5 7.5s7.5-3.358 7.5-7.5v-78.908c0-18.75-15.254-34.004-34.004-34.004-7.034 0-13.576 2.147-19.005 5.82v-1.861c0-18.75-15.254-34.004-34.004-34.004-7.127 0-13.746 2.208-19.217 5.97-1.876-16.989-16.312-30.248-33.792-30.248-18.75 0-34.005 15.254-34.005 34.004v3.185c-5.429-3.672-11.97-5.819-19.004-5.819-18.75 0-34.005 15.254-34.005 34.004v62.858c0 4.142 3.357 7.5 7.5 7.5s7.5-3.358 7.5-7.5v-62.857c0-10.479 8.525-19.004 19.005-19.004 10.479 0 19.004 8.525 19.004 19.004v103.008c0 4.142 3.357 7.5 7.5 7.5s7.5-3.358 7.5-7.5v-134.379c0-10.479 8.525-19.004 19.005-19.004 10.479 0 19.004 8.525 19.004 19.004z"/><path d="m163.288 304.101c-3.476 2.252-4.469 6.896-2.217 10.372 6.12 9.446 9.354 20.387 9.354 31.64v13.311c0 4.142 3.357 7.5 7.5 7.5s7.5-3.358 7.5-7.5v-13.311c0-14.154-4.068-27.915-11.765-39.795-2.252-3.478-6.894-4.471-10.372-2.217z"/><path d="m150.164 281.756-14.517-13.099 25.243-26.643c11.315-11.943 12.467-30.24 2.737-43.507-5.482-7.477-13.561-12.298-22.744-13.574-9.157-1.272-18.219 1.146-25.522 6.811v-31.549c0-4.142-3.357-7.5-7.5-7.5s-7.5 3.358-7.5 7.5v43.233l-24.374 18.989c-17.01 13.252-26.765 33.219-26.765 54.782v78.371c0 18.778 9.299 36.251 24.873 46.739l18.528 12.479v89.897c0 4.142 3.357 7.5 7.5 7.5s7.5-3.358 7.5-7.5v-93.889c0-2.495-1.241-4.827-3.311-6.221l-21.839-14.708c-11.429-7.697-18.252-20.518-18.252-34.298v-78.371c0-16.906 7.648-32.56 20.983-42.949l39.311-30.626c4.088-3.186 9.171-4.546 14.302-3.833 5.134.713 9.649 3.408 12.714 7.587 5.438 7.417 4.795 17.644-1.53 24.32l-30.528 32.222c-1.39 1.467-2.129 3.433-2.05 5.452s.97 3.921 2.47 5.275l20.222 18.247c3.075 2.773 7.817 2.531 10.593-.544 2.775-3.075 2.532-7.818-.544-10.593z"/><path d="m293.393 458.913c-4.143 0-7.5 3.358-7.5 7.5v37.697c0 4.142 3.357 7.5 7.5 7.5s7.5-3.358 7.5-7.5v-37.697c0-4.142-3.358-7.5-7.5-7.5z"/><path d="m417.377 220.302c-3.149-2.691-7.884-2.321-10.574.829-2.69 3.149-2.319 7.883.83 10.574 25.63 21.902 40.329 53.775 40.329 87.446 0 63.402-51.581 114.983-114.983 114.983s-114.983-51.582-114.983-114.983 51.581-114.983 114.983-114.983c17.315 0 33.96 3.755 49.472 11.16 3.737 1.785 8.215.202 10-3.537 1.784-3.738.2-8.215-3.537-9.999-17.547-8.377-36.365-12.624-55.935-12.624-71.673 0-129.983 58.31-129.983 129.983s58.311 129.983 129.983 129.983 129.983-58.31 129.983-129.983c0-38.064-16.615-74.093-45.585-98.849z"/><path d="m382.668 257.694v-7.418c0-4.142-3.357-7.5-7.5-7.5s-7.5 3.358-7.5 7.5v7.418c-2.951.742-5.734 1.912-8.279 3.44l-5.252-5.252c-2.93-2.929-7.678-2.929-10.607 0s-2.929 7.678 0 10.606l5.253 5.253c-1.528 2.545-2.697 5.327-3.439 8.279h-7.418c-4.143 0-7.5 3.358-7.5 7.5s3.357 7.5 7.5 7.5h7.418c.742 2.951 1.912 5.733 3.439 8.279l-5.253 5.253c-2.929 2.929-2.929 7.678 0 10.606 1.465 1.464 3.385 2.197 5.304 2.197s3.839-.732 5.304-2.197l5.252-5.252c2.545 1.528 5.328 2.697 8.279 3.44v7.418c0 4.142 3.357 7.5 7.5 7.5s7.5-3.358 7.5-7.5v-7.418c2.951-.742 5.734-1.912 8.279-3.44l5.252 5.252c1.465 1.464 3.385 2.197 5.304 2.197s3.839-.732 5.304-2.197c2.929-2.929 2.929-7.678 0-10.606l-5.253-5.253c1.528-2.545 2.698-5.328 3.44-8.279h7.417c4.143 0 7.5-3.358 7.5-7.5s-3.357-7.5-7.5-7.5h-7.417c-.742-2.951-1.912-5.734-3.44-8.279l5.253-5.253c2.929-2.929 2.929-7.678 0-10.606-2.93-2.929-7.678-2.929-10.607 0l-5.252 5.252c-2.547-1.529-5.33-2.698-8.281-3.44zm-7.5 45.579c-8.687 0-15.754-7.067-15.754-15.754s7.067-15.754 15.754-15.754c8.688 0 15.755 7.067 15.755 15.754s-7.067 15.754-15.755 15.754z"/><path d="m330.113 377.929c4.143 0 7.5-3.358 7.5-7.5s-3.357-7.5-7.5-7.5h-3.071c-.302-.873-.653-1.724-1.054-2.546l2.171-2.171c2.929-2.929 2.929-7.678 0-10.606-2.93-2.929-7.678-2.929-10.607 0l-2.171 2.171c-.822-.401-1.673-.751-2.546-1.054v-3.071c0-4.142-3.357-7.5-7.5-7.5s-7.5 3.358-7.5 7.5v3.071c-.873.302-1.724.653-2.546 1.054l-2.171-2.171c-2.93-2.929-7.678-2.929-10.607 0s-2.929 7.678 0 10.606l2.171 2.171c-.401.822-.751 1.673-1.054 2.546h-3.071c-4.143 0-7.5 3.358-7.5 7.5s3.357 7.5 7.5 7.5h3.071c.302.873.653 1.724 1.054 2.546l-2.17 2.17c-2.93 2.929-2.93 7.678-.001 10.607 1.465 1.464 3.384 2.197 5.304 2.197 1.919 0 3.839-.732 5.303-2.196l2.171-2.171c.822.402 1.673.752 2.546 1.054v3.071c0 4.142 3.357 7.5 7.5 7.5s7.5-3.358 7.5-7.5v-3.071c.873-.302 1.724-.653 2.546-1.054l2.171 2.171c1.464 1.464 3.384 2.196 5.303 2.196s3.839-.732 5.304-2.197c2.929-2.929 2.929-7.678-.001-10.607l-2.17-2.17c.401-.822.751-1.673 1.054-2.546zm-16.807-7.5c0 4.396-3.575 7.971-7.971 7.971s-7.971-3.576-7.971-7.971 3.575-7.971 7.971-7.971 7.971 3.576 7.971 7.971z"/><path d="m279.315 325.363c4.143 0 7.5-3.358 7.5-7.5v-3.071c.873-.302 1.724-.653 2.546-1.054l2.171 2.171c1.465 1.464 3.385 2.197 5.304 2.197s3.839-.732 5.304-2.197c2.929-2.929 2.929-7.678 0-10.606l-2.171-2.171c.401-.822.751-1.673 1.054-2.546h3.071c4.143 0 7.5-3.358 7.5-7.5s-3.357-7.5-7.5-7.5h-3.071c-.302-.873-.653-1.724-1.054-2.546l2.17-2.17c2.93-2.929 2.93-7.678.001-10.607-2.929-2.928-7.678-2.929-10.606 0l-2.171 2.171c-.822-.402-1.673-.752-2.546-1.054v-3.071c0-4.142-3.357-7.5-7.5-7.5s-7.5 3.358-7.5 7.5v3.071c-.873.302-1.724.653-2.546 1.054l-2.171-2.171c-2.928-2.929-7.677-2.928-10.606 0-2.929 2.929-2.929 7.678.001 10.607l2.17 2.17c-.401.822-.751 1.673-1.054 2.546h-3.071c-4.143 0-7.5 3.358-7.5 7.5s3.357 7.5 7.5 7.5h3.071c.302.873.653 1.724 1.054 2.546l-2.171 2.171c-2.929 2.929-2.929 7.678 0 10.606 1.465 1.464 3.385 2.197 5.304 2.197s3.839-.732 5.304-2.197l2.171-2.171c.822.401 1.673.751 2.546 1.054v3.071c-.004 4.142 3.353 7.5 7.496 7.5zm-7.971-32.278c0-4.396 3.575-7.971 7.971-7.971s7.971 3.576 7.971 7.971-3.575 7.971-7.971 7.971-7.971-3.576-7.971-7.971z"/><path d="m320.802 252.496c2.879 0 5.625-1.667 6.863-4.47l4.653-10.528c1.675-3.789-.039-8.217-3.827-9.892-3.79-1.672-8.217.04-9.892 3.828l-4.653 10.528c-1.675 3.789.039 8.217 3.827 9.892.987.435 2.016.642 3.029.642z"/><path d="m403.894 338.18-7.358 6.506c-3.104 2.744-3.395 7.483-.651 10.586 1.482 1.677 3.547 2.532 5.622 2.532 1.766 0 3.538-.62 4.965-1.881l7.358-6.506c3.104-2.744 3.395-7.483.651-10.586s-7.484-3.394-10.587-.651z"/><path d="m349.895 391.887-1.852 11.165c-.677 4.086 2.086 7.948 6.173 8.626.415.069.828.102 1.235.102 3.603 0 6.781-2.603 7.391-6.274l1.852-11.165c.677-4.086-2.086-7.948-6.173-8.626-4.09-.677-7.948 2.086-8.626 6.172z"/><path d="m239.194 328.067c-3.32 2.475-4.007 7.174-1.531 10.495l4.829 6.479c1.473 1.976 3.731 3.019 6.02 3.019 1.559 0 3.131-.484 4.477-1.487 3.32-2.475 4.007-7.174 1.531-10.495l-4.829-6.479c-2.477-3.322-7.177-4.007-10.497-1.532z"/><path d="m369.625 365.981c3.356 0 6.412-2.27 7.268-5.673 1.01-4.018-1.428-8.092-5.445-9.103l-10.124-2.545c-4.013-1.007-8.092 1.429-9.102 5.445-1.01 4.018 1.428 8.092 5.445 9.103l10.124 2.545c.614.155 1.229.228 1.834.228z"/></g></g></svg>