<svg id="Capa_1" enable-background="new 0 0 512.153 512.153" height="512" viewBox="0 0 512.153 512.153" width="512" xmlns="http://www.w3.org/2000/svg"><g><g><g id="XMLID_99_"><path d="m320.077 220.221c-1.08-1.48-1.67-3.26-1.67-5.09v-173.9l12.88-25.76c1.83-3.66-.83-7.97-4.93-7.97h-140.56c-4.1 0-6.76 4.31-4.93 7.97l12.88 25.76v173.9c0 1.83-.59 3.61-1.67 5.09l-16.01 21.81 28.01 30.039h122.741l9.269-30.039z" fill="#f8f3f1"/></g><path d="m255.338 220.221c1.08-1.48 1.67-3.26 1.67-5.09v-159.769c0-9.292-2.164-18.457-6.319-26.769l-6.561-13.122c-1.83-3.66.83-7.97 4.93-7.97h-63.262c-4.096 0-6.76 4.31-4.928 7.974l12.878 25.756v173.9c0 1.83-.59 3.61-1.67 5.09l-16.01 21.81 28.01 30.039 6.7 6.215z" fill="#f2eae7"/><path d="m472.617 428.022c23.33 31.8.63 76.63-38.81 76.63h-355.46c-39.44 0-62.14-44.83-38.81-76.63l136.53-185.99h160.02z" fill="#b6ecdd"/><path d="m102.798 428.021 136.53-185.99h-63.262l-136.53 185.99c-23.33 31.8-.63 76.63 38.81 76.63h63.262c-39.44 0-62.14-44.829-38.81-76.63z" fill="#9de5d1"/><circle cx="255.577" cy="373.042" fill="#fcf0b6" r="94.038"/></g><g><path d="m478.658 423.587-152.534-207.809c-.137-.187-.212-.416-.212-.647v-172.131l12.086-24.172c2.031-4.062 1.819-8.794-.569-12.657-2.388-3.864-6.526-6.171-11.068-6.171h-140.569c-4.542 0-8.68 2.307-11.067 6.171-2.388 3.863-2.6 8.596-.569 12.657l12.086 24.172v172.131c0 .231-.075.461-.212.648l-100.491 136.907c-2.451 3.339-1.731 8.032 1.608 10.483 3.338 2.45 8.033 1.731 10.484-1.608l82.235-112.033h152.424l134.277 182.935c9.253 12.606 10.559 28.462 3.494 42.412s-20.62 22.279-36.257 22.279h-355.453c-15.638 0-29.192-8.329-36.257-22.279s-5.759-29.806 3.494-42.412l33.124-45.126c2.451-3.339 1.731-8.032-1.608-10.483-3.338-2.45-8.033-1.73-10.484 1.608l-33.124 45.126c-12.479 17.001-14.313 39.25-4.784 58.064s28.549 30.502 49.639 30.502h355.451c21.09 0 40.11-11.688 49.639-30.502s7.696-41.064-4.783-58.065zm-287.783-189.06 7.246-9.872c2.042-2.781 3.121-6.074 3.121-9.524v-173.902c0-1.164-.271-2.313-.792-3.354l-11.437-22.875h134.128l-11.438 22.875c-.521 1.042-.792 2.19-.792 3.354v173.901c0 3.45 1.079 6.743 3.121 9.523l7.247 9.873h-130.404z"/><path d="m322.459 306.521c2.697-3.144 2.334-7.879-.81-10.575-18.375-15.762-41.84-24.441-66.073-24.441-55.988 0-101.538 45.55-101.538 101.537 0 55.988 45.55 101.538 101.538 101.538s101.538-45.55 101.538-101.538c0-17.743-4.647-35.211-13.439-50.514-2.063-3.593-6.648-4.832-10.239-2.767-3.591 2.063-4.83 6.647-2.767 10.239 7.487 13.032 11.445 27.916 11.445 43.041 0 47.717-38.821 86.538-86.538 86.538s-86.538-38.821-86.538-86.538 38.821-86.537 86.538-86.537c20.652 0 40.649 7.396 56.307 20.826 3.144 2.698 7.88 2.336 10.576-.809z"/><path d="m311.442 400.185c4.126.208 7.654-2.99 7.854-7.128.578-11.928-4.836-23.229-14.483-30.231-2.629-1.909-5.439-3.39-8.344-4.477-1.814-5.031-4.535-9.629-7.959-13.608.109-1.125.169-2.264.169-3.417 0-11.921-5.965-22.94-15.958-29.479-3.465-2.269-8.115-1.297-10.382 2.169-2.268 3.466-1.297 8.114 2.169 10.382 3.202 2.096 5.682 4.992 7.252 8.329-5.006-2.017-10.465-3.138-16.184-3.138-7.777 0-15.078 2.064-21.4 5.657 1.384-4.395 4.251-8.241 8.235-10.849 3.466-2.268 4.437-6.916 2.169-10.382-2.269-3.468-6.918-4.438-10.383-2.169-9.991 6.538-15.957 17.559-15.957 29.479 0 2.762.33 5.447.934 8.028-1.912 2.927-3.478 6.096-4.646 9.453-2.495 1.035-4.91 2.367-7.19 4.021-9.647 7.002-15.061 18.304-14.483 30.231.2 4.138 3.718 7.334 7.854 7.128 4.138-.2 7.329-3.717 7.128-7.854-.249-5.138 1.435-10.073 4.626-13.915 1.709 13.788 9.897 25.588 21.419 32.257-4.22 1.277-8.801 1.158-13.065-.461-3.874-1.475-8.204.473-9.676 4.344-1.472 3.872.473 8.204 4.344 9.676 4.089 1.556 8.346 2.319 12.576 2.319 7.314 0 14.542-2.287 20.655-6.724 1.455-1.056 2.804-2.205 4.047-3.43.93.06 1.866.101 2.811.101 1.26 0 2.505-.066 3.738-.171 1.263 1.252 2.637 2.424 4.12 3.5 6.113 4.438 13.34 6.724 20.655 6.724 4.229 0 8.487-.764 12.576-2.319 3.872-1.472 5.816-5.804 4.344-9.676-1.472-3.871-5.802-5.818-9.676-4.344-4.482 1.706-9.315 1.752-13.711.257 11.61-6.865 19.771-18.969 21.189-33.039 3.756 3.963 5.774 9.311 5.503 14.901-.199 4.138 2.993 7.654 7.13 7.855zm-39.607-50.476c-3.194 6.97-10.22 11.833-18.375 11.833-7.197 0-13.51-3.792-17.094-9.47 5.066-4.645 11.812-7.485 19.211-7.485 6.042 0 11.645 1.898 16.258 5.122zm-44.642 21.428c6.534-.261 13.077 2.634 17.198 8.312 4.477 6.167 4.949 14.036 1.92 20.492-11.154-3.853-19.19-14.451-19.19-26.898.001-.642.03-1.276.072-1.906zm38.518 28.488c-2.869-6.396-2.353-14.109 2.052-20.177 3.911-5.387 10.003-8.251 16.198-8.31.042.63.071 1.263.071 1.903 0 12.122-7.621 22.491-18.321 26.584z"/></g></g></svg>