<svg id="Capa_1" enable-background="new 0 0 511.803 511.803" height="512" viewBox="0 0 511.803 511.803" width="512" xmlns="http://www.w3.org/2000/svg"><g><g><path d="m409.441 198.796v-8.573c0-13.02-6.18-25.26-16.65-32.99l-52.41-38.68 1.2-92.96h-170.16v92.96l-52.41 38.68c-10.47 7.73-16.65 19.97-16.65 32.99v8.52l33.24 41.834v184.317l-33.24 21.639v35.59c0 12.25 9.93 22.18 22.18 22.18h262.72c12.25 0 22.18-9.93 22.18-22.18v-35.59l-37.719-22.487-3.654-173.121 39.503-52.182c0 .001.679.021 1.87.053z" fill="#d9f1f5"/><path d="m237.477 25.594h-9.148-56.907v92.96l-52.41 38.68c-10.47 7.73-16.65 19.97-16.65 32.99v8.52l36.938 15.023 2.3 203.763-39.238 29.004v35.59c0 12.25 9.93 22.18 22.18 22.18h66.056c-12.25 0-22.18-9.93-22.18-22.18v-291.9c0-13.02 6.18-25.26 16.65-32.99l40.719-30.052c7.352-5.426 11.691-14.021 11.691-23.159h103.092l1.012-78.43h-104.105z" fill="#b3e5ee"/><g><path d="m409.441 198.744v247.79h-2.34-301.87-2.87v-247.79h2.87 302.34z" fill="#f8f3f1"/></g><path d="m105.231 198.744h-2.87v247.79h2.87 63.186v-247.79z" fill="#f2eae7"/><g id="XMLID_101_"><g><path d="m368.841 25.114v41.3c0 9.72-7.88 17.61-17.61 17.61h-191.66c-9.73 0-17.61-7.89-17.61-17.61v-41.3c0-9.73 7.88-17.61 17.61-17.61h191.66c9.73 0 17.61 7.88 17.61 17.61z" fill="#f8f3f1"/></g></g><path d="m190.455 66.414v-41.3c0-9.73 7.88-17.61 17.61-17.61h-48.494c-9.73 0-17.61 7.88-17.61 17.61v41.3c0 9.72 7.88 17.61 17.61 17.61h48.494c-9.73 0-17.61-7.89-17.61-17.61z" fill="#f2eae7"/><circle cx="255.401" cy="323.895" fill="#b3e5ee" r="96.497"/><path d="m302.68 304.906h-28.29v-28.29c0-2.328-1.887-4.215-4.215-4.215h-29.548c-2.328 0-4.215 1.887-4.215 4.215v28.29h-28.29c-2.328 0-4.215 1.887-4.215 4.215v29.548c0 2.328 1.887 4.215 4.215 4.215h28.29v28.29c0 2.328 1.887 4.215 4.215 4.215h29.548c2.328 0 4.215-1.887 4.215-4.215v-28.29h28.29c2.328 0 4.215-1.887 4.215-4.215v-29.548c0-2.328-1.887-4.215-4.215-4.215z" fill="#f8f3f1"/></g><g><path d="m397.242 151.2-49.359-36.433v-23.242h3.348c13.849 0 25.115-11.267 25.115-25.115v-41.294c0-13.848-11.267-25.116-25.116-25.116h-191.658c-13.849 0-25.116 11.268-25.116 25.116v41.294c0 13.849 11.267 25.115 25.116 25.115h4.348v23.242l-49.36 36.433c-12.334 9.104-19.698 23.691-19.698 39.021v62.34c0 4.143 3.358 7.5 7.5 7.5s7.5-3.357 7.5-7.5v-46.322h203.613c4.143 0 7.5-3.357 7.5-7.5s-3.357-7.5-7.5-7.5h-203.613v-1.018c0-10.589 5.086-20.664 13.606-26.953l52.406-38.681c1.916-1.414 3.046-3.653 3.046-6.034v-27.028h153.963v27.028c0 2.381 1.131 4.62 3.046 6.034l52.405 38.681c8.521 6.288 13.606 16.364 13.606 26.953v1.018h-56.502c-4.143 0-7.5 3.357-7.5 7.5s3.357 7.5 7.5 7.5h56.502v232.797h-292.078v-154.513c0-4.143-3.358-7.5-7.5-7.5s-7.5 3.357-7.5 7.5v197.604c0 16.362 13.313 29.675 29.676 29.675h262.727c16.363 0 29.676-13.313 29.676-29.675v-291.905c-.001-15.33-7.365-29.918-19.699-39.022zm-172.368-136.2h23.028v61.525h-23.028zm-15 61.525h-21.028v-61.525h21.028zm53.027-61.525h23.027v61.525h-23.027zm38.028 0h21.028v61.525h-21.028zm60.417 10.116v41.294c0 5.577-4.538 10.115-10.115 10.115h-14.273v-61.525h14.273c5.577 0 10.115 4.538 10.115 10.116zm-211.889 41.294v-41.294c0-5.578 4.538-10.116 10.116-10.116h14.273v61.525h-14.273c-5.578 0-10.116-4.538-10.116-10.115zm237.808 430.393h-262.727c-8.092 0-14.676-6.583-14.676-14.675v-28.092h292.078v28.092c0 8.092-6.584 14.675-14.675 14.675z"/><path d="m199.111 411.351c16.78 10.821 36.245 16.541 56.291 16.541 57.344 0 103.996-46.653 103.996-103.997s-46.652-103.996-103.996-103.996-103.997 46.652-103.997 103.996c0 23.569 7.69 45.796 22.239 64.278 2.563 3.255 7.276 3.817 10.532 1.255 3.254-2.563 3.816-7.278 1.254-10.532-12.446-15.812-19.025-34.831-19.025-55.001 0-49.072 39.924-88.996 88.997-88.996 49.072 0 88.996 39.924 88.996 88.996 0 49.073-39.924 88.997-88.996 88.997-17.156 0-33.81-4.892-48.162-14.146-3.479-2.245-8.123-1.244-10.368 2.238-2.245 3.48-1.243 8.122 2.239 10.367z"/><path d="m270.176 264.901h-29.548c-6.459 0-11.715 5.255-11.715 11.715v20.79h-20.79c-6.459 0-11.715 5.255-11.715 11.714v29.549c0 6.46 5.255 11.715 11.715 11.715h20.79v20.79c0 6.46 5.255 11.715 11.715 11.715h29.548c6.46 0 11.715-5.255 11.715-11.715v-20.79h20.79c6.46 0 11.715-5.255 11.715-11.715v-29.549c0-6.459-5.255-11.714-11.715-11.714h-20.79v-20.79c0-6.46-5.255-11.715-11.715-11.715zm29.22 47.505v22.978h-25.005c-4.143 0-7.5 3.357-7.5 7.5v25.005h-22.978v-25.005c0-4.143-3.358-7.5-7.5-7.5h-25.005v-22.978h25.005c4.142 0 7.5-3.357 7.5-7.5v-25.005h22.978v25.005c0 4.143 3.357 7.5 7.5 7.5z"/></g></g></svg>