<svg id="Capa_1" enable-background="new 0 0 509.913 509.913" height="512" viewBox="0 0 509.913 509.913" width="512" xmlns="http://www.w3.org/2000/svg"><g><g><path d="m375.586 432.36c9.445-16.34 13.955-35.067 12.983-53.916l-6.609-128.171 1.049-49.528 4.684-74.48c4.047-64.351-47.053-118.766-111.531-118.766h-20.706-48.326c-28.544 0-53.677 18.806-61.73 46.19l-1.254 4.265c-14.803 9.516-23.31 26.287-22.244 43.852l6.003 98.938 1.049 49.528-6.609 128.171c-.972 18.849 3.537 37.575 12.983 53.916l23.096 41.335h200.19l10.919-8.32z" fill="#cdbfba"/><path d="m281.911 373.686 68.718 39.081c21.928 12.471 35.472 35.755 35.472 60.982v19.671c0 4.967-4.027 8.994-8.994 8.994h-246.301c-4.967 0-8.994-4.027-8.994-8.994v-19.671c0-25.226 13.544-48.511 35.472-60.982l68.718-39.081 11.807-5.958h33.347z" fill="#a6e7f0"/><path d="m253.957 367.728h-16.147l-11.807 5.958-68.718 39.081c-21.928 12.471-35.472 35.755-35.472 60.981v19.671c0 4.967 4.027 8.994 8.994 8.994h34.345v-17.596c0-25.227 13.544-48.511 35.472-60.982l53.334-30.332v-25.775z" fill="#6bd9e7"/><g><path d="m372.075 250.273h-36.416v-51.009h36.416c9.379 0 16.983 7.604 16.983 16.983v17.043c-.001 9.379-7.604 16.983-16.983 16.983z" fill="#fed2a4"/><path d="m137.839 250.273h34.416v-51.009h-34.416c-9.379 0-16.983 7.604-16.983 16.983v17.043c0 9.379 7.603 16.983 16.983 16.983z" fill="#fed2a4"/><g><g id="XMLID_426_"><g><path d="m355.657 178.881v56.77c0 36.09-16.08 69.68-42.87 92.31l-30 24.73h-57.66l-31.46-27.78c-24.71-22.54-39.41-54.76-39.41-89.26v-63.65c0-24.83 9.07-48.8 25.49-67.41l8.75-9.9c3.4-3.85 9.59-3.23 12.14 1.23 6.176 10.818 15.818 23.196 29.836 37.535 1.599 1.635 4.027 2.158 6.154 1.319l14.258-5.623c2.471-.975 5.272-.585 7.382 1.028l13.969 10.672c19.99 15.26 43.71 24.87 68.69 27.81l6.3.74c4.811.569 8.431 4.639 8.431 9.479z" fill="#ffe5c2"/></g></g></g><path d="m347.227 169.401-6.3-.74c-24.98-2.94-48.7-12.55-68.69-27.81l-13.969-10.672c-2.111-1.613-4.911-2.002-7.382-1.028l-14.258 5.623c-2.127.839-4.555.316-6.154-1.319-14.018-14.339-23.66-26.717-29.836-37.535-1.832-3.204-5.54-4.414-8.745-3.42 2.217 12.592 8.046 45.133 21.192 58.58 1.865 1.907 4.697 2.517 7.179 1.539l16.633-6.56c2.882-1.137 6.15-.682 8.612 1.199l16.295 12.449c23.319 17.801 50.989 29.012 80.129 32.441l7.349.863c2.482.294 4.685 1.392 6.377 3.009v-17.14c-.002-4.839-3.622-8.909-8.432-9.479z" fill="#fed2a4"/><path d="m282.786 353.638v12.979c0 15.922-12.907 28.829-28.829 28.829s-28.829-12.907-28.829-28.829v-13.931-44.575h57.658z" fill="#ffe5c2"/></g><path d="m268.74 354.653h-29.566c-27.438 0-49.681-22.243-49.681-49.681v-29.463c0-9.839 7.26-18.169 17.007-19.514l24.009-3.311c1.649-.227 3.242-.757 4.698-1.563l13.516-7.474c3.902-2.158 8.617-2.254 12.604-.257l15.96 7.994c1.263.633 2.617 1.063 4.013 1.277l20.402 3.12c9.617 1.471 16.72 9.743 16.72 19.472v29.717c-.001 27.44-22.244 49.683-49.682 49.683z" fill="#faf7f7"/><g><path d="m225.127 314.778v-29.463c0-9.839 7.26-18.17 17.007-19.514l24.009-3.311c1.649-.227 3.242-.757 4.698-1.563l13.516-7.474c.168-.093.345-.16.515-.245l-3.574-.546c-1.396-.214-2.75-.645-4.013-1.277l-15.96-7.994c-3.987-1.997-8.702-1.901-12.604.257l-13.516 7.474c-1.457.806-3.049 1.335-4.698 1.563l-24.009 3.311c-9.747 1.344-17.007 9.674-17.007 19.513v29.463c0 27.438 22.243 49.681 49.681 49.681h6c-12.163-9.055-20.045-23.544-20.045-39.875z" fill="#f9f3f1"/></g></g><g><path d="m396.558 216.247c0-6.127-2.268-11.731-6.001-16.03l4.621-73.482c.932-14.822-.849-29.454-5.294-43.487-1.25-3.948-5.465-6.135-9.415-4.886-3.949 1.251-6.136 5.466-4.885 9.415 3.883 12.26 5.438 25.051 4.623 38.017l-4.169 66.296c-1.291-.211-2.613-.325-3.963-.325h-8.916v-12.884c0-8.641-6.471-15.918-15.052-16.927l-6.305-.742c-23.626-2.782-46.107-11.885-65.014-26.322l-17.372-13.266c-2.087-1.593-4.855-1.979-7.301-1.017l-17.115 6.744c-12.559-12.943-21.919-24.753-27.854-35.146-2.392-4.189-6.686-6.985-11.486-7.478-4.804-.486-9.59 1.378-12.79 5.002l-8.741 9.901c-17.653 19.996-27.375 45.697-27.375 72.37v19.764h-8.916c-1 0-1.984.067-2.953.185l-5.497-90.597c-.9-14.839 6.308-29.05 18.813-37.089 1.517-.975 2.631-2.463 3.14-4.192l1.254-4.266c7.066-24.025 29.491-40.805 54.535-40.805h69.032c34.632 0 66.924 17.152 86.381 45.883 2.323 3.431 6.986 4.33 10.416 2.005 3.43-2.322 4.327-6.986 2.004-10.416-22.251-32.856-59.186-52.472-98.801-52.472h-69.032c-31.653 0-59.996 21.208-68.926 51.573l-.498 1.692c-15.593 11.195-24.462 29.707-23.292 48.995l5.881 96.932c-4.291 4.412-6.941 10.428-6.941 17.054v17.043c0 7.172 3.1 13.633 8.03 18.115l-4.379 84.914c-.213 4.137 2.967 7.663 7.104 7.877.131.007.262.01.393.01 3.965 0 7.277-3.108 7.484-7.113l4.094-79.389c.581.042 1.166.07 1.758.07h10.86c4.797 27.242 18.336 52.506 38.783 71.62 6.109 12.88 16.894 23.124 30.146 28.538v8.687c0 1.052.055 2.092.143 3.122l-64.193 36.509c-6.155 3.5-11.714 7.785-16.588 12.681-5.399-12.606-7.868-26.278-7.155-40.099l.504-9.776c.213-4.137-2.968-7.662-7.104-7.876-4.144-.22-7.663 2.967-7.876 7.104l-.504 9.775c-.967 18.759 3.08 37.285 11.708 53.887-7.854 12.293-12.25 26.755-12.25 41.805v28.664c0 4.143 3.358 7.5 7.5 7.5s7.5-3.357 7.5-7.5v-28.664c0-22.48 12.139-43.349 31.681-54.462l61.312-34.87c6.238 11.049 18.084 18.529 31.652 18.529 13.567 0 25.414-7.481 31.652-18.53l21.82 12.41c1.17.666 2.444.981 3.701.981 2.609 0 5.144-1.363 6.526-3.793 2.048-3.601.789-8.18-2.812-10.228l-24.701-14.048c.088-1.03.143-2.069.143-3.122v-8.688c12.071-4.933 22.095-13.874 28.403-25.165 22.618-19.527 37.497-46.028 42.548-74.992h10.838c.931 0 1.849-.057 2.753-.159l6.25 121.217c.753 14.609-2.045 29.051-8.104 42.245-5.344-5.796-11.6-10.825-18.637-14.827l-11.708-6.659c-3.602-2.05-8.179-.789-10.227 2.812s-.79 8.18 2.811 10.228l11.708 6.659c19.541 11.113 31.68 31.981 31.68 54.462v28.664c0 4.143 3.358 7.5 7.5 7.5s7.5-3.357 7.5-7.5v-28.664c0-14-3.801-27.493-10.653-39.204 9.588-17.256 14.128-36.742 13.11-56.487l-6.578-127.572c4.372-4.425 7.077-10.5 7.077-17.197v-17.043zm-249.803 26.525h-8.917c-5.229 0-9.483-4.254-9.483-9.482v-17.043c0-5.229 4.254-9.482 9.483-9.482h8.916zm35.237 32.737v24.699c-13.036-18.817-20.237-41.349-20.237-64.562v-5.031l24.6 30.185c-2.764 4.272-4.363 9.336-4.363 14.709zm93.294 91.108c0 11.761-9.568 21.329-21.329 21.329s-21.329-9.568-21.329-21.329v-4.84c2.149.246 40.509.242 42.658-.004zm35.635-61.645c0 23.259-18.922 42.182-42.182 42.182h-29.566c-23.259 0-42.182-18.923-42.182-42.182v-29.463c0-6.062 4.528-11.256 10.532-12.084l24.01-3.311c2.57-.354 5.026-1.172 7.302-2.429l13.517-7.474c.906-.502 1.91-.753 2.916-.753.924 0 1.849.212 2.7.639l15.958 7.993c1.967.986 4.068 1.654 6.239 1.985l20.402 3.121c6 .917 10.354 5.988 10.354 12.058zm37.237-69.326c0 24.559-7.912 48.098-22.237 67.421v-27.813c0-4.486-1.072-8.723-2.985-12.463l25.222-30.949zm0-27.548-35.615 43.701c-2.908-1.7-6.178-2.89-9.708-3.43l-20.406-3.121c-.622-.095-1.221-.286-1.785-.568l-15.96-7.994c-6.2-3.105-13.524-2.956-19.592.399l-13.514 7.473c-.654.361-1.359.596-2.095.697l-24.009 3.311c-2.774.383-5.404 1.189-7.835 2.338l-35.885-44.032v-34.87c0-23.014 8.388-45.189 23.62-62.442l8.746-9.916c7.226 12.654 18.251 26.328 33.708 41.804 2.111 2.114 5.274 2.773 8.056 1.678l17.792-7.01 14.008 10.697c21.043 16.069 46.066 26.2 72.363 29.297l6.306.742c1.029.121 1.805.994 1.805 2.03zm15 34.674v-36.008h8.916c5.229 0 9.483 4.254 9.483 9.482v17.043c0 5.229-4.254 9.482-9.483 9.482h-8.916z"/></g></g></svg>