<svg id="Capa_1" enable-background="new 0 0 509.913 509.913" height="512" viewBox="0 0 509.913 509.913" width="512" xmlns="http://www.w3.org/2000/svg"><g><g><path d="m281.889 373.686 68.718 39.081c21.928 12.471 35.472 35.755 35.472 60.982v15.192c0 7.441-6.032 13.473-13.473 13.473h-237.343c-7.441 0-13.473-6.032-13.473-13.473v-15.192c0-25.226 13.544-48.511 35.472-60.982l68.718-39.081 14.484-5.958h31.03z" fill="#a7eedc"/><path d="m261.539 367.728h-21.074l-14.484 5.958-68.718 39.081c-21.928 12.471-35.472 35.755-35.472 60.981v15.192c0 7.441 6.032 13.472 13.473 13.472h30.488c0-.007-.001-.015-.001-.022v-15.192c0-25.226 13.544-48.51 35.472-60.981l60.317-34.304v-24.185z" fill="#86e8d0"/><g id="XMLID_428_"><path d="m366.745 57.951-1.25-4.26c-8.06-27.39-33.19-46.19-61.73-46.19h-96.66c-28.54 0-53.67 18.8-61.73 46.19l-1.25 4.26c-13.97 8.98-22.33 24.42-22.33 40.9 0 .98.03 1.97.09 2.96l6.499 106.692 13.251 22.528 12.82 11.92 193.425 7.408 35.708-25.59 5.398-122.958c1.069-17.57-7.441-34.34-22.241-43.86z" fill="#cdbfba"/></g><g><path d="m372.053 250.273h-31.416v-51.009h31.416c9.379 0 16.983 7.604 16.983 16.983v17.043c0 9.379-7.604 16.983-16.983 16.983z" fill="#fed2a4"/><path d="m137.817 250.273h30.416v-51.009h-30.416c-9.379 0-16.983 7.604-16.983 16.983v17.043c0 9.379 7.604 16.983 16.983 16.983z" fill="#fed2a4"/><g><g id="XMLID_427_"><g><path d="m355.635 159.801v75.85c0 36.09-16.08 69.68-42.87 92.31l-27.68 23.93h-53.05l-38.39-26.98c-24.71-22.54-39.41-54.76-39.41-89.26v-81.66c0-13.06 5.54-25.5 15.24-34.24l8.61-7.75c2.69-2.41 6.76-2.43 9.46-.04l12.13 10.74c18.17 16.08 41.55 25.05 65.82 25.25l79.02.64c6.16.05 11.12 5.05 11.12 11.21z" fill="#ffe5c2"/></g></g></g><path d="m184.649 128.416c20.281 22.051 46.188 37.374 82.26 38.445l88.726 5.556v-12.616c0-6.16-4.96-11.16-11.12-11.21l-79.02-.64c-24.27-.2-47.65-9.17-65.82-25.25l-12.13-10.74c-2.7-2.39-6.77-2.37-9.46.04l-5.871 5.285z" fill="#fed2a4"/><path d="m282.764 366.617c0 15.922-12.907 28.829-28.829 28.829s-28.829-12.907-28.829-28.829v-57.172h57.658z" fill="#ffe5c2"/></g><path d="m268.718 354.653h-29.566c-27.438 0-49.681-22.243-49.681-49.681v-29.463c0-9.839 7.26-18.169 17.007-19.514l24.009-3.311c1.649-.227 3.242-.757 4.698-1.563l13.516-7.474c3.902-2.158 8.617-2.254 12.604-.257l15.96 7.994c1.263.633 2.617 1.063 4.013 1.277l20.402 3.12c9.617 1.471 16.72 9.743 16.72 19.472v29.717c0 27.44-22.243 49.683-49.682 49.683z" fill="#faf7f7"/><g><path d="m218.3 314.778v-12.725c0-19.432 14.339-35.884 33.589-38.538l7.428-1.024c1.649-.227 3.242-.757 4.698-1.563l13.516-7.474c.804-.444 1.657-.77 2.516-1.039-.957-.24-1.897-.587-2.781-1.03l-15.959-7.994c-3.987-1.997-8.702-1.901-12.605.257l-13.516 7.474c-1.457.805-3.049 1.335-4.698 1.562l-24.009 3.311c-9.747 1.344-17.007 9.674-17.007 19.513v29.463c0 27.158 21.824 49.227 48.875 49.675-12.15-9.056-20.047-23.55-20.047-39.868z" fill="#f9f3f1"/></g></g><g><path d="m392.974 159.979c.251-4.135-2.897-7.689-7.032-7.94-4.142-.26-7.689 2.898-7.94 7.032l-2.003 33.016c-1.285-.209-2.602-.322-3.945-.322h-8.916v-31.96c0-10.237-8.329-18.634-18.565-18.717l-79.015-.641c-11.882-.097-23.519-2.451-34.587-6.997-3.832-1.573-8.214.257-9.787 4.088-1.574 3.832.256 8.214 4.088 9.787 12.847 5.276 26.36 8.009 40.164 8.122l79.016.641c2.033.017 3.687 1.684 3.687 3.717v48.293l-35.615 43.701c-2.908-1.7-6.178-2.89-9.708-3.43l-20.406-3.121c-.622-.095-1.221-.286-1.785-.568l-15.96-7.994c-6.2-3.105-13.524-2.956-19.592.399l-13.514 7.473c-.654.361-1.359.596-2.095.697l-24.009 3.311c-2.774.383-5.404 1.189-7.835 2.338l-35.885-44.032v-52.883c0-10.913 4.652-21.359 12.763-28.661l8.347-7.513 11.858 10.496c.244.216.493.424.743.632l.325.273c3.136 2.707 7.871 2.359 10.579-.775 2.707-3.135 2.36-7.871-.775-10.578-.179-.154-.36-.306-.542-.456-.127-.106-.256-.212-.384-.325l-12.128-10.734c-5.564-4.925-13.925-4.889-19.448.082l-8.61 7.75c-11.267 10.142-17.728 24.651-17.728 39.81v37.776h-8.916c-1 0-1.984.067-2.953.185l-5.497-90.597c-.9-14.839 6.308-29.05 18.813-37.089 1.517-.975 2.631-2.463 3.14-4.192l1.254-4.266c7.063-24.028 29.489-40.807 54.533-40.807h96.652c25.044 0 47.47 16.779 54.535 40.806l1.254 4.266c.509 1.729 1.623 3.218 3.14 4.192 12.505 8.039 19.713 22.25 18.813 37.089l-1.563 25.756c-.251 4.135 2.897 7.689 7.032 7.94 4.132.271 7.689-2.897 7.94-7.032l1.563-25.756c1.17-19.288-7.698-37.8-23.292-48.995l-.498-1.692c-8.928-30.366-37.271-51.574-68.924-51.574h-96.652c-31.653 0-59.996 21.208-68.926 51.573l-.498 1.692c-15.593 11.195-24.462 29.707-23.292 48.995l5.881 96.932c-4.291 4.412-6.941 10.428-6.941 17.054v17.043c0 13.5 10.983 24.482 24.483 24.482h10.861c4.794 27.245 18.335 52.506 38.782 71.62 6.109 12.88 16.892 23.121 30.146 28.533v8.692c0 1.052.055 2.092.143 3.122l-64.193 36.509c-24.22 13.773-39.265 39.639-39.265 67.501v28.664c0 4.143 3.358 7.5 7.5 7.5s7.5-3.357 7.5-7.5v-28.664c0-22.48 12.139-43.349 31.681-54.462l61.312-34.87c6.238 11.049 18.084 18.529 31.652 18.529 13.567 0 25.413-7.481 31.652-18.529l26.297 14.956c1.17.665 2.444.981 3.701.981 2.609 0 5.144-1.363 6.526-3.793 2.047-3.601.789-8.18-2.812-10.228l-29.179-16.595c.088-1.03.143-2.069.143-3.122v-8.692c12.077-4.932 22.1-13.874 28.407-25.169 22.614-19.527 37.493-46.023 42.543-74.983h10.838c13.5 0 24.483-10.982 24.483-24.482v-17.043c0-6.128-2.269-11.733-6.003-16.032zm-246.241 82.793h-8.917c-5.229 0-9.483-4.254-9.483-9.482v-17.043c0-5.229 4.254-9.482 9.483-9.482h8.916zm15-12.157 24.6 30.185c-2.763 4.272-4.363 9.336-4.363 14.708v24.699c-13.036-18.816-20.237-41.349-20.237-64.561zm113.531 136.002c0 11.761-9.568 21.329-21.329 21.329s-21.329-9.568-21.329-21.329v-4.85c2.15.246 40.508.246 42.658 0zm35.636-61.645c0 23.259-18.922 42.182-42.182 42.182h-29.566c-23.259 0-42.182-18.923-42.182-42.182v-29.463c0-6.062 4.528-11.256 10.532-12.084l24.01-3.311c2.57-.354 5.026-1.172 7.302-2.429l13.517-7.474c.906-.502 1.91-.753 2.916-.753.924 0 1.849.212 2.7.639l15.958 7.993c1.967.986 4.068 1.654 6.239 1.985l20.402 3.121c6 .917 10.354 5.988 10.354 12.058zm15-1.932v-27.785c0-4.486-1.072-8.723-2.985-12.463l25.222-30.949v3.804c0 24.551-7.918 48.075-22.237 67.393zm55.636-69.75c0 5.229-4.254 9.482-9.483 9.482h-8.917v-36.008h8.916c5.229 0 9.483 4.254 9.483 9.482v17.044z"/><path d="m354.315 406.248-7.231-4.113c-3.602-2.046-8.18-.789-10.228 2.812-2.048 3.6-.79 8.179 2.811 10.228l7.232 4.113c19.541 11.113 31.68 31.981 31.68 54.462v28.664c0 4.143 3.358 7.5 7.5 7.5s7.5-3.357 7.5-7.5v-28.664c.001-27.863-15.045-53.729-39.264-67.502z"/></g></g></svg>