<svg id="Capa_1" enable-background="new 0 0 511.798 511.798" height="512" viewBox="0 0 511.798 511.798" width="512" xmlns="http://www.w3.org/2000/svg"><g><g><path d="m433.99 273.678v-236.415c0-16.438-13.325-29.763-29.763-29.763-16.438 0-29.763 13.325-29.763 29.763v236.415c-11.639 8.941-19.149 22.992-19.149 38.803 0 27.013 21.899 48.912 48.912 48.912s48.912-21.898 48.912-48.912c0-15.811-7.509-29.862-19.149-38.803z" fill="#f9f3f1"/><path d="m320.811 202.63 4.684-74.48c4.047-64.35-47.053-118.765-111.53-118.765h-20.706-48.326c-28.544 0-53.677 18.806-61.73 46.19l-1.254 4.265c-14.803 9.516-23.31 26.287-22.244 43.852l6.003 98.938 1.275 24.024h252.017z" fill="#cdbfba"/><path d="m219.714 375.571 68.718 39.081c21.928 12.471 35.472 35.755 35.472 60.982v18.578c0 5.571-4.516 10.087-10.087 10.087h-244.115c-5.571 0-10.087-4.516-10.087-10.087v-18.578c0-25.226 13.544-48.511 35.472-60.982l68.718-39.081 15.574-8.657h27.18z" fill="#fef0ae"/><path d="m191.76 366.914h-12.38l-15.574 8.657-68.718 39.081c-21.928 12.471-35.472 35.755-35.472 60.981v18.578c0 5.571 4.516 10.086 10.087 10.086h26.083v-11.709c0-25.227 13.544-48.51 35.472-60.982l60.503-34.409v-30.283z" fill="#fee97d"/><g fill="#ffcebf"><path d="m309.877 252.158h-30.416v-51.009h30.416c9.379 0 16.983 7.604 16.983 16.983v17.043c0 9.379-7.603 16.983-16.983 16.983z"/><path d="m75.641 252.158h30.416v-51.009h-30.416c-9.379 0-16.983 7.604-16.983 16.983v17.043c0 9.379 7.604 16.983 16.983 16.983z"/><path d="m220.589 368.502c0 15.922-12.907 28.829-28.829 28.829s-28.829-12.907-28.829-28.829v-75.859h57.658z"/></g><g><g id="XMLID_429_"><g><path d="m293.463 144.196v93.34c0 46.61-26.82 89.07-68.91 109.1l-10.94 5.21c-13.19 6.28-28.51 6.28-41.71 0l-10.93-5.21c-42.1-20.03-68.92-62.49-68.92-109.1v-93.34c0-4.88 3.96-8.84 8.84-8.84h183.73c4.88 0 8.84 3.96 8.84 8.84z" fill="#ffdfcf"/></g></g><path d="m192.545 204.366c19.192 0 38.718-1.479 58.032-4.394 10.037-1.513 18.117-9.207 20.105-19.146 3.017-15.078 3.998-30.299 2.96-45.471h-161.53c-1.047 15.491-.134 30.687 2.744 45.386 1.952 9.965 10.017 17.693 20.066 19.23 19.046 2.918 38.432 4.395 57.623 4.395z" fill="#ffcebf"/><path d="m247.596 180.196c-37.002 5.585-73.547 5.533-109.647.007-1.731-.265-3.129-1.587-3.465-3.305-3.741-19.11-3.74-38.968.006-59.574.33-1.817 1.839-3.199 3.675-3.393 36.601-3.879 73.03-3.917 109.281.001 1.805.195 3.296 1.537 3.651 3.318 3.962 19.885 3.953 39.769-.027 59.654-.342 1.714-1.744 3.031-3.474 3.292z" fill="#a6e7f0"/><path d="m167.394 111.658c-9.731.486-19.474 1.238-29.229 2.272-1.836.195-3.345 1.577-3.675 3.394-3.745 20.606-3.747 40.464-.006 59.574.336 1.718 1.735 3.04 3.465 3.305 9.772 1.496 19.579 2.577 29.417 3.267-3.344-23.084-3.335-47.021.028-71.812z" fill="#6bd9e7"/><circle cx="404.227" cy="312.481" fill="#f37c7c" r="19.838"/></g></g><g><path d="m332.98 128.62c1.572-24.99-4.577-49.381-17.782-70.534-2.194-3.514-6.819-4.581-10.334-2.391-3.514 2.193-4.584 6.82-2.391 10.334 11.538 18.482 16.911 39.801 15.536 61.649l-4.169 66.296c-1.291-.211-2.613-.325-3.963-.325h-8.916v-49.454c0-9.007-7.328-16.335-16.335-16.335h-24.243c-.49-4.034-1.131-8.062-1.931-12.078-1-5.016-5.099-8.756-10.201-9.309-36.439-3.937-73.744-3.938-110.876-.001-5.125.542-9.346 4.453-10.265 9.511-.723 3.976-1.31 7.936-1.764 11.877h-24.455c-9.007 0-16.335 7.328-16.335 16.335v49.454h-8.916c-1 0-1.984.067-2.953.185l-5.497-90.597c-.9-14.839 6.308-29.05 18.813-37.089 1.517-.975 2.631-2.463 3.14-4.192l1.254-4.266c7.065-24.025 29.491-40.806 54.535-40.806h69.032c25.574 0 50.164 9.348 69.241 26.321 3.096 2.754 7.834 2.476 10.589-.618 2.753-3.095 2.477-7.835-.618-10.589-21.826-19.418-49.957-30.113-79.211-30.113h-69.032c-31.653 0-59.996 21.208-68.926 51.573l-.497 1.692c-15.593 11.195-24.462 29.707-23.292 48.995l5.881 96.932c-4.291 4.412-6.941 10.428-6.941 17.054v17.043c0 13.5 10.983 24.482 24.483 24.482h10.864c2.068 11.76 5.76 23.248 10.973 33.969 1.298 2.669 3.97 4.223 6.75 4.223 1.101 0 2.218-.243 3.274-.757 3.725-1.812 5.276-6.3 3.465-10.024-7.465-15.353-11.411-32.481-11.411-49.536v-93.336c0-.736.599-1.335 1.335-1.335h23.378c-.347 12.097.599 23.962 2.854 35.479.941 4.807 4.836 8.534 9.691 9.277 18.422 2.819 37.042 4.229 55.731 4.229 18.698 0 37.466-1.411 56.168-4.234 4.849-.73 8.751-4.443 9.711-9.238 2.357-11.779 3.377-23.653 3.066-35.514h23.135c.736 0 1.335.599 1.335 1.335v93.336c0 43.482-25.37 83.651-64.634 102.334l-10.938 5.206c-11.205 5.332-24.057 5.33-35.258 0l-10.939-5.206c-13.98-6.652-26.256-15.941-36.489-27.611-2.73-3.115-7.47-3.426-10.583-.695-3.115 2.731-3.426 7.47-.695 10.584 11.016 12.565 24.132 22.688 39.006 30.13v16.229c0 1.052.055 2.092.143 3.122l-64.193 36.51c-24.219 13.773-39.265 39.639-39.265 67.501v28.664c0 4.143 3.358 7.5 7.5 7.5s7.5-3.357 7.5-7.5v-28.664c0-22.48 12.139-43.349 31.68-54.462l61.313-34.871c6.238 11.049 18.084 18.53 31.652 18.53 13.567 0 25.414-7.481 31.652-18.53l61.312 34.87c19.542 11.113 31.681 31.981 31.681 54.462v28.664c0 4.143 3.357 7.5 7.5 7.5s7.5-3.357 7.5-7.5v-28.664c0-27.862-15.046-53.728-39.265-67.501l-64.194-36.509c.088-1.03.143-2.069.143-3.122v-15.249c21.796-10.445 40.135-26.754 53.044-47.194 8.991-14.235 15.037-29.987 17.906-46.402h10.839c13.5 0 24.482-10.982 24.482-24.482v-17.043c0-6.127-2.268-11.731-6.001-16.03zm-257.339 116.037c-5.229 0-9.483-4.254-9.483-9.482v-17.043c0-5.229 4.254-9.482 9.483-9.482h8.916s.069 33.634.203 36.008h-9.119zm168.519-71.535c-34.353 4.962-68.893 4.967-102.749.016-2.966-16.645-2.957-34.116.028-52.006 34.425-3.482 68.97-3.48 102.763-.002 3.141 17.263 3.127 34.73-.042 51.992zm-52.4 216.709c-11.761 0-21.329-9.568-21.329-21.329v-9.114c7.149 3.111 14.736 4.688 22.329 4.688 6.888 0 13.772-1.298 20.329-3.859v8.285c0 11.761-9.569 21.329-21.329 21.329zm127.6-154.656c0 5.229-4.254 9.482-9.482 9.482h-9.133c.131-2.369.217-36.008.217-36.008h8.916c5.229 0 9.482 4.254 9.482 9.482z"/><path d="m184.907 80.517c-2.872 2.984-2.781 7.732.204 10.604 1.455 1.399 3.329 2.096 5.2 2.096 1.968 0 3.933-.77 5.405-2.3l7.063-7.339c3.562-3.701 5.381-8.763 4.989-13.886-.392-5.122-2.959-9.849-7.043-12.966l-2.537-1.936c-1.03-.787-1.191-1.838-1.196-2.394-.004-.557.14-1.61 1.159-2.413l3.751-2.956c3.253-2.563 3.813-7.279 1.249-10.532-2.564-3.255-7.279-3.813-10.533-1.249l-3.752 2.956c-4.412 3.478-6.917 8.693-6.874 14.312.043 5.617 2.63 10.793 7.095 14.2l2.536 1.936c.943.72 1.149 1.679 1.188 2.187s-.019 1.486-.841 2.341z"/><path d="m141.942 80.517c-2.872 2.984-2.781 7.732.204 10.604 1.455 1.399 3.329 2.096 5.2 2.096 1.968 0 3.933-.77 5.405-2.3l7.063-7.339c3.562-3.702 5.38-8.763 4.988-13.886-.392-5.122-2.959-9.849-7.043-12.966l-2.536-1.936c-1.031-.787-1.192-1.838-1.196-2.395-.004-.556.141-1.609 1.159-2.412l3.751-2.956c3.253-2.563 3.813-7.279 1.249-10.532-2.564-3.255-7.279-3.813-10.533-1.249l-3.752 2.956c-4.412 3.478-6.917 8.693-6.874 14.311s2.63 10.793 7.095 14.201l2.536 1.936c.943.72 1.148 1.679 1.188 2.187.039.508-.019 1.486-.841 2.341z"/><path d="m224.818 80.517c-2.872 2.984-2.781 7.732.204 10.604 1.455 1.399 3.329 2.096 5.2 2.096 1.968 0 3.933-.77 5.405-2.3l7.063-7.339c3.562-3.702 5.38-8.763 4.988-13.886-.392-5.122-2.959-9.849-7.043-12.966l-2.537-1.936c-1.03-.787-1.191-1.838-1.196-2.394-.004-.557.14-1.61 1.159-2.413l3.751-2.956c3.253-2.563 3.813-7.279 1.249-10.532-2.565-3.255-7.279-3.813-10.533-1.249l-3.752 2.956c-4.412 3.478-6.917 8.693-6.874 14.312.043 5.617 2.63 10.793 7.095 14.2l2.536 1.936c.943.72 1.148 1.679 1.188 2.187.039.508-.019 1.486-.841 2.341z"/><path d="m376.889 312.481c0 15.073 12.264 27.337 27.338 27.337s27.338-12.264 27.338-27.337c0-15.074-12.264-27.338-27.338-27.338s-27.338 12.264-27.338 27.338zm27.338-12.337c6.803 0 12.338 5.535 12.338 12.338s-5.535 12.337-12.338 12.337-12.338-5.534-12.338-12.337 5.536-12.338 12.338-12.338z"/><path d="m441.49 270.138v-51.526c0-4.143-3.357-7.5-7.5-7.5s-7.5 3.357-7.5 7.5v55.066c0 2.33 1.083 4.528 2.931 5.947 10.308 7.918 16.219 19.894 16.219 32.856 0 22.834-18.577 41.411-41.412 41.411s-41.412-18.577-41.412-41.411c0-12.963 5.911-24.938 16.218-32.856 1.848-1.419 2.931-3.617 2.931-5.947v-236.415c0-12.275 9.987-22.263 22.264-22.263 12.275 0 22.263 9.987 22.263 22.263v149.386c0 4.143 3.357 7.5 7.5 7.5s7.5-3.357 7.5-7.5v-149.386c-.002-20.547-16.718-37.263-37.265-37.263s-37.264 16.716-37.264 37.263v232.875c-12.216 10.723-19.148 25.952-19.148 42.344 0 31.105 25.307 56.411 56.412 56.411s56.412-25.306 56.412-56.411c0-16.392-6.932-31.622-19.149-42.344z"/><path d="m396.727 262.774c0 4.143 3.357 7.5 7.5 7.5s7.5-3.357 7.5-7.5v-13.237c0-4.143-3.357-7.5-7.5-7.5s-7.5 3.357-7.5 7.5z"/><path d="m404.227 225.522c4.143 0 7.5-3.357 7.5-7.5v-179.007c0-4.143-3.357-7.5-7.5-7.5s-7.5 3.357-7.5 7.5v179.008c0 4.142 3.358 7.499 7.5 7.499z"/></g></g></svg>