<svg id="Capa_1" enable-background="new 0 0 511.31 511.31" height="512" viewBox="0 0 511.31 511.31" width="512" xmlns="http://www.w3.org/2000/svg"><g><g><g id="XMLID_440_"><g><path d="m382.085 132.187c13.55 14.97 16.21 36.85 6.63 54.62l-8.31 15.42-21.35 35.91-77.34-6.84 30.64-126.5 69.443 27.099z" fill="#fef0ae"/></g></g><path d="m205.885 34.357c-5.6-2.11-11.68-3.26-18.03-3.26-28.29 0-51.23 22.94-51.23 51.23 0 .93.03 1.85.08 2.77-13.97 3.73-24.25 16.47-24.25 31.61 0 10.54 4.99 19.91 12.73 25.9-6.4 6.58-10.35 15.56-10.35 25.46 0 14.52 8.47 27.06 20.75 32.95l64.049 37.123 84.35-171.705z" fill="#fef0ae"/><path d="m283.109 375.082 68.718 39.081c21.928 12.471 35.472 35.755 35.472 60.982v18.553c0 5.585-4.527 10.112-10.112 10.112h-244.065c-5.585 0-10.112-4.527-10.112-10.112v-18.553c0-25.226 13.544-48.511 35.472-60.982l68.718-39.081 12.522-7.339h32.575z" fill="#fef0ae"/><path d="m270.536 367.743h-30.814l-12.521 7.339-68.718 39.081c-21.928 12.471-35.472 35.755-35.472 60.981v18.553c0 5.584 4.527 10.112 10.112 10.112h28.589v-8.919c0-25.226 13.544-48.51 35.472-60.981l68.718-39.081 4.635-2.717v-24.368z" fill="#fee97d"/><path d="m283.984 368.014c0 15.922-12.907 28.829-28.829 28.829s-28.829-12.907-28.829-28.829v-65.074h57.658z" fill="#fed2a4"/><g><g id="XMLID_438_"><g><path d="m183.455 242.627v9.04h-35.9c-7.04 0-13.42-2.86-18.03-7.47s-7.47-10.99-7.47-18.03c0-10.13 5.9-18.88 14.44-23 3.35-1.61 7.1-2.51 11.06-2.51h35.9z" fill="#fed2a4"/><path d="m364.755 200.657c14.08 0 25.5 11.42 25.5 25.51 0 7.04-2.86 13.42-7.47 18.03s-10.99 7.47-18.03 7.47h-36.9v-14.62-36.39z" fill="#fed2a4"/><path d="m244.217 74.874-51.432 16.244-10.85 8.89c-16.76 13.74-26.48 34.28-26.48 55.95v44.7 41.97c0 43.2 24.85 82.56 63.87 101.12l19.78 9.41c10.79 5.14 23.32 5.14 34.11 0l14.73-7.01c42.1-20.03 68.91-62.49 68.91-109.1v-36.39-46.58l2.2-32.932z" fill="#ffe5c2"/><path d="m356.855 154.077c-5.27 1.99-10.98 3.08-16.95 3.08-18.7 0-34.89-10.7-42.81-26.3-7.17 6.64-16.76 10.71-27.31 10.71-19.6 0-35.91-14.03-39.47-32.6-1.31.13-2.64.2-3.99.2-14.02 0-26.35-7.18-33.54-18.05-4.2-6.35-6.65-13.96-6.65-22.14 0-14.74 7.93-27.62 19.75-34.62 5.99-3.55 12.98-5.58 20.44-5.58 1.87 0 3.71.14 5.51.39 3.69-12.53 15.27-21.67 28.99-21.67 11.33 0 21.19 6.23 26.37 15.45 6-3.79 13.11-5.98 20.73-5.98 21.5 0 38.93 17.43 38.93 38.93 0 1.95-.15 3.86-.42 5.74 23.41 3.18 41.46 23.24 41.46 47.53 0 8.33-2.12 16.16-5.85 22.98-5.47 10.01-14.41 17.86-25.19 21.93z" fill="#fee97d"/></g><g fill="#fef0ae"><path d="m496.595 13.717-54.32 28.41c-1.32.69-1.45 2.52-.25 3.4l10.5 7.7c.99.72 1.11 2.16.25 3.03l-31.82 32.33c-1.56 1.58.23 4.15 2.26 3.24l67.53-30.25c1.4-.63 1.61-2.52.39-3.44l-10.85-8.21c-.83-.63-1.05-1.8-.49-2.68l19.43-30.67c1.11-1.74-.8-3.81-2.63-2.86z"/><path d="m14.715 13.717 54.32 28.41c1.32.69 1.45 2.52.25 3.4l-10.5 7.7c-.99.72-1.11 2.16-.25 3.03l31.82 32.33c1.56 1.58-.23 4.15-2.26 3.24l-67.53-30.25c-1.4-.63-1.61-2.52-.39-3.44l10.85-8.21c.83-.63 1.05-1.8.49-2.68l-19.43-30.67c-1.11-1.74.8-3.81 2.63-2.86z"/></g></g></g><path d="m297.095 130.857c-7.17 6.64-16.76 10.71-27.31 10.71-19.6 0-35.91-14.03-39.47-32.6-1.31.13-2.64.2-3.99.2-14.02 0-26.35-7.18-33.54-18.05l-10.85 8.89c-1.567 1.285-3.072 2.629-4.514 4.028 9.267 12.923 23.093 21.544 38.508 24.234 9.988 19.971 30.636 33.298 53.855 33.298 7.661 0 15.148-1.445 22.121-4.201 12.524 12.52 29.623 19.791 47.999 19.791 5.763 0 11.436-.732 16.95-2.151v-20.929c-5.27 1.99-10.98 3.08-16.95 3.08-18.699 0-34.889-10.699-42.809-26.3z" fill="#fed2a4"/></g><g><path d="m355.535 407.645-4.371-2.486c-3.602-2.045-8.179-.789-10.228 2.812-2.048 3.601-.789 8.18 2.812 10.228l4.371 2.486c19.541 11.113 31.681 31.981 31.681 54.462v28.664c0 4.143 3.357 7.5 7.5 7.5s7.5-3.357 7.5-7.5v-28.664c-.001-27.864-15.047-53.729-39.265-67.502z"/><path d="m390.867 131.092c2.906-6.729 4.524-14.14 4.524-21.924 0-25.232-17.212-47.139-41.035-53.569-.162-25.466-20.929-46.135-46.433-46.135-6.362 0-12.608 1.299-18.387 3.795-7.097-8.313-17.566-13.259-28.71-13.259-14.521 0-27.724 8.503-33.951 21.282-7.791-.096-15.152 1.698-21.677 4.933-5.597-1.731-11.412-2.62-17.341-2.62-7.781 0-15.354 1.506-22.508 4.477-3.825 1.589-5.639 5.978-4.051 9.803 1.198 2.886 3.989 4.626 6.93 4.626.958 0 1.933-.185 2.873-.575 5.321-2.21 10.959-3.33 16.756-3.33.562 0 1.12.024 1.679.045-6.809 8.252-10.904 18.824-10.904 30.333 0 7.264 1.634 14.153 4.551 20.321l-5.998 4.916c-18.577 15.225-29.231 37.731-29.231 61.75v37.201h-.395c-2.984 0-5.873.405-8.624 1.151-.038-.019-.072-.042-.11-.06-10.02-4.803-16.493-15.08-16.493-26.183 0-7.596 2.923-14.78 8.229-20.231 1.491-1.531 2.258-3.626 2.107-5.759-.15-2.132-1.203-4.099-2.895-5.406-6.241-4.825-9.82-12.103-9.82-19.968 0-11.403 7.684-21.423 18.687-24.366 3.424-.916 5.739-4.104 5.551-7.645-.045-.84-.066-1.613-.066-2.366 0-7.989 2.174-15.804 6.287-22.601 2.145-3.544 1.01-8.155-2.534-10.3-3.542-2.143-8.154-1.012-10.3 2.534-5.094 8.418-7.976 17.99-8.398 27.831-14.514 6.288-24.226 20.727-24.226 36.912 0 9.943 3.583 19.296 10.021 26.574-4.967 7.259-7.643 15.836-7.643 24.79 0 13.642 6.443 26.459 16.966 34.707-6.013 5.981-9.743 14.257-9.743 23.388 0 18.198 14.806 33.004 33.004 33.004h1.566c.984 7.038 2.573 13.984 4.804 20.771 1.038 3.157 3.972 5.159 7.124 5.159.776 0 1.566-.121 2.344-.377 3.935-1.294 6.076-5.533 4.782-9.468-3.468-10.545-5.226-21.523-5.226-32.631v-86.662c0-19.506 8.652-37.784 23.739-50.148l4.998-4.096c8.331 8.807 19.967 14.457 32.906 14.921 6.444 19.126 24.528 32.432 45.19 32.432 9.02 0 17.735-2.528 25.257-7.235 10.344 14.26 26.852 22.823 44.859 22.823 3.224 0 6.379-.292 9.454-.822v73.209c0 43.482-25.37 83.65-64.634 102.334l-14.735 7.013c-8.792 4.184-18.875 4.184-27.665 0l-19.775-9.41c-16.222-7.719-30.262-19.586-40.604-34.317-2.379-3.389-7.055-4.208-10.448-1.829-3.39 2.38-4.209 7.058-1.829 10.448 11.825 16.845 27.883 30.414 46.436 39.243l2.724 1.296v16.193c0 1.052.055 2.092.143 3.122l-64.194 36.509c-24.219 13.773-39.265 39.639-39.265 67.501v28.664c0 4.143 3.357 7.5 7.5 7.5s7.5-3.357 7.5-7.5v-28.664c0-22.48 12.14-43.349 31.681-54.462l61.312-34.87c6.238 11.049 18.084 18.529 31.652 18.529s25.414-7.481 31.652-18.53l29.077 16.536c1.171.666 2.444.981 3.701.981 2.609 0 5.145-1.363 6.526-3.793 2.048-3.601.789-8.18-2.812-10.228l-31.958-18.175c.088-1.03.143-2.069.143-3.122v-15.249c21.796-10.445 40.134-26.754 53.044-47.194 8.991-14.235 15.037-29.987 17.906-46.402h2.317c18.198 0 33.004-14.806 33.004-33.004 0-8.927-3.569-17.033-9.347-22.98l6.908-12.815c10.244-19.003 8.352-42.181-4.449-59.277zm-243.309 113.077c-9.928 0-18.004-8.076-18.004-18.004s8.076-18.004 18.004-18.004h.395s.024 35.492.031 36.008zm107.597 145.174c-11.761 0-21.329-9.568-21.329-21.329v-9.055l2.052.976c6.443 3.066 13.36 4.6 20.277 4.6 6.918 0 13.835-1.533 20.278-4.6l.051-.024v8.103c0 11.76-9.569 21.329-21.329 21.329zm48.631-261.884c-1.064-2.098-3.053-3.574-5.368-3.987-.439-.079-.881-.117-1.319-.117-1.875 0-3.7.703-5.099 1.999-6.063 5.62-13.951 8.715-22.213 8.715-15.662 0-29.163-11.148-32.102-26.509-.729-3.811-4.248-6.435-8.104-6.055-1.094.108-2.189.163-3.256.163-18.027 0-32.694-14.667-32.694-32.694s14.667-32.694 32.694-32.694c1.452 0 2.963.106 4.488.315 3.666.498 7.162-1.753 8.212-5.308 2.83-9.59 11.794-16.287 21.8-16.287 8.203 0 15.803 4.453 19.831 11.622 1.007 1.791 2.704 3.091 4.696 3.596 1.99.502 4.104.17 5.842-.927 5.009-3.158 10.793-4.827 16.729-4.827 17.333 0 31.434 14.101 31.434 31.434 0 1.537-.115 3.098-.344 4.638-.294 1.982.219 4 1.422 5.603 1.204 1.603 2.999 2.657 4.985 2.928 19.937 2.714 34.971 19.954 34.971 40.103 0 22.325-18.163 40.488-40.488 40.488-15.327-.002-29.166-8.507-36.117-22.199zm78.314 17.682c6.299 11.706 6.508 26.061.012 38.112l-6.361 11.8c-3.443-1.221-7.144-1.892-11-1.892h-.395v-34.2c6.823-3.364 12.853-8.09 17.744-13.82zm-17.349 99.028h-.611c.131-2.369.217-36.008.217-36.008h.395c9.928 0 18.004 8.076 18.004 18.004s-8.077 18.004-18.005 18.004z"/><path d="m492.614 116.872c-.033 0-.066 0-.101.001l-34.315.449c-2.356.03-4.563 1.168-5.954 3.07s-1.809 4.349-1.125 6.604l1.596 5.266-30.063.156c-4.142.021-7.482 3.397-7.461 7.539.021 4.129 3.375 7.461 7.499 7.461h.04l40.118-.209c2.367-.013 4.591-1.142 5.996-3.047s1.829-4.362 1.143-6.629l-1.62-5.344 24.344-.319c4.142-.054 7.455-3.455 7.4-7.598-.054-4.107-3.401-7.4-7.497-7.4z"/><path d="m89.658 132.419-30.063-.156 1.596-5.266c.684-2.256.267-4.702-1.125-6.604s-3.598-3.04-5.954-3.07l-34.315-.449c-.034-.001-.067-.001-.101-.001-4.096 0-7.443 3.294-7.497 7.401-.055 4.143 3.259 7.544 7.4 7.598l24.344.319-1.62 5.344c-.687 2.267-.263 4.724 1.143 6.629s3.629 3.034 5.996 3.047l40.118.209h.04c4.124 0 7.478-3.332 7.499-7.461.021-4.143-3.32-7.519-7.461-7.54z"/><path d="m220.834 297.037 5.866-4.854 8.93 6.264c4.526 3.176 10.747 2.745 14.791-1.025l4.733-4.411 4.733 4.411c2.234 2.083 5.132 3.146 8.041 3.146 2.357 0 4.724-.698 6.75-2.12l8.93-6.264 5.866 4.854c3.192 2.642 7.92 2.195 10.56-.995 2.642-3.191 2.195-7.919-.995-10.561l-7.763-6.424c-4.073-3.372-9.943-3.604-14.27-.567l-8.804 6.176-5.021-4.68c-4.502-4.193-11.554-4.192-16.056.001l-5.021 4.679-8.802-6.175c-4.33-3.038-10.196-2.805-14.272.566l-7.762 6.424c-3.19 2.642-3.637 7.369-.995 10.561 2.642 3.191 7.37 3.636 10.561.994z"/><path d="m504.527 9.056c-2.909-3.159-7.601-3.974-11.403-1.985l-54.322 28.408c-2.929 1.533-4.826 4.416-5.074 7.712-.249 3.297 1.194 6.431 3.861 8.387l5.385 3.946-27.362 27.801c-3.258 3.311-3.682 8.286-1.031 12.1 1.845 2.653 4.733 4.107 7.747 4.106 1.318 0 2.661-.278 3.95-.855l67.539-30.256c3.051-1.367 5.182-4.28 5.56-7.603.379-3.322-1.043-6.641-3.711-8.661l-6.826-5.164 16.729-26.406c2.295-3.63 1.867-8.371-1.042-11.53zm-28.768 46.85 3.459 2.616-32.463 14.542 11.359-11.541c1.94-1.969 2.927-4.679 2.705-7.435-.221-2.756-1.626-5.274-3.857-6.911l-3.399-2.491 28.382-14.843-8.482 13.39c-2.626 4.146-1.617 9.713 2.296 12.673z"/><path d="m68.336 55.523 5.386-3.947c2.666-1.955 4.109-5.089 3.86-8.386-.248-3.296-2.146-6.179-5.076-7.713l-54.32-28.407c-3.804-1.988-8.495-1.174-11.403 1.986-2.909 3.159-3.337 7.9-1.039 11.532l16.728 26.403-6.828 5.166c-2.666 2.019-4.088 5.337-3.709 8.659.378 3.322 2.509 6.235 5.561 7.604l67.537 30.254c1.289.578 2.632.856 3.951.856 3.014 0 5.903-1.454 7.747-4.106 2.65-3.813 2.227-8.789-1.031-12.1zm-36.245 2.999 3.458-2.616c3.914-2.96 4.923-8.527 2.297-12.675l-8.481-13.388 28.382 14.843-3.4 2.492c-2.23 1.636-3.636 4.154-3.856 6.91-.222 2.756.765 5.466 2.701 7.431l11.363 11.545z"/></g></g></svg>