<svg id="Capa_1" enable-background="new 0 0 512.163 512.163" height="512" viewBox="0 0 512.163 512.163" width="512" xmlns="http://www.w3.org/2000/svg"><g><g><g id="XMLID_490_"><path d="m389.06 497.065c-5.403-10.766-13.294-20.142-23.059-27.319l-47.49-34.94h-25.315l-57.569 1.447-41.976-1.447-47.49 34.94c-9.765 7.177-17.656 16.553-23.059 27.319-1.751 3.489.825 7.601 4.728 7.601h256.502c3.904 0 6.479-4.112 4.728-7.601z" fill="#fef0ae"/></g><path d="m228.257 435.999-34.605-1.193-47.49 34.94c-9.765 7.177-17.656 16.553-23.059 27.319-1.751 3.489.825 7.601 4.728 7.601h33.656c5.274-9.187 12.422-17.221 21.028-23.546l45.743-33.654v-11.467z" fill="#fee97d"/><path d="m308.332 427.316 10.18 7.49c-41.14 28.68-82.77 28.02-124.86 0l10.18-7.49 14.6-33.26 15.35-46.38h45.73l14.22 46.38z" fill="#ffdfcf"/><path d="m118.558 228.847c-14.04-6.729-23.735-21.074-23.735-37.684 0-11.331 4.519-21.601 11.845-29.125-8.856-6.846-14.565-17.567-14.565-29.627 0-17.319 11.764-31.885 27.736-36.158-.056-1.048-.088-2.101-.088-3.163 0-32.365 26.237-58.601 58.601-58.601 7.259 0 14.21 1.32 20.625 3.733l135.389 77.71-86.036 170.855z" fill="#e1d3ce"/><g id="XMLID_488_"><g><path d="m400.512 150.126c15.5 17.11 18.54 42.14 7.59 62.47l-9.51 17.64-17.29 33.73-92.02 10.37 13.67-147.39 97.302 22.898z" fill="#e1d3ce"/></g></g><path d="m128.589 286.787h41.698v-58.345h-41.698c-14.086 0-25.504 11.419-25.504 25.504v7.336c0 14.086 11.418 25.505 25.504 25.505z" fill="#ffcebf"/><path d="m384.356 286.787h-37.698v-58.345h37.698c14.086 0 25.504 11.419 25.504 25.504v7.336c0 14.086-11.419 25.505-25.504 25.505z" fill="#ffcebf"/><g><path d="m293.732 394.056-3.679-12-10.541-34.381h-26.803-18.927l-15.35 46.38-14.6 33.26-10.18 7.49c10.245 6.82 20.462 12.006 30.652 15.555l9.624-21.924c1.664-5.028 6.775-8.03 11.989-7.098 3.487.623 7.025.943 10.556.943 8.923 0 17.898-2.026 25.954-5.86 0 0 17.067-8.589 17.198-8.941z" fill="#ffcebf"/><path d="m371.657 270.057c0 53.322-30.673 101.887-78.822 124.799l-16.855 8.021c-12.342 5.874-26.674 5.874-39.016 0l-22.619-10.764c-44.628-21.237-73.058-66.251-73.058-115.674v-99.126c0-24.794 11.118-48.281 30.295-63.996l12.406-10.167 56.569-33.357 131.1 65.234z" fill="#ffdfcf"/><path d="m272.065 180.852c7.092 0 14.048-1.129 20.642-3.3 3.311-1.09 6.933-.318 9.524 2.014 13.486 12.139 31.149 19.116 50.034 19.116 6.706 0 13.203-.899 19.392-2.561v-61.094l-131.1-65.234-56.569 33.357-12.406 10.167c-1.037.85-2.045 1.726-3.034 2.62 9.335 13.137 23.345 22.73 39.59 26.312 2.627.579 4.906 2.247 6.211 4.599 11.373 20.5 33.237 34.004 57.716 34.004z" fill="#ffcebf"/><path d="m359.734 69.42c.316-2.142.485-4.332.485-6.561 0-24.595-19.938-44.533-44.533-44.533-8.717 0-16.843 2.514-23.71 6.843-5.924-10.542-17.208-17.669-30.161-17.669-15.693 0-28.937 10.456-33.164 24.78-2.06-.283-4.16-.44-6.298-.44-25.391 0-45.975 20.584-45.975 45.975s20.584 45.975 45.975 45.975c1.541 0 3.065-.079 4.567-.227 4.063 21.236 22.725 37.288 45.145 37.288 12.065 0 23.038-4.653 31.239-12.255 9.06 17.847 27.575 30.085 48.961 30.085 30.315 0 54.89-24.575 54.89-54.89 0-27.78-20.642-50.725-47.421-54.371z" fill="#cdbfba"/><g><path d="m380.456 436.253h.01z" fill="#a6e7f0"/></g></g></g><g><path d="m353.682 321.283c-1.624 3.811.148 8.216 3.958 9.841.959.409 1.957.603 2.938.603 2.915 0 5.688-1.71 6.903-4.561 4.535-10.639 7.752-21.636 9.648-32.879h7.228c18.198 0 33.004-14.806 33.004-33.005v-7.336c0-9.354-3.918-17.805-10.191-23.816l7.531-13.971c11.623-21.563 9.354-47.909-5.382-67.162 3.422-7.714 5.338-16.238 5.338-25.206 0-9.808-2.221-19.206-6.602-27.935-1.858-3.702-6.367-5.197-10.067-3.339-3.702 1.857-5.197 6.365-3.339 10.067 3.323 6.621 5.008 13.756 5.008 21.206 0 26.131-21.259 47.39-47.39 47.39-17.94 0-34.138-9.955-42.273-25.979-1.065-2.099-3.053-3.575-5.369-3.988-2.317-.418-4.692.282-6.417 1.883-7.135 6.613-16.418 10.256-26.141 10.256-18.432 0-34.319-13.12-37.778-31.197-.729-3.811-4.246-6.426-8.104-6.055-1.285.127-2.573.191-3.83.191-21.215 0-38.475-17.26-38.475-38.476s17.26-38.476 38.475-38.476c1.707 0 3.483.125 5.28.371 3.669.498 7.162-1.752 8.211-5.308 3.37-11.423 14.05-19.402 25.969-19.402 9.772 0 18.824 5.305 23.623 13.844 1.006 1.791 2.704 3.091 4.696 3.596 1.993.502 4.104.17 5.842-.926 5.901-3.721 12.717-5.688 19.71-5.688 20.42 0 37.033 16.612 37.033 37.032 0 1.811-.136 3.649-.404 5.466-.293 1.981.22 3.999 1.423 5.601 1.204 1.603 2.999 2.656 4.984 2.927 5.95.81 11.634 2.734 16.895 5.721 3.601 2.046 8.18.783 10.225-2.82 2.045-3.602.782-8.18-2.82-10.225-4.849-2.752-9.975-4.82-15.305-6.181.001-.163.002-.326.002-.488 0-28.69-23.342-52.032-52.033-52.032-7.399 0-14.66 1.568-21.338 4.576-7.918-9.642-19.832-15.403-32.533-15.403-16.43 0-31.344 9.758-38.161 24.356-.436-.011-.87-.017-1.301-.017-8.642 0-16.805 2.073-24.037 5.729-6.435-2.039-13.134-3.08-19.965-3.08-35.721 0-64.915 28.48-66.066 63.927-16.555 6.878-27.684 23.187-27.684 41.495 0 11.395 4.212 22.094 11.759 30.311-5.87 8.269-9.039 18.132-9.039 28.441 0 15.171 7.122 29.43 18.767 38.668-6.457 6.028-10.505 14.606-10.505 24.115v7.336c0 18.199 14.806 33.005 33.004 33.005h6.39c2.561 19.334 9.255 37.93 19.761 54.563 13.216 20.927 31.825 37.742 53.917 48.808l-10.884 24.801-56.06 41.241c-13.209 9.717-23.22 22.975-28.948 38.341-1.447 3.882.526 8.201 4.407 9.647.864.322 1.749.475 2.619.475 3.042 0 5.903-1.864 7.028-4.882 4.706-12.624 12.93-23.516 23.782-31.499l43.351-31.892c21.082 13.121 42.077 19.703 62.861 19.703 20.752 0 41.294-6.55 61.497-19.63l12.533 9.22c1.338.985 2.895 1.46 4.438 1.46 2.304 0 4.577-1.059 6.047-3.057 2.455-3.336 1.739-8.031-1.597-10.485l-25.341-18.643-10.832-24.682c18.455-10.145 34.644-24.273 47.155-41.243 2.458-3.334 1.748-8.029-1.586-10.488-3.333-2.455-8.029-1.748-10.487 1.586-12.721 17.254-29.674 31.241-49.028 40.451l-16.854 8.021c-10.35 4.926-22.222 4.926-32.571 0l-22.619-10.764c-20.615-9.81-37.955-25.197-50.146-44.5-12.191-19.302-18.635-41.572-18.635-64.401v-99.127c0-22.636 10.041-43.847 27.549-58.195l6.499-5.327c9.539 10.469 23.161 17.155 38.328 17.488 7.013 21.822 27.481 37.073 50.902 37.073 10.457 0 20.547-3.03 29.172-8.659 2.658 3.792 5.703 7.234 9.059 10.294-.368.296-.715.629-1.032 1.004-2.674 3.163-2.278 7.896.886 10.569l30.774 26.016c1.408 1.19 3.128 1.772 4.838 1.772 2.131 0 4.248-.903 5.731-2.658 2.674-3.163 2.278-7.896-.886-10.569l-14.141-11.955c5.079 1.319 10.377 2.015 15.798 2.015 4.067 0 8.04-.404 11.893-1.151v85.027c.003 17.688-3.522 34.924-10.473 51.229zm-97.209 93.522c7.754 0 15.508-1.719 22.731-5.155l10.906-5.19 11.351 25.865c.528 1.204 1.364 2.248 2.423 3.027l1.389 1.021c-32.276 18.991-64.576 18.951-98.207-.131l1.211-.891c1.059-.779 1.895-1.823 2.423-3.027l11.486-26.173 11.554 5.498c7.225 3.437 14.979 5.156 22.733 5.156zm-122.686-135.518h-5.198c-9.928 0-18.004-8.077-18.004-18.005v-7.336c0-9.928 8.077-18.004 18.004-18.004h5.198v40.497zm33.041-171.771c-20.998 17.209-33.041 42.648-33.041 69.797v43.63h-5.198c-2.532 0-4.995.296-7.365.839-11.498-5.786-18.902-17.723-18.902-30.618 0-8.971 3.452-17.456 9.719-23.893 1.491-1.532 2.258-3.627 2.108-5.76-.15-2.132-1.203-4.099-2.895-5.406-7.405-5.725-11.652-14.36-11.652-23.693 0-13.529 9.119-25.419 22.174-28.912 3.424-.916 5.739-4.104 5.551-7.643-.052-.974-.077-1.878-.077-2.766 0-28.178 22.924-51.102 51.101-51.102 1.401 0 2.79.077 4.174.19-8.479 9.467-13.648 21.957-13.648 35.636 0 8.442 1.977 16.426 5.475 23.533zm235.532 153.766c0 9.928-8.077 18.005-18.004 18.005h-5.199v-9.191c0-.013 0-.026 0-.039v-34.114h5.198c9.927 0 18.004 8.076 18.004 18.004v7.335zm-1.647-98.238c8.119 13.945 8.644 31.414.783 45.998l-7.234 13.421c-3.128-.986-6.455-1.521-9.905-1.521h-5.198v-40.864c8.392-4.025 15.745-9.878 21.554-17.034z"/><path d="m215.384 337.85 7.345-6.079 10.886 7.637c2.132 1.497 4.622 2.232 7.104 2.232 3.061 0 6.11-1.119 8.46-3.311l6.15-5.73 6.149 5.73c4.256 3.967 10.802 4.421 15.563 1.079l10.887-7.638 7.345 6.078c3.191 2.642 7.919 2.196 10.56-.995s2.195-7.919-.996-10.56l-8.878-7.349c-4.286-3.546-10.46-3.792-15.015-.598l-10.786 7.566-6.382-5.948c-4.738-4.413-12.158-4.412-16.894.001l-6.382 5.947-10.787-7.566c-4.555-3.195-10.729-2.947-15.014.598l-8.878 7.348c-3.191 2.642-3.637 7.369-.996 10.561 2.639 3.191 7.367 3.637 10.559.997z"/><path d="m231.614 275.248 5.39 4.41c5.762 4.712 12.792 7.084 19.838 7.084 6.518 0 13.047-2.031 18.59-6.116l6.979-5.146c3.334-2.458 4.044-7.153 1.586-10.487-2.458-3.335-7.154-4.045-10.487-1.587l-6.979 5.146c-6.012 4.432-14.249 4.226-20.03-.505l-5.39-4.408c-3.206-2.625-7.932-2.15-10.554 1.056-2.622 3.205-2.149 7.931 1.057 10.553z"/><path d="m182.999 238.887c1.445 2.168 3.824 3.341 6.248 3.341 1.429 0 2.875-.408 4.153-1.261l10.09-6.726 9.704 7.568c1.37 1.068 2.995 1.586 4.607 1.586 2.232 0 4.44-.991 5.919-2.888 2.547-3.266 1.965-7.979-1.302-10.526l-5.778-4.506 5.948-3.964c3.447-2.297 4.378-6.953 2.081-10.4-2.297-3.445-6.953-4.377-10.4-2.08l-10.09 6.726-9.704-7.568c-3.267-2.548-7.979-1.966-10.526 1.302-2.547 3.266-1.965 7.979 1.302 10.526l5.778 4.506-5.948 3.964c-3.448 2.296-4.38 6.952-2.082 10.4z"/><path d="m202.898 170.99c-2.673-3.163-7.407-3.561-10.569-.886l-30.774 26.016c-3.164 2.674-3.56 7.406-.886 10.569 1.483 1.755 3.6 2.658 5.731 2.658 1.71 0 3.43-.582 4.838-1.772l30.774-26.016c3.164-2.673 3.561-7.406.886-10.569z"/><path d="m318.764 240.967c1.278.853 2.723 1.261 4.153 1.261 2.424 0 4.802-1.173 6.248-3.341 2.297-3.447 1.366-8.104-2.081-10.4l-5.948-3.964 5.778-4.506c3.267-2.548 3.849-7.261 1.302-10.526-2.548-3.268-7.261-3.85-10.526-1.302l-9.704 7.568-10.09-6.726c-3.445-2.298-8.103-1.366-10.4 2.08-2.297 3.447-1.366 8.104 2.081 10.4l5.948 3.964-5.778 4.506c-3.267 2.548-3.849 7.261-1.302 10.526 1.479 1.896 3.688 2.888 5.919 2.888 1.612 0 3.237-.518 4.607-1.586l9.704-7.568z"/><path d="m474.564 184.946-6.622-13.633c-.313-.644-.32-1.386-.021-2.035l6.591-14.3c2.84-6.163 1.815-13.469-2.611-18.611l-11.491-13.351c-.556-.646-.724-1.547-.439-2.35l6.499-18.284c2.535-7.135.198-15.021-5.816-19.622l-14.742-11.278c-3.29-2.515-7.997-1.89-10.514 1.399-2.517 3.29-1.891 7.997 1.399 10.515l14.741 11.277c.823.63 1.143 1.71.796 2.687l-6.498 18.283c-2.084 5.865-.857 12.438 3.203 17.157l11.492 13.352c.606.704.746 1.704.357 2.548l-6.59 14.298c-2.189 4.747-2.134 10.166.15 14.868l6.621 13.633c.377.777.303 1.699-.193 2.407l-11.158 15.885c-2.381 3.389-1.563 8.067 1.826 10.448 1.312.921 2.815 1.363 4.305 1.363 2.36 0 4.684-1.111 6.144-3.19l11.158-15.885c3.63-5.166 4.171-11.902 1.413-17.581z"/><path d="m63.123 132.8c4.06-4.718 5.287-11.291 3.203-17.156l-6.498-18.282c-.347-.978-.027-2.058.795-2.687l14.742-11.278c3.29-2.518 3.917-7.225 1.399-10.515-2.517-3.291-7.226-3.915-10.514-1.399l-14.742 11.279c-6.013 4.601-8.35 12.486-5.815 19.622l6.498 18.283c.285.803.117 1.703-.438 2.349l-11.491 13.352c-4.427 5.143-5.452 12.448-2.611 18.612l6.591 14.3c.299.648.292 1.391-.021 2.034l-6.622 13.633c-2.758 5.679-2.217 12.415 1.412 17.581l11.158 15.885c1.46 2.079 3.783 3.19 6.144 3.19 1.489 0 2.994-.442 4.305-1.363 3.389-2.381 4.207-7.06 1.826-10.448l-11.158-15.885c-.497-.708-.571-1.63-.194-2.407l6.622-13.633c2.284-4.702 2.338-10.121.15-14.867l-6.59-14.298c-.389-.845-.249-1.845.357-2.549z"/><path d="m128.862 447.89 3.458-11.754 15.237-2.899c4.069-.775 6.74-4.701 5.965-8.771-.774-4.069-4.701-6.74-8.77-5.966l-15.848 3.017c-5.174.984-9.312 4.734-10.799 9.789l-3.483 11.841-15.206 5.11c-5.043 1.695-8.738 6.2-9.414 11.479l-.939 7.345-10.231 4.485c-4.471 1.96-7.633 6.186-8.253 11.028l-1.865 14.574c-.525 4.109 2.379 7.866 6.488 8.392.323.041.644.062.961.062 3.718 0 6.946-2.764 7.43-6.549l1.792-14.002 10.23-4.484c4.472-1.961 7.634-6.187 8.254-11.03l.932-7.283 15.103-5.076c4.322-1.454 7.671-4.932 8.958-9.308z"/><path d="m441.585 482.594c-.62-4.843-3.782-9.068-8.254-11.029l-10.23-4.484-.939-7.347c-.676-5.276-4.371-9.781-9.414-11.477l-15.206-5.11-3.483-11.842c-1.487-5.054-5.625-8.804-10.798-9.788l-15.849-3.017c-4.073-.771-7.996 1.896-8.77 5.966-.774 4.069 1.896 7.995 5.965 8.771l15.237 2.899 3.458 11.755c1.287 4.375 4.636 7.854 8.958 9.306l15.104 5.076.932 7.284c.62 4.843 3.783 9.068 8.254 11.029l10.23 4.484 1.792 14.002c.484 3.785 3.712 6.549 7.43 6.549.317 0 .638-.021.961-.062 4.109-.525 7.013-4.282 6.488-8.392z"/><path d="m370.45 463.698-4.941-3.635c-3.336-2.454-8.031-1.739-10.485 1.598-2.455 3.337-1.739 8.031 1.598 10.486l4.94 3.634c10.853 7.985 19.077 18.877 23.783 31.499 1.125 3.018 3.986 4.882 7.028 4.882.871 0 1.756-.152 2.619-.475 3.881-1.447 5.854-5.767 4.407-9.647-5.729-15.363-15.738-28.621-28.949-38.342z"/></g></g></svg>