<svg id="Capa_1" enable-background="new 0 0 509.448 509.448" height="512" viewBox="0 0 509.448 509.448" width="512" xmlns="http://www.w3.org/2000/svg"><g><g><path d="m363.851 476.806c37.372-1.103 67.33-31.746 67.33-69.385 0-22.254-10.484-42.046-26.768-54.75 5.416-8.124 8.578-17.879 8.578-28.375 0-10.108-2.928-19.532-7.981-27.471l4.643-58.392 5.598-89.006c4.835-76.9-56.231-141.927-133.283-141.927h-24.744-57.751c-34.111 0-64.145 22.473-73.769 55.199l-1.499 5.097c-17.69 11.372-27.856 31.413-26.582 52.404l7.174 118.234.41 57.222c-5.523 8.176-8.749 18.032-8.749 28.641 0 10.496 3.162 20.251 8.578 28.375-16.284 12.703-26.768 32.496-26.768 54.75 0 38.337 31.079 69.416 69.417 69.416.348-.001 216.166-.032 216.166-.032z" fill="#cdbfba"/><path d="m136.285 297.62h-19.618c-11.209 0-20.295-9.086-20.295-20.295v-20.366c0-11.209 9.086-20.295 20.295-20.295h19.618 57.205v58.992z" fill="#fed2a4"/><g><path d="m396.586 297.62c11.209 0 20.295-9.086 20.295-20.295v-20.366c0-11.209-9.086-20.295-20.295-20.295h-87.346v60.957h87.346z" fill="#fed2a4"/><path d="m303.584 437.543-7.05-25.49-4.49-52.46h-67.61l-6.52 52.46-7.05 25.49-10.97 7.21 21.576 38.556h89.866l3.288-38.516z" fill="#fed2a4"/><g id="XMLID_492_"><g><path d="m376.964 212.303.6 67.84c0 55.71-32.05 106.45-82.35 130.38l-17.61 8.38c-1.52.73-21.09 6.12-21.09 6.12s-18.6-5.61-19.67-6.12l-23.63-11.24c-46.63-22.19-76.33-69.22-76.33-120.85l-.6-82.73c0-29.67 10.84-58.31 30.47-80.55l10.45-11.83c4.06-4.61 11.45-3.88 14.5 1.46 7.06 12.36 17.91 26.43 33.5 42.62 3.19 3.32 8.06 4.38 12.34 2.7l18.97-7.48 20.76 15.85c23.88 18.24 52.24 29.72 82.09 33.24l7.53.88c5.75.68 10.07 5.55 10.07 11.33z" fill="#ffe5c2"/></g></g><path d="m191.119 133.522c7.476 12.36 21.424 30.447 37.932 46.637 3.378 3.32 8.534 4.38 13.066 2.7l16.713-6.224c2.108-.785 4.469-.467 6.294.849l19.062 13.744c25.286 18.24 55.316 29.72 86.923 33.24l5.968.659-.114-12.825c0-5.78-4.32-10.65-10.07-11.33l-7.53-.88c-29.85-3.52-58.21-15-82.09-33.24l-20.76-15.85-18.97 7.48c-4.28 1.68-9.15.62-12.34-2.7-15.59-16.19-26.44-30.26-33.5-42.62-2.796-4.895-9.232-5.922-13.414-2.507 4.319 8.136 10.539 19.079 12.83 22.867z" fill="#fed2a4"/><g><g id="XMLID_494_"><g><path d="m376.508 501.943h-238.567c-4.162 0-6.637-4.657-4.306-8.105 4.458-6.596 10.192-12.27 16.9-16.675l49.36-32.41.76.56 17.16 9.56c6.11 3.4 12.54 5.96 19.15 7.66l39.13.34c7.09-1.7 14.01-4.36 20.54-8l17.16-9.56.83-.52 49.29 32.37c6.708 4.405 12.442 10.079 16.9 16.675 2.33 3.448-.145 8.105-4.307 8.105z" fill="#a7eedc"/></g></g></g><g><path d="m185.359 487.124 42.14-27.669c-3.3-1.304-6.536-2.829-9.685-4.581l-17.16-9.56-.76-.56-49.36 32.41c-6.708 4.405-12.442 10.079-16.9 16.675-2.331 3.448.144 8.105 4.307 8.105h31.84c4.25-5.805 9.51-10.836 15.578-14.82z" fill="#86e8d0"/></g></g><path d="m270.177 383.195c10.886-5.131 18.422-16.199 18.422-29.031v-11.283c0-17.718-14.364-32.082-32.082-32.082-17.718 0-32.082 14.364-32.082 32.082v11.283c0 12.832 7.537 23.9 18.422 29.031z" fill="#f1b0a2"/><path d="m278.439 494.396-9.246-124.443c-.493-6.636-6.021-11.769-12.676-11.769-6.655 0-12.183 5.133-12.676 11.769l-9.247 124.443c-.303 4.076 2.923 7.55 7.01 7.55h29.825c4.088 0 7.313-3.474 7.01-7.55z" fill="#fef0ae"/></g><g><path d="m91.01 135.057c.242 3.98 3.544 7.047 7.479 7.046.152 0 .307-.005.461-.014 4.135-.251 7.283-3.806 7.032-7.94l-.874-14.403c-1.108-18.26 7.763-35.749 23.151-45.642 1.517-.975 2.631-2.463 3.14-4.192l1.499-5.097c8.626-29.331 36.002-49.815 66.575-49.815h82.495c44.351 0 84.627 22.657 107.739 60.608 2.154 3.537 6.769 4.658 10.307 2.504 3.537-2.154 4.659-6.769 2.504-10.307-12.352-20.282-29.738-37.256-50.282-49.088-21.262-12.244-45.56-18.717-70.268-18.717h-82.495c-18.37 0-35.853 5.817-50.561 16.822s-25.222 26.137-30.404 43.76l-.737 2.508c-18.48 13.056-29.013 34.849-27.635 57.563z"/><path d="m438.68 407.421c0-21.64-8.897-41.847-24.623-56.388 4.225-8.241 6.433-17.365 6.433-26.736 0-8.994-2.046-17.789-5.951-25.777 6.015-5.102 9.842-12.708 9.842-21.195v-20.366c0-7.171-2.73-13.716-7.206-18.652l5.56-88.41c1.102-17.502-.996-34.78-6.234-51.354-1.249-3.949-5.465-6.139-9.412-4.891-3.949 1.248-6.139 5.462-4.891 9.412 4.679 14.802 6.552 30.241 5.566 45.891l-5.087 80.889c-1.962-.44-3.999-.681-6.092-.681h-11.969l-.149-16.859c0-9.584-7.178-17.656-16.696-18.775l-7.535-.887c-28.496-3.356-55.61-14.335-78.413-31.749l-20.755-15.85c-2.087-1.593-4.855-1.979-7.301-1.017l-18.973 7.475c-1.457.574-3.1.215-4.188-.915-14.515-15.077-25.413-28.921-32.392-41.146-2.621-4.592-7.329-7.655-12.594-8.195-5.28-.547-10.53 1.51-14.044 5.489l-10.446 11.833c-20.859 23.629-32.347 53.998-32.347 85.57l.181 25.026h-12.299c-1.67 0-3.303.156-4.893.44l-3.801-62.645c-.251-4.135-3.796-7.272-7.94-7.032-4.135.251-7.283 3.806-7.032 7.94l4.203 69.274c-5.137 5.046-8.332 12.065-8.332 19.818v20.366c0 7.224 2.772 13.811 7.305 18.759-4.732 8.617-7.22 18.266-7.22 28.213 0 9.371 2.208 18.495 6.433 26.736-15.725 14.54-24.623 34.748-24.623 56.388 0 37.276 26.661 68.418 61.912 75.418-4.188 4.766-7.71 10.115-10.438 15.915-1.763 3.749-.154 8.216 3.595 9.979 1.032.485 2.118.715 3.187.715 2.815 0 5.514-1.594 6.792-4.31 4.158-8.841 10.673-16.348 18.839-21.71l45.449-29.841 14.061 7.837c4.747 2.646 9.73 4.841 14.872 6.568l-2.482 33.397c-.307 4.131 2.793 7.729 6.924 8.035 4.13.284 7.728-2.793 8.035-6.924l9.808-131.993c.201-2.705 2.483-4.824 5.196-4.824s4.995 2.119 5.196 4.824l9.808 131.993c.293 3.941 3.582 6.944 7.472 6.944.187 0 .374-.007.563-.021 4.131-.307 7.23-3.904 6.924-8.035l-2.448-32.95c5.644-1.792 11.09-4.138 16.254-7.017l14.06-7.836 45.449 29.841c8.166 5.361 14.681 12.869 18.84 21.71 1.277 2.717 3.976 4.31 6.791 4.31 1.069 0 2.156-.23 3.188-.716 3.748-1.763 5.357-6.23 3.594-9.979-2.906-6.178-6.714-11.842-11.266-16.837 13.568-3.469 25.976-10.603 35.966-20.873 14.042-14.433 21.774-33.477 21.774-53.619zm-42.095-163.257c7.055 0 12.795 5.74 12.795 12.795v20.366c0 7.055-5.74 12.795-12.795 12.795h-11.864c.225-3.341.028-45.956.028-45.956zm-267.511 0s.341 44.853.367 45.956h-12.774c-7.055 0-12.795-5.74-12.795-12.795v-20.366c0-7.055 5.74-12.795 12.795-12.795zm-43.306 163.257c0-19.197 8.704-36.997 23.881-48.837 3.095-2.414 3.805-6.807 1.627-10.073-4.787-7.181-7.318-15.554-7.318-24.214 0-7.13 1.709-14.054 4.975-20.28 2.457.713 5.05 1.103 7.734 1.103h13.922c2.641 20.257 9.63 39.742 20.632 57.163 14.197 22.478 34.356 40.419 58.315 51.925l-5.145 18.619-55.599 36.506c-.021 0-.04-.004-.061-.004-.035 0-.072 0-.107.001-.313.004-.626.007-.939.007-34.141 0-61.917-27.775-61.917-61.916zm128.48 36.879s3.364-3.001 3.849-4.755l5.19-18.783 8.941 4.255-2.036 27.408c-2.989-1.181-15.944-8.125-15.944-8.125zm42.269-93.615c-10.171 0-18.76 7.687-20.027 17.677-2.894-4.087-4.555-9.029-4.555-14.198v-11.283c0-13.555 11.027-24.582 24.582-24.582s24.582 11.027 24.582 24.582v11.283c0 5.166-1.662 10.101-4.556 14.183-1.275-9.982-9.86-17.662-20.026-17.662zm36.466 97.636c-3.241 1.807-6.62 3.353-10.101 4.645l-2.028-27.298 10.307-4.906 5.189 18.782c.485 1.755 3.849 4.756 3.849 4.756zm72.486 20.889-55.412-36.383-5.194-18.798c9.379-5.026 18.241-11.027 26.4-17.93 3.163-2.675 3.558-7.407.882-10.569-2.675-3.162-7.407-3.557-10.569-.882-9.017 7.628-18.97 14.056-29.583 19.105l-12.331 5.869-1.653-22.254c11.126-7.23 18.091-19.744 18.091-33.205v-11.283c0-21.825-17.757-39.582-39.582-39.582-21.826 0-39.582 17.757-39.582 39.582v11.283c0 13.464 6.96 25.991 18.09 33.221l-1.604 21.588-16.987-8.084c-21.595-10.276-39.76-26.396-52.53-46.615-12.771-20.221-19.521-43.549-19.521-67.518l-.598-82.673c0-27.858 10.154-54.703 28.592-75.588l10.446-11.833c.418-.475.92-.531 1.268-.496.335.035.798.187 1.098.711 7.7 13.489 19.021 27.918 34.613 44.113 5.319 5.523 13.363 7.276 20.493 4.467l15.034-5.923 17.392 13.281c24.939 19.046 54.596 31.053 85.764 34.724l7.536.887c1.966.231 3.448 1.899 3.448 3.945l.598 67.771c0 29.557-9.824 58.849-27.664 82.481-2.495 3.306-1.838 8.009 1.468 10.505 3.307 2.495 8.01 1.838 10.505-1.468 14.73-19.513 24.53-42.507 28.582-66.54h13.629c1.46 0 2.893-.115 4.293-.333 3.012 6.03 4.611 12.686 4.611 19.509 0 8.659-2.53 17.033-7.317 24.215-2.178 3.267-1.468 7.659 1.627 10.073 15.177 11.84 23.881 29.64 23.881 48.836 0 16.215-6.225 31.544-17.526 43.165-10.853 11.157-25.242 17.717-40.688 18.626z"/></g></g></svg>