<svg id="Capa_1" enable-background="new 0 0 512.166 512.166" height="512" viewBox="0 0 512.166 512.166" width="512" xmlns="http://www.w3.org/2000/svg"><g><g><path d="m370.248 411.185-32.39-18.91c-3.22-1.88-5.21-5.34-5.21-9.08v-83.67h-85.6v83.67c0 3.74-1.98 7.2-5.21 9.08l-32.39 18.91 19.377 44.145 144.445 2.09z" fill="#ffdfcf"/><g id="XMLID_506_"><g><path d="m268.308 299.525h-21.26v83.67c0 3.74-1.98 7.2-5.21 9.08l-32.39 18.91 19.377 44.145 18.652.27-10.767-24.53 32.39-18.91c3.23-1.88 5.21-5.34 5.21-9.08v-7.803c0-6.864 4.616-12.803 11.217-14.682 14.287-4.065 27.287-11.872 37.79-22.913l9.332-9.806v-28.466-19.885z" fill="#ffcebf"/></g></g><g><g id="XMLID_504_"><g><path d="m446.618 482.345 1.823 9.12c1.261 6.306-3.563 12.19-9.994 12.19h-297.198c-6.431 0-11.255-5.883-9.994-12.19l1.823-9.12c3.83-19.14 15.67-35.72 32.52-45.56l43.85-25.6 20.96 13.14c36.6 21.91 82.29 21.91 118.89 0l20.95-13.14 43.85 25.6c16.86 9.84 28.69 26.42 32.52 45.56z" fill="#a6e7f0"/></g></g><g><path d="m454.878 171.285c28.48 17.04 47.55 48.19 47.55 83.8 0 53.89-43.68 97.58-97.57 97.58-28.62 0-54.36-12.32-72.21-31.94l-162.66-167.15c-5.6-5.15-9.98-11.35-12.98-18.16-2.99-6.82-4.58-14.25-4.58-21.85 0-56.87 46.1-102.97 102.97-102.97h83.49c64.05 0 115.97 51.92 115.97 115.96z" fill="#cdbfba"/></g><path d="m384.948 234.235v21.21c0 19.82-16.06 35.89-35.89 35.89h-9.29l.05 14.97c.01 3.21-1.22 6.3-3.43 8.63l-27.56 28.96c-11.72 12.32-27.84 19.49-44.84 19.94l-68.85 1.83c-4.97.13-9.51-2.8-11.44-7.39l-8.83-21.02c-1.55-3.7.12-7.97 3.78-9.63l22.84-10.35c3-1.36 5-4.26 5.21-7.54l1.28-20.15c.32-5.04-3.63-9.34-8.68-9.45l-29.66-.67c-3.28-.07-5.89-2.75-5.89-6.02v-8.44h-13.71c-4.915 0-8.9-3.985-8.9-8.9v-8.82c0-2.18.8-4.28 2.24-5.9l30.87-34.81-.17-55.13v-7.71c0-5.82 6.51-9.27 11.33-6l11.38 7.73c36.62 24.85 78.98 39.92 123.06 43.79l7.791.684c5.506.483 9.71 5.126 9.647 10.652l-.358 31.224c-.04 3.1 3.6 4.79 5.94 2.77l14.86-12.82c2.99-2.57 6.81-3.99 10.75-3.99 4.55 0 8.67 1.84 11.65 4.82s4.82 7.09 4.82 11.64z" fill="#ffdfcf"/><g fill="#86e8d0"><path d="m96.229 239.814c5.266 2.041 11.071 11.534 14.404 17.744 1.58 2.944.16 6.61-2.992 7.721-6.647 2.342-17.333 5.446-22.599 3.405-7.972-3.089-11.931-12.056-8.842-20.028 3.089-7.973 12.056-11.931 20.029-8.842z"/><path d="m96.229 374.417c5.266-2.041 11.071-11.534 14.404-17.744 1.58-2.944.16-6.61-2.992-7.721-6.647-2.342-17.333-5.446-22.599-3.405-7.972 3.089-11.931 12.056-8.842 20.028 3.089 7.973 12.056 11.931 20.029 8.842z"/><path d="m42.342 304.248c2.264 1.92 2.264 5.401 0 7.321-5.229 4.435-14.25 11.322-19.86 11.322-8.275 0-14.982-6.708-14.982-14.982s6.708-14.982 14.982-14.982c5.61-.001 14.631 6.885 19.86 11.321z"/></g></g><g><path d="m223.824 181.63c50.621 31.658 56.217 25.837 113.211 40.791l.25-21.831c.063-5.526-4.141-10.169-9.646-10.652l-7.791-.684c-44.08-3.87-86.44-18.94-123.06-43.79l-11.38-7.73c-3.098-2.102-6.886-1.418-9.203.878z" fill="#ffcebf"/></g><g><path d="m170.658 495.624c3.83-19.14 15.67-35.72 32.52-45.56l35.99-21.012c-2.968-1.446-5.895-3.012-8.76-4.727l-20.96-13.14-43.85 25.6c-16.85 9.84-28.69 26.42-32.52 45.56l-1.823 9.121c-1.261 6.306 3.563 12.189 9.994 12.189h27.804z" fill="#6bd9e7"/></g></g><g><path d="m150.755 439.139c-11.77 10.91-19.651 24.983-22.795 40.697l-4.261 21.306c-.813 4.062 1.821 8.013 5.883 8.826.497.1.992.146 1.479.146 3.502 0 6.633-2.465 7.347-6.029l4.261-21.308c2.521-12.601 8.843-23.887 18.283-32.639 3.038-2.815 3.218-7.562.401-10.599-2.814-3.036-7.56-3.215-10.598-.4z"/><path d="m407.088 359.123c57.94 0 105.078-47.138 105.078-105.078 0-35.964-18.194-68.799-47.577-87.975v-40.554c0-19.732-4.776-39.368-13.813-56.783-1.908-3.678-6.437-5.107-10.111-3.203-3.677 1.908-5.11 6.435-3.203 10.111 8.047 15.509 12.127 32.289 12.127 49.875v32.421c-.533-.236-1.059-.483-1.597-.71-3.814-1.612-8.216.171-9.829 3.985-1.614 3.815.171 8.216 3.985 9.829 33.422 14.137 55.018 46.718 55.018 83.003 0 49.669-40.409 90.078-90.078 90.078-23.425 0-45.971-9.208-62.713-25.429 3.351-3.697 5.196-8.448 5.179-13.452l-.023-7.445h1.765c23.927 0 43.393-19.466 43.393-43.392l-.001-21.207c0-13.216-10.753-23.967-23.97-23.967-5.746 0-11.306 2.066-15.652 5.817l-8.305 7.16.372-32.364c.045-3.921-2.938-7.214-6.844-7.558l-17.548-1.541c-28.437-2.496-56.05-9.747-82.072-21.55-3.774-1.713-8.218-.041-9.928 3.732-1.711 3.771-.04 8.217 3.732 9.928 27.569 12.505 56.826 20.188 86.955 22.833l10.625.933-.392 34.072c-.049 4.353 2.47 8.351 6.416 10.186 3.946 1.836 8.627 1.186 11.922-1.658l14.862-12.814c1.626-1.403 3.706-2.176 5.855-2.176 4.946 0 8.97 4.022 8.97 8.967l.001 21.207c0 15.655-12.737 28.392-28.393 28.392h-9.289c-1.993 0-3.904.794-5.312 2.205-1.407 1.412-2.194 3.325-2.188 5.319l.048 14.971c.004 1.283-.481 2.503-1.366 3.434l-27.557 28.96c-10.423 10.954-24.487 17.209-39.604 17.611l-68.851 1.83c-1.896.041-3.593-1.046-4.326-2.793l-8.798-20.95 22.769-10.321c5.532-2.509 9.208-7.832 9.593-13.892l1.279-20.149c.281-4.433-1.28-8.851-4.282-12.123-3.003-3.272-7.271-5.206-11.713-5.306l-28.221-.63v-6.997c0-4.143-3.357-7.5-7.5-7.5h-13.706c-.769 0-1.394-.625-1.394-1.394v-8.83c0-.341.125-.67.351-.924l30.869-34.81c1.222-1.379 1.895-3.158 1.889-5l-.172-55.102v-7.245s17.299 11.637 20.629 13.693c3.523 2.176 8.146 1.084 10.322-2.439 2.177-3.524 1.085-8.146-2.439-10.322-3.147-1.944-20.472-13.604-20.472-13.604-4.531-3.074-10.354-3.394-15.193-.828-3.362 1.781-5.836 4.736-7.036 8.21-4.817-7.499-7.463-16.304-7.463-25.351 0-52.642 42.827-95.469 95.47-95.469h83.494c30.237 0 58.306 12.143 79.035 34.19 2.838 3.018 7.584 3.163 10.602.326s3.164-7.583.326-10.602c-23.252-24.73-56.042-38.915-89.963-38.915h-83.495c-60.913 0-110.47 49.556-110.47 110.469 0 17.258 7.286 33.854 19.988 45.535l1.693 1.547.135 43.092-28.973 32.671c-2.661 3.002-4.127 6.864-4.127 10.876v8.83c0 9.039 7.354 16.394 16.394 16.394h6.208v.935c0 7.298 5.935 13.365 13.229 13.526l29.657.662c.49.011.813.252.996.451.183.2.395.541.363 1.03l-1.279 20.15c-.032.515-.345.967-.815 1.18l-22.843 10.355c-7.408 3.356-10.744 11.861-7.595 19.36l8.83 21.026c3.078 7.328 10.11 11.986 18.017 11.986.18 0 .359-.003.539-.008l44.207-1.175v11.213c0 1.066-.572 2.063-1.493 2.602l-61.479 35.893c-3.577 2.088-4.784 6.681-2.695 10.258 1.394 2.389 3.904 3.72 6.483 3.72 1.284 0 2.586-.33 3.774-1.024l24.766-14.458 17.646 10.567c19.522 11.69 41.411 17.536 63.3 17.536s43.777-5.846 63.3-17.536l17.646-10.567 39.523 23.075c14.991 8.753 25.542 23.534 28.945 40.556l4.262 21.307c.713 3.565 3.845 6.03 7.347 6.03.487 0 .982-.048 1.479-.146 4.062-.813 6.696-4.764 5.884-8.825l-4.262-21.307c-4.244-21.224-17.399-39.655-36.092-50.567l-76.238-44.51c-.92-.537-1.492-1.533-1.492-2.6v-45.345c18.349 14.325 41.143 22.31 64.7 22.31zm-48.843 51.393-10.568 6.329c-34.291 20.535-76.895 20.535-111.186 0l-10.568-6.329 21.929-12.802c5.51-3.216 8.932-9.176 8.932-15.556v-11.612l9.643-.256c19.111-.508 36.895-8.416 50.072-22.266l10.887-11.441v45.576c0 6.379 3.422 12.339 8.931 15.554z"/><path d="m357.792 268.36c4.143 0 7.5-3.357 7.5-7.5v-7.469c0-4.143-3.357-7.5-7.5-7.5s-7.5 3.357-7.5 7.5v7.469c0 4.142 3.357 7.5 7.5 7.5z"/><path d="m98.938 232.821c-5.725-2.218-11.969-2.074-17.584.404-5.616 2.479-9.93 6.997-12.147 12.721s-2.074 11.969.404 17.584c2.479 5.616 6.997 9.93 12.722 12.147 1.023.397 3.037 1.177 6.895 1.177 4.293 0 10.87-.966 20.906-4.501 3.57-1.258 6.402-4.005 7.771-7.537 1.369-3.531 1.127-7.47-.664-10.806-9.557-17.801-16.139-20.351-18.303-21.189zm-11.186 28.87c-1.988-.771-3.557-2.269-4.418-4.219-.86-1.95-.91-4.119-.141-6.106.771-1.988 2.269-3.557 4.219-4.418 1.032-.455 2.125-.684 3.221-.684.973 0 1.947.18 2.882.542.948.399 4.357 3.367 9.342 12.179-9.628 3.154-14.144 3.046-15.105 2.706z"/><path d="m110.135 341.879c-19.057-6.716-25.638-4.164-27.803-3.325-11.815 4.577-17.703 17.915-13.125 29.731 2.218 5.724 6.531 10.24 12.147 12.72 2.973 1.313 6.12 1.97 9.274 1.97 2.805 0 5.615-.521 8.31-1.564 2.163-.838 8.745-3.389 18.303-21.19 1.79-3.336 2.032-7.274.663-10.807-1.368-3.531-4.201-6.278-7.769-7.535zm-16.62 25.546c-1.987.771-4.153.719-6.103-.143-1.95-.86-3.448-2.43-4.219-4.417-1.59-4.104.455-8.735 4.554-10.323.259-.092.772-.167 1.57-.167 2.184 0 6.493.562 13.539 2.871-4.984 8.812-8.393 11.78-9.341 12.179z"/><path d="m47.194 298.529c-15.445-13.103-22.42-13.103-24.712-13.103-12.396 0-22.482 10.086-22.482 22.483s10.086 22.482 22.482 22.482c2.292 0 9.266 0 24.711-13.103 2.762-2.343 4.346-5.761 4.347-9.379 0-3.617-1.584-7.036-4.346-9.38zm-24.712 16.862c-4.126 0-7.482-3.356-7.482-7.482s3.356-7.482 7.469-7.482c.998.042 5.059 1.521 12.522 7.482-7.464 5.962-11.522 7.44-12.509 7.482z"/><path d="m138.609 315.409h13.982c4.143 0 7.5-3.357 7.5-7.5s-3.357-7.5-7.5-7.5h-13.982c-4.143 0-7.5 3.357-7.5 7.5s3.358 7.5 7.5 7.5z"/><path d="m93.217 315.409c4.143 0 7.5-3.357 7.5-7.5s-3.357-7.5-7.5-7.5h-8.454c-4.143 0-7.5 3.357-7.5 7.5s3.357 7.5 7.5 7.5z"/><path d="m28.242 252.028 13.124 5.009c.88.336 1.783.495 2.672.495 3.021 0 5.868-1.838 7.009-4.828 1.478-3.869-.463-8.204-4.333-9.681l-13.124-5.009c-3.871-1.479-8.205.463-9.681 4.333-1.477 3.869.463 8.204 4.333 9.681z"/><path d="m41.366 358.781-13.124 5.009c-3.87 1.477-5.811 5.812-4.333 9.681 1.141 2.99 3.987 4.828 7.009 4.828.889 0 1.792-.159 2.672-.495l13.124-5.009c3.87-1.477 5.811-5.812 4.333-9.681-1.476-3.87-5.81-5.811-9.681-4.333z"/></g></g></svg>