<svg id="Capa_1" enable-background="new 0 0 513.363 513.363" height="512" viewBox="0 0 513.363 513.363" width="512" xmlns="http://www.w3.org/2000/svg"><g><g><g><path d="m284.419 375.415h-63.4l-31.21-16.11h-.01l-38.53-29.11c-.06-.04-.11-.08-.16-.13-7.6-5.88-9.08-16.8-3.27-24.48 3.45-4.58 8.71-6.98 14.03-6.98 3.69 0 7.42 1.15 10.59 3.55l17.35 13.12z" fill="#ffe5c2"/><path d="m230.444 361.587s-69.86-45.3-69.91-45.35c-4.967-3.843-7.298-9.858-6.711-15.695-2.276 1.168-4.34 2.861-5.984 5.043-5.81 7.68-4.33 18.6 3.27 24.48.05.05.1.09.16.13l38.53 29.11h.01l31.21 16.11h63.4l-21.754-13.828z" fill="#fed2a4"/><path d="m257.745 356.627v-233.646-48.759h-67.933v48.759 236.325 29.005h67.933z" fill="#a6e7f0"/><g><g id="XMLID_510_"><g><path d="m270.09 64.069h-87.987l-16.193 18.876v21.7c0 10.13 8.2 18.34 18.33 18.34h74.99c10.13 0 18.34-8.21 18.34-18.34v-21.7z" fill="#e1d3ce"/><path d="m208.775 102.965c-10.13 0-18.33-8.21-18.33-18.34v-20.556h-8.342l-16.193 18.876v21.7c0 10.13 8.2 18.34 18.33 18.34h74.99c10.13 0 18.34-8.21 18.34-18.34v-1.68z" fill="#cdbfba"/><path d="m277.569 32.925v50.02h-111.66v-22.427c0-3.426-2.777-6.203-6.203-6.203h-97.685c-2.713 0-4.912-2.199-4.912-4.912v-36.996c0-2.713 2.199-4.912 4.912-4.912h190.118c14.045 0 25.43 11.386 25.43 25.43z" fill="#f3eae6"/></g></g><path d="m190.445 82.945v-29.03c0-10.836-8.784-19.62-19.62-19.62h-113.716v15.108c0 2.713 2.199 4.912 4.912 4.912h97.685c3.426 0 6.203 2.777 6.203 6.203v22.427z" fill="#efe2dd"/><g fill="#a6e7f0"><path d="m342.489 197.327c-8.109 2.577-25.834-2.923-36.084-6.596-4.03-1.444-5.579-6.317-3.122-9.823 6.248-8.917 17.545-23.641 25.654-26.219 11.774-3.742 24.353 2.769 28.095 14.543 3.742 11.775-2.769 24.353-14.543 28.095z"/><path d="m330.563 272.092c-5.753-.346-15.618-8.14-21.202-12.959-2.195-1.895-1.987-5.352.419-6.97 6.121-4.115 16.849-10.67 22.602-10.324 8.354.502 14.719 7.682 14.217 16.036-.502 8.355-7.682 14.72-16.036 14.217z"/><path d="m116.223 216.283c6.875 2.954 22.862-.333 32.149-2.666 3.651-.917 5.426-5.049 3.578-8.329-4.7-8.343-13.32-22.202-20.195-25.156-9.983-4.289-21.553.326-25.842 10.309s.327 21.553 10.31 25.842z"/></g></g><path d="m98.391 345.475-25.94-19.64c-9.25-7-22.18-6.43-30.77 1.37-5.26 4.78-7.91 11.31-7.91 17.86 0 6.2 2.38 12.42 7.17 17.15l101.95 100.74c7.37 7.28 17.3 11.36 27.66 11.36h169.25l34.447 28.726c1.983 1.654 4.83 1.767 6.938.276l93.58-66.178c2.884-2.04 2.937-6.3.105-8.411l-53.015-39.516c-12.892-9.609-28.231-15.38-44.261-16.645-21.097-1.666-51.342-2.527-75.681 2.829h-16.984-63.4l-69.75-45.22c-.06-.04-.11-.08-.16-.13l-25.93-19.59c-9.78-7.4-23.71-5.46-31.11 4.33-3.03 4-4.49 8.7-4.49 13.37.001 6.519 2.861 12.969 8.301 17.319" fill="#ffe5c2"/><path d="m94.505 314.896c-2.975 3.977-4.414 8.632-4.414 13.26 0 5.852 2.311 11.643 6.716 15.914.458.426.917.852 1.415 1.248l71.824 57.156c6.173 4.913 15.164.894 15.887-6.702z" fill="#fed2a4"/><g><path d="m374.628 457.979c-6.344-4.751-14.056-7.319-21.982-7.319h-161.133c-10.61 0-20.78-4.172-28.329-11.617l-104.414-103.023c-4.051-3.994-6.41-9.058-7.113-14.261-3.789.931-7.398 2.802-10.45 5.574-5.26 4.78-7.91 11.31-7.91 17.86 0 6.2 2.38 12.42 7.17 17.15l101.95 100.74c7.37 7.28 17.3 11.36 27.66 11.36h169.25l34.447 28.726c1.983 1.654 4.83 1.767 7.123.446l28.177-20.019z" fill="#fed2a4"/></g></g><g id="XMLID_853_"><path d="m435.343 399.262-16.95-12.788c-24.429-18.431-54.198-28.402-84.8-28.402h-55.185-80.346c-15.501 0-28.067 12.566-28.067 28.067 0 15.501 12.566 28.067 28.067 28.067h74.26 126.507l26.65 6.173c12.532 2.902 20.132-13.369 9.864-21.117z" fill="#ffe5c2"/></g><path d="m317.031 414.205c0-7.721-6.259-13.98-13.98-13.98h-5.698-73.646c-15.411 0-28.409-12.163-28.676-27.572-.092-5.321 1.305-10.307 3.79-14.58h-.759c-15.501 0-28.067 12.566-28.067 28.067 0 15.501 12.566 28.066 28.066 28.066h74.26 44.71z" fill="#fed2a4"/></g><g><path d="m67.409 331.833 25.824 19.55c.215.172.426.348.647.514l16.679 12.604s66.169 50.079 66.213 50.111c5.94 4.453 13.312 7.093 21.29 7.093h74.259c4.142 0 7.5-3.357 7.5-7.5s-3.358-7.5-7.5-7.5h-74.259c-11.341 0-20.567-9.226-20.567-20.566s9.226-20.566 20.567-20.566h103.356c4.142 0 7.5-3.357 7.5-7.5s-3.358-7.5-7.5-7.5h-36.173v-44.035c0-4.143-3.358-7.5-7.5-7.5s-7.5 3.357-7.5 7.5v44.035h-52.183c-.252 0-.5.014-.75.019v-220.112h52.934v144.095c0 4.143 3.358 7.5 7.5 7.5s7.5-3.357 7.5-7.5v-144.808c11.353-2.718 19.82-12.945 19.82-25.119v-71.726c-.001-18.153-14.77-32.922-32.923-32.922h-195.034c-4.142 0-7.5 3.357-7.5 7.5s3.358 7.5 7.5 7.5h195.034c9.882 0 17.922 8.04 17.922 17.922v42.522h-96.66v-21.131c0-4.143-3.358-7.5-7.5-7.5h-27.043c-4.142 0-7.5 3.357-7.5 7.5s3.358 7.5 7.5 7.5h19.543v42.834c0 13.595 10.56 24.764 23.906 25.753v169.802l-5.335-4.032c-11.03-8.332-26.783-6.14-35.116 4.889-2.157 2.854-3.603 6.027-4.379 9.304l-7.778-5.877c-13.072-9.876-31.741-7.276-41.617 5.794-3.152 4.171-5.101 8.988-5.757 14.036l-5.867-4.442c-12.117-9.175-29.078-8.415-40.331 1.797-6.494 5.896-10.173 13.971-10.359 22.739s3.147 16.992 9.386 23.157l44.138 43.617c2.947 2.911 7.695 2.881 10.606-.063 2.912-2.946 2.883-7.694-.063-10.606l-44.138-43.617c-3.278-3.239-5.03-7.562-4.933-12.17.098-4.607 2.031-8.852 5.444-11.949 5.916-5.37 14.83-5.765 21.197-.946zm105.996-227.186v-14.203h96.66v14.203c0 5.974-4.86 10.833-10.833 10.833h-74.994c-5.973 0-10.833-4.859-10.833-10.833zm-19.577 205.456c3.348-4.43 9.676-5.309 14.105-1.964l14.378 10.865v25.236l-26.639-20.129c-4.322-3.374-5.161-9.619-1.844-14.008zm-53.773 9.22c4.889-6.472 14.135-7.759 20.606-2.869l25.854 19.536c.079.061.153.125.233.186l29.248 22.1c-7.93 6.293-13.119 15.889-13.471 26.691l-42.676-32.247-17.228-13.042c-6.199-4.949-7.377-13.989-2.566-20.355z"/><path d="m381.905 500.104-37.809-31.527c-1.348-1.125-3.048-1.74-4.803-1.74h-169.257c-8.436 0-16.386-3.266-22.386-9.194l-35.042-34.627c-2.947-2.912-7.695-2.883-10.606.063s-2.883 7.694.063 10.606l35.042 34.627c8.825 8.722 20.52 13.524 32.929 13.524h166.54l35.722 29.787c1.402 1.17 3.105 1.74 4.799 1.74 2.148 0 4.281-.918 5.764-2.697 2.654-3.181 2.225-7.91-.956-10.562z"/><path d="m106.899 46.813h-49.79c-4.142 0-7.5 3.357-7.5 7.5s3.358 7.5 7.5 7.5h49.791c4.142 0 7.5-3.357 7.5-7.5s-3.358-7.5-7.501-7.5z"/><path d="m236.159 208.226v-50.375c0-4.143-3.358-7.5-7.5-7.5s-7.5 3.357-7.5 7.5v50.375c0 4.143 3.358 7.5 7.5 7.5s7.5-3.358 7.5-7.5z"/><path d="m210.764 298.603v15.87c0 4.143 3.358 7.5 7.5 7.5s7.5-3.357 7.5-7.5v-15.87c0-4.143-3.358-7.5-7.5-7.5s-7.5 3.357-7.5 7.5z"/><path d="m303.875 197.792c5.852 2.097 21.423 7.679 33.376 7.679 2.749 0 5.306-.296 7.509-.996 15.697-4.988 24.408-21.817 19.419-37.515-4.989-15.695-21.818-24.408-37.514-19.418-2.916.926-11.787 3.746-29.525 29.062-2.523 3.603-3.208 8.07-1.876 12.26 1.331 4.188 4.469 7.442 8.611 8.928zm27.334-35.955c7.814-2.483 16.192 1.854 18.676 9.667 1.203 3.785.86 7.813-.966 11.34s-4.917 6.133-8.702 7.336c-3.134.992-12.854-.022-30.022-6.062 10.534-14.844 17.881-21.285 21.014-22.281z"/><path d="m332.834 234.354c-2.274-.144-9.182-.552-27.237 11.586-3.104 2.086-5.013 5.423-5.238 9.154-.225 3.732 1.271 7.274 4.103 9.719 16.473 14.214 23.38 14.63 25.65 14.767h.001c.46.028.918.041 1.373.041 11.875 0 21.877-9.286 22.599-21.294.364-6.04-1.647-11.86-5.661-16.389-4.014-4.528-9.551-7.222-15.59-7.584zm6.279 23.072c-.253 4.211-3.891 7.441-8.093 7.181-1.069-.101-5.419-1.871-13.575-8.484 8.896-5.592 13.432-6.797 14.488-6.796 2.041.123 3.911 1.033 5.267 2.563s2.035 3.495 1.913 5.536z"/><path d="m99.023 187.48c-2.866 6.669-2.962 14.055-.272 20.796 2.689 6.742 7.843 12.032 14.512 14.897 1.352.581 4.171 1.793 10.526 1.793 5.594 0 13.928-.939 26.411-4.075 4.027-1.012 7.277-3.778 8.916-7.592 1.638-3.813 1.409-8.075-.63-11.693-13.494-23.95-21.228-27.273-23.769-28.365-6.668-2.865-14.055-2.963-20.795-.272-6.743 2.689-12.034 7.843-14.899 14.511zm13.782 5.922c1.283-2.988 3.653-5.297 6.674-6.502 1.46-.582 2.987-.873 4.513-.873 1.631 0 3.26.332 4.803.995 1.991.855 7.406 6.021 15.444 19.886-15.591 3.713-23.063 3.339-25.054 2.484-2.987-1.284-5.296-3.654-6.501-6.675-1.206-3.019-1.163-6.327.121-9.315z"/><path d="m484.614 427.042-61.704-46.556c-25.567-19.29-57.288-29.914-89.317-29.914h-.212c-4.142 0-7.5 3.357-7.5 7.5s3.358 7.5 7.5 7.5h.212c28.79 0 57.302 9.549 80.283 26.889l61.704 46.556c1.353 1.021 2.938 1.513 4.511 1.513 2.273 0 4.519-1.028 5.993-2.982 2.495-3.308 1.837-8.011-1.47-10.506z"/></g></g></svg>