<svg id="Capa_1" enable-background="new 0 0 511.483 511.483" height="512" viewBox="0 0 511.483 511.483" width="512" xmlns="http://www.w3.org/2000/svg"><g><g><path d="m240.25 23.5h30.983v102.141h-30.983z" fill="#f3eae6"/><path d="m282.105 164.505h-51.727v-53.228c0-3.665 2.971-6.636 6.636-6.636h38.455c3.665 0 6.636 2.971 6.636 6.636z" fill="#f9f3f1"/><path d="m303.803 160.4c0-7.121-5.773-12.894-12.894-12.894h-69.335c-7.121 0-12.894 5.773-12.894 12.894v81.931h95.123z" fill="#f3eae6"/><path d="m234.543 176.732c0-7.121 5.773-12.894 12.894-12.894h56.366v-3.439c0-7.121-5.773-12.894-12.894-12.894h-69.335c-7.121 0-12.894 5.773-12.894 12.894v81.931h25.863z" fill="#efe2dd"/><g><path d="m415.562 317.447v-9.37c0-68.33-55.4-123.72-123.73-123.72h-72.18c-68.33 0-123.73 55.39-123.73 123.72v9.37l22.003 26.508v91.347l-22.003 19.215v41.07c0 4.64 3.76 8.4 8.4 8.4h302.84c4.64 0 8.4-3.76 8.4-8.4v-41.07l-25.067-14.189v-89.043z" fill="#a6e7f0"/><path d="m388.417 136.281c0 12.271-9.948 22.219-22.219 22.219s-22.219-9.948-22.219-22.219c0-7.523 9.142-21.161 16.216-30.588 3.914-5.216 11.837-4.831 15.256.722 5.781 9.389 12.966 22.533 12.966 29.866z" fill="#a6e7f0"/><path d="m271.271 234.349v128.572h-32.059v-128.572-33.193h32.059z" fill="#6bd9e7"/><path d="m287.718 184.356h-68.066c-68.33 0-123.73 55.39-123.73 123.72v9.37l15.891 17.153v103.283l-15.891 16.634v41.07c0 4.64 3.76 8.4 8.4 8.4h68.066c-4.64 0-8.4-3.76-8.4-8.4v-187.51c0-68.329 55.4-123.72 123.73-123.72z" fill="#6bd9e7"/><g><circle cx="155.435" cy="457.179" fill="#2ed1e2" r="22.567"/></g><g id="XMLID_858_"><g><path d="m95.922 317.447h319.64v137.07h-319.64z" fill="#f9f3f1"/></g></g><circle cx="255.742" cy="385.979" fill="#a7eedc" r="74.2"/><path d="m287.019 369.242h-14.541v-14.541c0-1.887-1.53-3.417-3.417-3.417h-26.639c-1.887 0-3.417 1.53-3.417 3.417v14.541h-14.541c-1.887 0-3.417 1.53-3.417 3.417v26.639c0 1.887 1.53 3.417 3.417 3.417h14.541v14.541c0 1.887 1.53 3.417 3.417 3.417h26.639c1.887 0 3.417-1.53 3.417-3.417v-14.541h14.541c1.887 0 3.417-1.53 3.417-3.417v-26.639c0-1.887-1.53-3.417-3.417-3.417z" fill="#faf7f7"/><path d="m288.31 184.353h-64.136l5.37 42.41c.477 3.764 3.679 6.587 7.473 6.587h38.449c3.794 0 6.997-2.822 7.473-6.587z" fill="#6bd9e7"/><circle cx="349.878" cy="256.557" fill="#6bd9e7" r="16.943"/><circle cx="164.599" cy="259.273" fill="#2ed1e2" r="16.943"/><g><path d="m377.464 61.739h-22.532c-3.167 0-5.734-2.567-5.734-5.734v-13.889c0-.34-.276-.616-.616-.616h-133.221c-3.689 0-6.68-2.991-6.68-6.68v-20.64c0-3.689 2.991-6.68 6.68-6.68h133.221c19.118 0 34.616 15.498 34.616 34.616v13.889c0 3.167-2.567 5.734-5.734 5.734z" fill="#f9f3f1"/></g></g><path d="m95.922 317.447h68.066v137.07h-68.066z" fill="#f3eae6"/></g><g><path d="m311.303 178.299v-17.9c0-11.245-9.149-20.395-20.395-20.395h-1.304v-28.729c0-6.656-4.63-12.238-10.834-13.73v-48.545h19.866c4.143 0 7.5-3.357 7.5-7.5s-3.357-7.5-7.5-7.5h-82.456v-19h132.401c14.952 0 27.116 12.164 27.116 27.116v12.123h-19v-12.123c0-4.476-3.641-8.116-8.116-8.116h-17.981c-4.143 0-7.5 3.357-7.5 7.5s3.357 7.5 7.5 7.5h11.098v7.006c0 7.297 5.937 13.233 13.234 13.233h22.531c7.298 0 13.234-5.937 13.234-13.233v-13.89c.001-23.222-18.893-42.116-42.115-42.116h-133.221c-7.819 0-14.181 6.361-14.181 14.18v20.64c0 7.818 6.361 14.18 14.181 14.18h17.389v48.801c-5.716 1.813-9.872 7.167-9.872 13.475v28.729h-1.304c-11.245 0-20.394 9.149-20.394 20.395v17.738c-13.005 1.825-25.591 5.592-37.592 11.271-3.744 1.772-5.343 6.243-3.571 9.987s6.245 5.341 9.988 3.571c14.89-7.047 30.805-10.766 47.338-11.083l4.76 35.822c.716 5.647 4.537 10.246 9.609 12.169v68.015c-1.968.607-3.897 1.303-5.799 2.052h-122.487v-1.861c0-34.303 15.054-66.687 41.303-88.847 3.165-2.672 3.564-7.403.893-10.568s-7.404-3.563-10.569-.893c-29.632 25.016-46.626 61.577-46.626 100.308v187.51c0 8.764 7.13 15.894 15.894 15.894h302.844c8.764 0 15.894-7.13 15.894-15.894v-187.511c-.002-65.743-48.599-120.345-111.756-129.781zm96.754 129.781v1.861h-25.878c-4.143 0-7.5 3.357-7.5 7.5s3.357 7.5 7.5 7.5h25.878v122.074h-98.087c16.837-14.977 27.471-36.784 27.471-61.037 0-24.254-10.634-46.061-27.472-61.037h40.247c4.143 0 7.5-3.357 7.5-7.5s-3.357-7.5-7.5-7.5h-64.646c-2.222-.875-4.488-1.656-6.799-2.336v-67.14c6.045-1.368 10.802-6.385 11.603-12.714l4.765-35.849c62.563 1.759 112.918 53.197 112.918 116.178zm-219.016 77.899c0-36.778 29.922-66.7 66.701-66.7 36.778 0 66.7 29.922 66.7 66.7 0 36.779-29.922 66.701-66.7 66.701-36.779 0-66.701-29.922-66.701-66.701zm47.938-160.205-4.508-33.922h47.538l-4.542 33.996zm26.792-176.774v48.141h-16.021v-48.141zm-25.893 63.141h36.727v27.864h-36.727zm-21.698 48.258c0-2.975 2.42-5.395 5.394-5.395h69.334c2.975 0 5.395 2.42 5.395 5.395v16.538c-1.486-.05-2.976-.084-4.474-.084h-72.176c-1.161 0-2.318.017-3.474.047v-16.501zm30.532 80.45h17.059v63.829c-2.643-.259-5.32-.399-8.029-.399-3.053 0-6.063.183-9.029.51v-63.94zm-45.199 84.092c-16.838 14.976-27.472 36.783-27.472 61.037 0 24.253 10.634 46.061 27.472 61.037h-98.086v-122.074zm-33.541 137.075c-1.948 5.032-6.826 8.615-12.537 8.615-5.707 0-10.582-3.578-12.533-8.603 8.031-.002 16.555-.005 25.07-.012zm239.192 34.467h-302.844c-.493 0-.894-.4-.894-.894v-33.57c5.189.003 13.691.007 23.979.009 2.309 13.386 13.995 23.603 28.03 23.603 14.045 0 25.738-10.232 28.035-23.632 16.779-.024 32.21-.065 42.06-.134 9.353 3.737 19.542 5.815 30.212 5.815 9.885 0 19.364-1.767 28.141-4.997 28.201-.075 103.249-.511 124.174-.634v33.542c0 .492-.4.892-.893.892z"/><path d="m368.333 94.522c-5.511-.255-10.814 2.238-14.138 6.669-17.717 23.61-17.717 32.251-17.717 35.09 0 16.387 13.332 29.719 29.719 29.719s29.719-13.332 29.719-29.719c0-2.703 0-10.93-14.08-33.8-2.912-4.729-7.96-7.705-13.503-7.959zm-2.135 56.478c-8.116 0-14.719-6.603-14.719-14.719 0-.663.413-7.027 14.715-26.088.42-.56.958-.688 1.363-.688.031 0 .061 0 .09.002.422.02 1.012.181 1.417.839 8.739 14.195 11.853 22.705 11.853 25.936 0 8.115-6.603 14.718-14.719 14.718z"/><path d="m279.978 417.256v-7.04h7.041c6.02 0 10.917-4.897 10.917-10.917v-26.64c0-6.02-4.897-10.917-10.917-10.917h-7.041v-7.041c0-6.02-4.897-10.917-10.917-10.917h-26.639c-6.02 0-10.917 4.897-10.917 10.917v7.041h-7.041c-6.02 0-10.917 4.897-10.917 10.917v26.64c0 6.02 4.897 10.917 10.917 10.917h7.041v7.04c0 6.021 4.897 10.918 10.917 10.918h26.639c6.02 0 10.917-4.898 10.917-10.918zm-15-14.54v10.458h-18.473v-10.458c0-4.143-3.358-7.5-7.5-7.5h-10.458v-18.474h10.458c4.142 0 7.5-3.357 7.5-7.5v-10.458h18.473v10.458c0 4.143 3.357 7.5 7.5 7.5h10.458v18.474h-10.458c-4.143 0-7.5 3.357-7.5 7.5z"/><path d="m349.878 280.999c13.478 0 24.442-10.965 24.442-24.442s-10.965-24.442-24.442-24.442c-13.479 0-24.443 10.965-24.443 24.442s10.965 24.442 24.443 24.442zm0-33.885c5.207 0 9.442 4.235 9.442 9.442s-4.235 9.442-9.442 9.442-9.443-4.235-9.443-9.442 4.236-9.442 9.443-9.442z"/><path d="m164.599 283.716c13.478 0 24.442-10.965 24.442-24.442s-10.965-24.442-24.442-24.442c-13.478 0-24.443 10.965-24.443 24.442s10.965 24.442 24.443 24.442zm0-33.885c5.207 0 9.442 4.235 9.442 9.442s-4.236 9.442-9.442 9.442c-5.207 0-9.443-4.235-9.443-9.442s4.236-9.442 9.443-9.442z"/><path d="m311.9 226.251h4.408c4.143 0 7.5-3.357 7.5-7.5s-3.357-7.5-7.5-7.5h-4.408c-4.143 0-7.5 3.357-7.5 7.5s3.357 7.5 7.5 7.5z"/><path d="m304.94 291.61h3.712c4.143 0 7.5-3.357 7.5-7.5s-3.357-7.5-7.5-7.5h-3.712c-4.143 0-7.5 3.357-7.5 7.5s3.357 7.5 7.5 7.5z"/><path d="m206.743 295.318c4.142 0 7.5-3.357 7.5-7.5s-3.358-7.5-7.5-7.5h-4.176c-4.142 0-7.5 3.357-7.5 7.5s3.358 7.5 7.5 7.5z"/><path d="m349.878 471.434h-5.905c-4.143 0-7.5 3.357-7.5 7.5s3.357 7.5 7.5 7.5h5.905c4.143 0 7.5-3.357 7.5-7.5s-3.357-7.5-7.5-7.5z"/></g></g></svg>