<svg id="Capa_1" enable-background="new 0 0 511.644 511.644" height="512" viewBox="0 0 511.644 511.644" width="512" xmlns="http://www.w3.org/2000/svg"><g><g><path d="m426.801 397.022v20.691l36.222 29.892c10.801 8.914 17.057 22.186 17.057 36.191v13.434c0 3.818-3.095 6.913-6.913 6.913h-144.222c-3.818 0-6.913-3.095-6.913-6.913v-13.434c0-14.005 6.255-27.277 17.057-36.191l36.222-29.892v-20.691-38.946h50.964z" fill="#ffe5c2"/><path d="m426.7 389.515h-27.652v-31.438h-23.736v38.946 20.691l-36.222 29.892c-10.801 8.914-17.057 22.186-17.057 36.191v13.434c0 3.818 3.095 6.913 6.913 6.913h23.736c-3.818 0-6.912-3.095-6.912-6.913v-13.434c0-14.005 6.255-27.277 17.057-36.191l29.038-23.963c.011-.009.023-.019.034-.028 2.21-1.833 4.969-2.828 7.839-2.735.57.019 1.143.028 1.718.028 9.121 0 17.731-2.209 25.346-6.099v-17.786z" fill="#fed2a4"/><path d="m135.934 395.701v20.691l36.222 29.892c10.801 8.914 17.057 22.186 17.057 36.191v13.434c0 3.818-3.095 6.913-6.913 6.913h-144.222c-3.818 0-6.913-3.095-6.913-6.913v-13.434c0-14.005 6.255-27.277 17.057-36.191l36.222-29.892v-20.691-38.946h50.964z" fill="#ffe5c2"/><path d="m135.833 388.171h-27.652v-31.416h-23.736v38.946 20.691l-36.222 29.892c-10.802 8.914-17.057 22.187-17.057 36.191v13.434c0 3.818 3.095 6.913 6.913 6.913h23.736c-3.817 0-6.912-3.095-6.912-6.913v-13.434c0-14.005 6.255-27.277 17.057-36.191l27.755-22.905c3.04-2.509 6.873-3.799 10.815-3.794h.06c9.121 0 17.731-2.209 25.346-6.099v-17.786z" fill="#fed2a4"/><g><path d="m291.383 414.692 48.013 28.379c20.881 12.342 33.691 34.795 33.691 59.05 0 1.117-.905 2.022-2.022 2.022h-231.139c-1.117 0-2.022-.905-2.022-2.022 0-24.256 12.81-46.708 33.691-59.05l48.013-28.379 23.458-12.366h28.658z" fill="#a6e7f0"/></g><path d="m259.566 402.325h-16.5l-23.458 12.366-48.013 28.379c-20.881 12.342-33.691 34.794-33.691 59.05 0 1.117.905 2.022 2.021 2.022h32.2c4.681-16.869 15.716-31.568 31.189-40.714l48.013-28.379 8.239-4.343z" fill="#6bd9e7"/><path d="m292.676 404.954c0 20.534-16.646 37.18-37.18 37.18-20.534 0-37.18-16.646-37.18-37.18v-91.562h74.361v91.562z" fill="#ffe5c2"/><path d="m408.392 273.293c21.661 0 34.244-24.503 21.623-42.107l-152.404-212.582c-10.597-14.782-32.572-14.81-43.206-.055l-153.226 212.581c-12.684 17.598-.109 42.163 21.583 42.163z" fill="#cdbfba"/><path d="m147.635 231.13 141.55-196.383-11.573-16.144c-10.597-14.782-32.572-14.81-43.206-.055l-153.227 212.582c-12.684 17.598-.109 42.163 21.583 42.163h66.455c-21.692 0-34.267-24.565-21.582-42.163z" fill="#b9acac"/><path d="m277.608 189.352h-44.951c-4.737-6.438-12.273-10.312-20.427-10.312-5.702 0-11.304 1.955-15.781 5.513l-.278.222c-16.871 13.403-26.547 33.449-26.547 54.998v33.521h172.397v-19.528c0-35.519-28.896-64.414-64.413-64.414z" fill="#b9acac"/><path d="m395.62 234.699-135.239-188.64c-2.163-3.017-6.648-3.023-8.818-.011l-135.967 188.64c-2.589 3.592-.022 8.605 4.405 8.605h271.205c4.422 0 6.99-5.001 4.414-8.594z" fill="#fef0ae"/><path d="m260.381 46.059c-2.163-3.017-6.648-3.022-8.818-.011l-135.967 188.64c-2.589 3.591-.022 8.605 4.405 8.605h22.775c.533-4.167 2.096-8.33 4.858-12.163l123.044-170.708z" fill="#fee97d"/><path d="m341.156 243.293c-5.018-30.553-31.597-53.941-63.549-53.941h-44.951c-4.737-6.438-12.273-10.312-20.427-10.312-5.702 0-11.304 1.955-15.781 5.513l-.278.222c-16.871 13.403-26.547 33.449-26.547 54.998v3.521h171.533z" fill="#fee97d"/><path d="m271.482 181.687 4.899-58.903c.417-5.014-3.54-9.315-8.572-9.315h-24.626c-5.032 0-8.989 4.3-8.572 9.315l4.899 58.903 3.574 36.189h25.972z" fill="#b9acac"/><g><path d="m322.021 272.574v-18.809c0-24.529-19.885-44.414-44.414-44.414h-56.665l-3.964-7.461c-1.575-2.964-5.453-3.773-8.081-1.685l-.286.227c-11.997 9.532-18.988 24.017-18.988 39.34v32.801l3.406 30.576h124.964z" fill="#cdbfba"/><path d="m255.822 404.515c13.265 0 25.785-3.218 36.854-8.882v-28.903h-52.912v-53.338h-21.449v90.858c0 20.453 16.22 37.604 36.672 37.881 3.911.053 7.704-.505 11.254-1.573-15.304-4.604-26.477-18.799-26.477-35.604 0-1.067.966-1.857 2.017-1.671 4.562.804 9.251 1.232 14.041 1.232z" fill="#fed2a4"/><path d="m255.822 389.515c-36.561 0-66.199-29.638-66.199-66.199v-50.742c44.209-13.535 88.342-13.583 132.398 0v50.742c0 36.561-29.638 66.199-66.199 66.199z" fill="#ffe5c2"/><path d="m218.315 323.316v-57.63c-9.56 1.665-19.124 3.959-28.692 6.888v50.742c0 36.561 29.638 66.199 66.198 66.199 4.928 0 9.791-.547 14.412-1.569-29.659-6.556-51.918-32.998-51.918-64.63z" fill="#fed2a4"/><path d="m401.454 405.907c-22.602 0-40.925-18.323-40.925-40.925v-20.907c0-22.602 18.323-40.925 40.925-40.925 22.602 0 40.925 18.323 40.925 40.925v20.907c.001 22.602-18.322 40.925-40.925 40.925z" fill="#ffe5c2"/><path d="m110.588 404.586c-22.602 0-40.925-18.323-40.925-40.925v-20.907c0-22.602 18.323-40.925 40.925-40.925 22.602 0 40.925 18.323 40.925 40.925v20.907c0 22.602-18.323 40.925-40.925 40.925z" fill="#ffe5c2"/><g fill="#fed2a4"><path d="m384.265 364.981v-20.907c0-18.474 12.266-34.083 29.08-39.171-3.757-1.137-7.763-1.754-11.891-1.754-22.602 0-40.925 18.323-40.925 40.925v20.907c0 22.603 18.323 40.925 40.925 40.925 4.128 0 8.145-.615 11.902-1.752-16.814-5.087-29.091-20.698-29.091-39.173z"/><path d="m93.399 363.661v-20.907c0-18.474 12.263-34.089 29.076-39.177-3.757-1.137-7.759-1.748-11.887-1.748-22.602 0-40.925 18.323-40.925 40.925v20.907c0 22.603 18.323 40.925 40.925 40.925 4.128 0 8.134-.617 11.891-1.754-16.814-5.088-29.08-20.697-29.08-39.171z"/></g></g></g><g><path d="m313.033 418.776-13.268-7.843c.263-1.958.412-3.951.412-5.979v-22.826c17.811-13.465 29.345-34.815 29.345-58.813v-69.551c0-28.625-23.288-51.913-51.913-51.913h-52.157l-1.849-3.479c-1.799-3.387-4.984-5.778-8.738-6.561-3.751-.781-7.629.137-10.634 2.524l-.283.226c-13.869 11.018-21.823 27.497-21.823 45.211v60.313c0 4.143 3.357 7.5 7.5 7.5s7.5-3.357 7.5-7.5v-21.897c39.11-10.971 78.545-10.975 117.397-.01v45.137c0 32.367-26.332 58.699-58.699 58.699-29.334 0-54.343-21.903-58.172-50.949-.541-4.106-4.305-6.993-8.416-6.455-4.106.541-6.996 4.31-6.455 8.416 2.615 19.834 13.101 37.002 28.036 48.553v23.375c0 2.028.149 4.022.412 5.979l-43.448 25.681c-23.054 13.627-37.375 38.728-37.375 65.507v2.021c0 4.143 3.357 7.5 7.5 7.5s7.5-3.357 7.5-7.5v-2.021c0-21.5 11.498-41.653 30.008-52.595l40.479-23.926c7.469 14.269 22.414 24.033 39.605 24.033s32.135-9.765 39.605-24.033l10.3 6.088c1.198.708 2.512 1.045 3.81 1.045 2.564 0 5.063-1.316 6.463-3.685 2.106-3.565.923-8.164-2.642-10.272zm-115.909-156.122v-22.881c0-12.373 5.242-23.932 14.461-32.05l2.735 5.147c1.302 2.45 3.849 3.981 6.623 3.981h56.665c20.354 0 36.913 16.56 36.913 36.913v8.874c-38.886-10.251-78.288-10.246-117.397.016zm58.372 171.98c-16.366 0-29.681-13.314-29.681-29.68v-14.374c9.214 4.134 19.381 6.435 30.007 6.435 10.43 0 20.354-2.191 29.354-6.116v14.055c0 16.365-13.314 29.68-29.68 29.68z"/><path d="m343.211 436.614-2.641-1.561c-3.563-2.105-8.164-.925-10.272 2.642-2.107 3.565-.925 8.165 2.642 10.272l2.64 1.56c18.51 10.94 30.008 31.093 30.008 52.594v2.022c0 4.143 3.357 7.5 7.5 7.5s7.5-3.357 7.5-7.5v-2.022c-.001-26.779-14.322-51.88-37.377-65.507z"/><path d="m467.796 441.82-33.496-27.641v-13.655c9.572-8.853 15.579-21.507 15.579-35.542v-20.907c0-26.701-21.724-48.425-48.425-48.425-26.702 0-48.426 21.724-48.426 48.425v20.907c0 14.035 6.007 26.689 15.579 35.542v13.656l-6.794 5.605c-3.194 2.637-3.647 7.363-1.012 10.559 1.483 1.798 3.628 2.727 5.789 2.727 1.681 0 3.372-.562 4.77-1.715l9.521-7.855c1.727-1.425 2.727-3.547 2.727-5.785v-7.729c5.527 2.2 11.545 3.422 17.847 3.422 6.301 0 12.319-1.223 17.846-3.422v7.729c0 2.238 1 4.36 2.727 5.785l36.223 29.891c9.106 7.516 14.33 18.599 14.33 30.406v12.848h-69.493c-4.143 0-7.5 3.357-7.5 7.5s3.357 7.5 7.5 7.5h70.081c7.947 0 14.412-6.466 14.412-14.413v-13.435c-.001-16.303-7.212-31.602-19.785-41.978zm-99.767-76.839v-20.907c0-18.431 14.995-33.425 33.426-33.425s33.425 14.994 33.425 33.425v20.907c0 18.431-14.994 33.426-33.425 33.426s-33.426-14.995-33.426-33.426z"/><path d="m140.284 431.354c1.397 1.153 3.088 1.715 4.77 1.715 2.161 0 4.306-.93 5.789-2.727 2.636-3.194 2.184-7.922-1.012-10.559l-6.794-5.606v-13.655c9.571-8.853 15.578-21.506 15.578-35.541v-20.907c0-26.701-21.724-48.425-48.425-48.425-26.702 0-48.426 21.724-48.426 48.425v20.907c0 14.035 6.007 26.689 15.579 35.542v13.655l-33.497 27.644c-12.571 10.376-19.782 25.675-19.782 41.975v13.435c0 7.947 6.466 14.412 14.413 14.412h70.081c4.143 0 7.5-3.357 7.5-7.5s-3.357-7.5-7.5-7.5h-69.494v-12.847c0-11.807 5.224-22.89 14.33-30.406l36.223-29.893c1.727-1.424 2.727-3.546 2.727-5.784v-7.728c5.527 2.2 11.545 3.422 17.847 3.422s12.32-1.223 17.847-3.423v7.729c0 2.238 1 4.36 2.727 5.785zm-63.52-66.373v-20.907c0-18.431 14.995-33.425 33.426-33.425s33.425 14.994 33.425 33.425v20.907c0 18.431-14.994 33.426-33.425 33.426s-33.426-14.995-33.426-33.426z"/><path d="m102.762 280.793h56.861c4.143 0 7.5-3.357 7.5-7.5s-3.357-7.5-7.5-7.5h-56.861c-7.315 0-13.673-3.888-17.006-10.399-3.334-6.513-2.771-13.943 1.507-19.878l153.225-212.581c3.636-5.044 9.283-7.935 15.499-7.935h.025c6.226.008 11.876 2.914 15.503 7.974l152.403 212.582c4.257 5.937 4.806 13.36 1.47 19.859-3.338 6.498-9.691 10.378-16.996 10.378h-56.371c-4.143 0-7.5 3.357-7.5 7.5s3.357 7.5 7.5 7.5h56.371c12.846 0 24.472-7.099 30.339-18.526 5.868-11.428 4.863-25.012-2.621-35.451l-152.403-212.583c-6.476-9.031-16.563-14.219-27.676-14.233-.016 0-.029 0-.045 0-11.095 0-21.178 5.161-27.666 14.163l-153.225 212.581c-7.522 10.437-8.554 24.033-2.691 35.484s17.495 18.565 30.358 18.565z"/><path d="m289.479 86.646c3.366-2.414 4.139-7.1 1.726-10.466l-29.129-40.63c-1.407-1.962-3.672-3.127-6.086-3.13-.004 0-.007 0-.01 0-2.411 0-4.675 1.159-6.084 3.114l-146.586 203.373c-1.646 2.284-1.875 5.298-.592 7.804 1.282 2.506 3.86 4.082 6.676 4.082h50.229c4.143 0 7.5-3.357 7.5-7.5s-3.357-7.5-7.5-7.5h-35.578l131.918-183.023 23.05 32.15c2.414 3.367 7.102 4.136 10.466 1.726z"/><path d="m343.77 243.293c0 4.143 3.357 7.5 7.5 7.5h50.511c2.812 0 5.388-1.572 6.672-4.074 1.284-2.501 1.062-5.511-.576-7.796l-98.049-136.766c-2.414-3.367-7.101-4.137-10.466-1.726-3.366 2.414-4.139 7.1-1.726 10.466l89.539 124.896h-35.905c-4.143 0-7.5 3.357-7.5 7.5z"/><path d="m270.861 189.162c.211.018.421.025.63.025 3.86 0 7.14-2.962 7.466-6.879l4.897-58.901c.373-4.474-1.156-8.935-4.196-12.238s-7.358-5.199-11.849-5.199h-24.627c-4.49 0-8.809 1.896-11.849 5.199s-4.569 7.765-4.197 12.236l4.898 58.903c.344 4.13 3.989 7.201 8.096 6.854 4.128-.344 7.196-3.969 6.854-8.096l-4.899-58.905c-.032-.397.139-.674.287-.836.149-.162.411-.355.811-.355h24.627c.399 0 .661.193.811.355.148.162.319.438.286.838l-4.898 58.903c-.344 4.127 2.724 7.752 6.852 8.096z"/></g></g></svg>