<svg id="Capa_1" enable-background="new 0 0 512.906 512.906" height="512" viewBox="0 0 512.906 512.906" width="512" xmlns="http://www.w3.org/2000/svg"><g><g><path d="m222.268 102.568c-.718-3.763-4.008-6.485-7.839-6.485h-25.042c-3.831 0-7.121 2.722-7.839 6.485l-7.158 37.524 6.282 25.275h43.595l5.161-25.275z" fill="#f79595"/><path d="m174.387 238.319h-50.32c-4.23 0-8.17 2.19-10.4 5.78l-44.53 71.52-16.772 21.602h136.842l1.365-89.12z" fill="#a6e7f0"/><path d="m79.787 315.619-27.422 21.602v63.477l27.422-3.903v12.414h146.12l1.16-93.59z" fill="#f9f3f1"/><path d="m79.787 315.619v93.59h-63.37v-23.28-46.41c0-6.22 4.23-11.65 10.26-13.18l42.46-10.72z" fill="#f3eae6"/><g><g id="XMLID_861_"><g><g id="XMLID_860_"><g><path d="m228.027 238.319-.96 77.3h-52.68v-77.3z" fill="#6bd9e7"/></g></g></g></g><g><path d="m505.407 394.919v14.29h-301.38v-19.43-169.284c0-6.161-4.995-11.156-11.156-11.156h-53.024c-5.562 0-10.07-4.508-10.07-10.07v-49.11c0-5.562 4.508-10.07 10.07-10.07h131.92 212.91 6.63c7.787 0 14.1 6.313 14.1 14.1z" fill="#f9f3f1"/></g><path d="m204.027 409.209h36.582v-15.988-194.395c0-11.07-8.974-20.045-20.045-20.045h-44.135c-5.562 0-10.07-4.508-10.07-10.07v-28.622h-26.512c-5.562 0-10.07 4.508-10.07 10.07v49.11c0 5.562 4.509 10.07 10.07 10.07h53.023c6.161 0 11.156 4.995 11.156 11.156v169.284 19.43z" fill="#f3eae6"/><g><path d="m170.688 352.221h-8.658c-4.142 0-7.5-3.357-7.5-7.5s3.358-7.5 7.5-7.5h8.658c4.142 0 7.5 3.357 7.5 7.5s-3.358 7.5-7.5 7.5z" fill="#f3eae6"/></g><path d="m204.029 300.596h301.377v44.125h-301.377z" fill="#f79595"/><path d="m204.029 300.596h36.58v44.125h-36.58z" fill="#f37c7c"/><path d="m378.222 236.547c53.186 0 96.456-43.27 96.456-96.456 0 0 0-.001 0-.002h-192.912v.002c0 53.187 43.27 96.456 96.456 96.456z" fill="#f3eae6"/><circle cx="378.222" cy="140.091" fill="#f79595" r="76.456"/><path d="m332.105 140.091c0-37.031 26.36-67.913 61.318-74.951-4.904-.987-10.006-1.505-15.201-1.505-42.225 0-76.456 34.23-76.456 76.456s34.23 76.456 76.456 76.456c5.194 0 10.335-.531 15.238-1.519-34.958-7.036-61.355-37.905-61.355-74.937z" fill="#f37c7c"/><path d="m415.685 122.863h-20.235v-20.235c0-2.142-1.736-3.879-3.878-3.879h-26.699c-2.142 0-3.879 1.737-3.879 3.879v20.235h-20.235c-2.142 0-3.879 1.736-3.879 3.879v26.699c0 2.142 1.737 3.878 3.879 3.878h20.235v20.235c0 2.142 1.736 3.879 3.879 3.879h26.699c2.142 0 3.878-1.737 3.878-3.879v-20.234h20.235c2.142 0 3.879-1.737 3.879-3.878v-26.699c0-2.143-1.737-3.88-3.879-3.88z" fill="#faf7f7"/></g><g><path d="m505.407 394.919v16.01c0 7.17-5.81 12.98-12.98 12.98h-469.3c-8.63 0-15.63-6.99-15.63-15.62v-6.73c0-8.64 7-15.63 15.63-15.63h40.9 28.94v8.99h30.79z" fill="#e1d3ce"/></g><circle cx="88.94" cy="412.696" fill="#9e9797" r="36.575"/><circle cx="371.986" cy="412.696" fill="#9e9797" r="36.575"/><g fill="#766e6e"><path d="m78.829 412.696c0-15.532 9.706-28.796 23.363-34.1-4.105-1.594-8.584-2.475-13.252-2.475-20.2 0-36.575 16.375-36.575 36.575s16.375 36.575 36.575 36.575c4.668 0 9.148-.887 13.252-2.481-13.657-5.304-23.363-18.562-23.363-34.094z"/><path d="m361.875 412.696c0-15.532 9.705-28.793 23.362-34.097-4.105-1.594-8.583-2.478-13.251-2.478-20.2 0-36.575 16.375-36.575 36.575s16.375 36.575 36.575 36.575c4.668 0 9.146-.885 13.251-2.48-13.657-5.304-23.362-18.563-23.362-34.095z"/></g></g><g><g><path d="m491.309 132.591h-6.631c-4.142 0-7.5 3.357-7.5 7.5s3.358 7.5 7.5 7.5h6.631c3.638 0 6.598 2.96 6.598 6.598v138.907h-224.999c-4.142 0-7.5 3.357-7.5 7.5s3.358 7.5 7.5 7.5h224.998v29.125h-27.247c-4.142 0-7.5 3.357-7.5 7.5s3.358 7.5 7.5 7.5h27.247v35.198h-89.846c-7.981-11.355-21.171-18.798-36.074-18.798-14.914 0-28.112 7.453-36.091 18.822-.161-.01-.32-.024-.484-.024h-123.882v-35.198h227.167c4.142 0 7.5-3.357 7.5-7.5s-3.358-7.5-7.5-7.5h-227.167v-29.125h29.416c4.142 0 7.5-3.357 7.5-7.5s-3.358-7.5-7.5-7.5h-29.416v-83.757c0-4.143-3.358-7.5-7.5-7.5h-64.178c-1.417 0-2.57-1.153-2.57-2.57v-49.107c0-1.417 1.153-2.57 2.57-2.57h131.915c4.142 0 7.5-3.357 7.5-7.5s-3.358-7.5-7.5-7.5h-36.136l-5.996-31.429c-1.39-7.289-7.786-12.58-15.207-12.58h-25.042c-7.421 0-13.816 5.291-15.207 12.58l-5.996 31.429h-28.333c-9.688 0-17.57 7.882-17.57 17.57v49.107c0 9.688 7.882 17.57 17.57 17.57h56.678v13.984h-72.462c-6.87 0-13.139 3.482-16.77 9.314l-42.924 68.953-39.527 9.978c-9.38 2.367-15.931 10.777-15.931 20.451v43.809c-5.418 4.237-8.913 10.829-8.913 18.226v6.73c0 12.753 10.375 23.128 23.128 23.128h25.921c7.052 14.969 22.278 25.358 39.891 25.358 17.614 0 32.84-10.39 39.892-25.358h203.263c7.052 14.969 22.278 25.358 39.891 25.358s32.84-10.39 39.891-25.358h80.55c11.292 0 20.479-9.187 20.479-20.479v-256.744c0-11.909-9.688-21.598-21.597-21.598zm-302.395-28.618c.043-.227.242-.391.472-.391h25.042c.23 0 .429.164.472.391l5.459 28.618h-36.905zm-63.9 283.446c-7.981-11.355-21.171-18.798-36.074-18.798-.556 0-1.106.021-1.657.042v-45.541h109.246v64.297zm71.515-79.296h-14.641v-62.299h14.641zm-76.497-60.058c.874-1.403 2.382-2.241 4.035-2.241h42.822v62.299h-84.244zm-91.515 85.548 43.766-10.49v48.777c-3.999 1.639-7.704 3.847-11.016 6.526h-37.352v-38.906c0-2.794 1.892-5.223 4.602-5.907zm-5.389 82.8c-4.482 0-8.128-3.646-8.128-8.128v-6.73c0-4.481 3.646-8.128 8.128-8.128h26.182c-2.844 5.825-4.444 12.363-4.444 19.27 0 1.253.065 2.49.168 3.717h-21.906zm65.812 25.358c-16.032 0-29.075-13.043-29.075-29.075 0-16.031 13.043-29.074 29.075-29.074s29.075 13.043 29.075 29.074c0 16.032-13.043 29.075-29.075 29.075zm43.907-25.358c.103-1.227.168-2.464.168-3.717 0-3.539-.431-6.977-1.222-10.276h197.34c-.791 3.299-1.222 6.738-1.222 10.276 0 1.253.065 2.49.168 3.717zm239.139 25.358c-16.032 0-29.075-13.043-29.075-29.075 0-16.031 13.043-29.074 29.075-29.074s29.075 13.043 29.075 29.074c0 16.032-13.043 29.075-29.075 29.075zm120.441-25.358h-76.535c.103-1.227.168-2.464.168-3.717 0-3.539-.431-6.977-1.222-10.276h83.068v8.515c0 3.02-2.458 5.478-5.479 5.478z"/><path d="m170.688 337.221h-8.658c-4.142 0-7.5 3.357-7.5 7.5s3.358 7.5 7.5 7.5h8.658c4.142 0 7.5-3.357 7.5-7.5s-3.358-7.5-7.5-7.5z"/><path d="m378.222 224.047c46.293 0 83.956-37.662 83.956-83.956s-37.662-83.956-83.956-83.956c-22.616 0-43.829 8.869-59.731 24.973-2.911 2.947-2.881 7.695.066 10.606 2.948 2.91 7.695 2.88 10.606-.067 13.063-13.227 30.485-20.512 49.058-20.512 38.022 0 68.956 30.934 68.956 68.956s-30.933 68.956-68.956 68.956-68.956-30.934-68.956-68.956c0-8.257 1.45-16.342 4.31-24.031 1.444-3.882-.533-8.2-4.416-9.644-3.881-1.441-8.2.532-9.644 4.415-3.484 9.368-5.25 19.213-5.25 29.26.001 46.294 37.664 83.956 83.957 83.956z"/><path d="m391.572 91.25h-26.699c-6.274 0-11.379 5.104-11.379 11.379v12.734h-12.735c-6.274 0-11.379 5.104-11.379 11.379v26.699c0 6.274 5.104 11.379 11.379 11.379h12.735v12.734c0 6.274 5.104 11.379 11.379 11.379h26.699c6.274 0 11.378-5.104 11.378-11.379v-12.734h12.735c6.274 0 11.378-5.104 11.378-11.379v-26.699c0-6.274-5.104-11.379-11.378-11.379h-12.735v-12.734c0-6.275-5.104-11.379-11.378-11.379zm20.492 39.113v19.457h-16.614c-4.142 0-7.5 3.357-7.5 7.5v16.613h-19.457v-16.613c0-4.143-3.358-7.5-7.5-7.5h-16.613v-19.457h16.614c4.142 0 7.5-3.357 7.5-7.5v-16.613h19.457v16.613c0 4.143 3.358 7.5 7.5 7.5z"/></g></g></g></svg>